<svg width="126" height="144" viewBox="0 0 126 144" fill="none" xmlns="http://www.w3.org/2000/svg">
<path d="M1 14.7857L13.3678 0.5L25.7356 11.2143L38.1034 0.5L50.4712 11.2143L62.839 0.5L75.2068 11.2143L87.5746 0.5L99.9424 11.2143L112.31 0.5L124.678 14.7857L115.402 29.0714L124.678 43.3571L115.402 57.6429L124.678 71.9286L115.402 86.2143L124.678 100.5L115.402 114.786L124.678 129.071L112.31 143.357L99.9424 132.643L87.5746 143.357L75.2068 132.643L62.839 143.357L50.4712 132.643L38.1034 143.357L25.7356 132.643L13.3678 143.357L1 129.071L10.2758 114.786L1 100.5L10.2758 86.2143L1 71.9286L10.2758 57.6429L1 43.3571L10.2758 29.0714L1 14.7857Z" fill="white" stroke="#D4D4D4" stroke-linecap="square" stroke-linejoin="round"/>
</svg>
