<svg width="81" height="108" viewBox="0 0 81 108" fill="none" xmlns="http://www.w3.org/2000/svg">
<path d="M2.25061 5.80538C2.25061 7.72901 2.41604 9.63711 2.47337 11.5578C2.52567 13.3098 2.29194 15.16 2.63061 16.891C3.2619 20.1176 3.98063 23.2635 4.25545 26.5615C4.65763 31.3874 6.2603 36.1144 6.2603 40.9491" stroke="black" stroke-width="1.54" stroke-linecap="round"/>
<path d="M2.25061 5.09778C7.70229 3.54017 12.6565 0.745325 18.5253 1.37637C22.171 1.7684 25.117 4.52939 28.6413 5.07158C29.7634 5.24422 30.3069 5.8969 31.2751 6.51297C32.7989 7.48278 34.4719 8.18195 35.953 9.22541C37.4786 10.3002 39.0722 11.2102 40.5392 12.3703C42.0652 13.5769 43.4643 15.0584 45.0731 16.131C48.208 18.2209 51.0085 20.6449 54.2455 22.6042C55.8481 23.5741 57.5828 23.7326 59.2773 24.4386C61.0745 25.1875 62.916 26.1022 64.7809 26.6532C66.5605 27.1789 68.479 27.1742 70.2975 27.5049C72.0071 27.8158 73.7899 28.1126 75.5257 28.1993C76.2711 28.2366 79.3781 28.4916 79.3781 29.1559" stroke="black" stroke-width="1.54" stroke-linecap="round"/>
<path d="M2.95821 8.39988C5.57099 8.39988 7.24676 6.46698 9.5624 5.80537C10.5494 5.52336 11.0777 5.09778 12.1569 5.09778C13.2765 5.09778 14.109 4.39019 15.2231 4.39019C18.8078 4.39019 21.6735 6.55043 24.7757 8.01987C25.8409 8.52448 26.9104 9.27141 28.0646 9.57919C29.3073 9.91059 30.256 9.85995 31.393 10.5096C33.0148 11.4364 35.2483 11.9678 36.4509 13.4709C37.7009 15.0335 39.7197 15.4528 41.2861 16.5372C42.6505 17.4818 43.9014 17.9154 44.955 19.1449C46.3938 20.8233 48.4164 22.0919 50.1835 23.3641C50.903 23.8822 51.6371 24.4742 52.4897 24.8579C53.0913 25.1287 54.4849 25.8223 55.0842 25.8539C56.4975 25.9282 57.3881 26.7973 58.858 26.7973C60.3025 26.7973 60.8079 27.9902 61.9242 28.5794C62.8173 29.0507 63.8658 29.2357 64.7547 29.6801C65.6203 30.113 65.8771 30.3353 66.9299 30.3353C67.8117 30.3353 68.6734 30.2756 69.5243 30.5187C70.2608 30.7292 71.2054 30.5495 71.9615 30.5711C72.811 30.5954 73.6555 31.4241 74.4774 31.698C75.7998 32.1389 77.0409 31.5145 78.4347 31.5145C79.8436 31.5145 77.963 28.604 77.963 27.9767" stroke="black" stroke-width="1.54" stroke-linecap="round"/>
<path d="M10.7417 6.27712C10.8341 10.5238 10.9776 14.7579 10.9776 19.0138" stroke="black" stroke-width="1.54" stroke-linecap="round"/>
<path d="M13.3362 5.5695C13.3362 10.2557 13.1004 14.844 13.1004 19.4856" stroke="black" stroke-width="1.54" stroke-linecap="round"/>
<path d="M20.1763 6.04124C20.248 8.98322 20.648 11.8373 20.648 14.7682C20.648 16.8323 20.4121 18.9249 20.4121 20.9006" stroke="black" stroke-width="1.54" stroke-linecap="round"/>
<path d="M23.7142 7.92817C23.7142 9.5006 23.7142 11.073 23.7142 12.6455C23.7142 13.6239 23.5063 14.9358 23.8976 15.8165C24.6716 17.5577 24.186 20.4342 24.186 22.3158" stroke="black" stroke-width="1.54" stroke-linecap="round"/>
<path d="M5.31686 18.542C7.17617 18.542 10.3084 17.9927 12.0259 18.7779C12.7791 19.1223 13.2175 19.2496 14.0438 19.2496C14.9423 19.2496 15.649 19.8261 16.5335 19.9442C17.6027 20.0867 18.9612 20.3771 20.0452 20.18C20.8207 20.039 21.5643 19.7573 22.3909 20.0751C23.428 20.4741 24.8622 20.9271 25.9419 21.1234C26.7306 21.2669 27.414 21.8194 28.1956 22.08" stroke="black" stroke-width="1.54" stroke-linecap="round"/>
<path d="M5.08098 19.0138C5.08098 19.6384 5.18037 20.3606 5.06789 20.9793C5.04642 21.0974 4.71511 21.2848 4.97617 21.3592C5.39143 21.4779 6.46432 21.1366 6.9679 21.1366C8.59839 21.1366 10.0407 21.5446 11.5804 21.8966C12.2471 22.049 12.9914 22.3158 13.6769 22.3158C14.2722 22.3158 14.8639 23.1365 15.5769 23.2462C16.8407 23.4407 18.3097 23.9669 19.5866 23.9669C20.1937 23.9669 20.8008 23.9669 21.4081 23.9669C22.3473 23.9669 22.6728 24.621 23.4784 24.8579C23.9615 25 24.7531 24.7038 25.1426 25.0284C25.3376 25.1909 26.6031 25.6181 26.8983 25.6181C27.2746 25.6181 28.2432 26.0985 28.0122 25.8015C27.8013 25.5302 27.9368 24.7997 27.7764 24.4387C27.3824 23.5522 27.488 22.1231 27.488 21.1366" stroke="black" stroke-width="1.54" stroke-linecap="round"/>
<path d="M6.02445 29.6277C6.02445 30.7118 5.6092 31.6772 5.55272 32.694C5.48231 33.9612 7.63261 33.4016 8.56655 33.4016C11.8965 33.4016 15.2414 33.6374 18.63 33.6374C19.4372 33.6374 19.9943 33.9819 20.7529 34.1615C21.9567 34.4466 23.2054 34.2573 24.3826 34.6987C26.3143 35.4231 28.5589 34.8177 30.5019 35.5242C31.7266 35.9697 33.2811 36.1644 34.5639 36.2318C36.0198 36.3085 37.7133 36.8041 39.0586 37.3325C44.488 39.4655 50.4053 40.0057 56.2636 40.0057C57.8072 40.0057 60.7259 39.4003 62.029 40.294C63.0652 41.0044 64.4903 40.9491 65.7111 40.9491C67.0255 40.9491 68.2838 41.6476 69.6029 41.4077C70.8865 41.1744 71.5404 41.2456 72.774 41.6567" stroke="black" stroke-width="1.54" stroke-linecap="round"/>
<path d="M5.55271 29.6277C8.88538 29.6277 12.2181 29.6277 15.5507 29.6277C16.9133 29.6277 18.5969 29.3701 19.9403 29.6801C20.9303 29.9085 21.5675 30.5711 22.6267 30.5711C23.3711 30.5711 23.0221 30.9394 23.5833 31.0953C26.5255 31.9125 29.6152 32.2908 32.4936 33.1132C33.7684 33.4774 35.638 33.8236 36.9751 33.8732C37.9953 33.911 38.9444 34.3067 39.9364 34.345C41.2362 34.395 42.1201 34.9097 43.3434 35.236C45.356 35.7727 47.669 35.2421 49.7642 35.7077C51.4721 36.0873 53.0667 36.0836 54.8222 36.2843C56.2504 36.4476 57.39 36.8692 58.7401 37.2801C59.2655 37.4401 59.994 37.8673 60.509 37.8828C62.6546 37.9479 64.6849 38.5904 66.8773 38.5904C68.529 38.5904 70.1587 39.0622 71.8306 39.0622C73.0418 39.0622 73.6967 41.667 72.774 42.1285" stroke="black" stroke-width="1.54" stroke-linecap="round"/>
<path d="M8.14722 21.1366C8.14722 22.7265 8.14722 24.3164 8.14722 25.9062C8.14722 26.5922 8.48097 29.3428 7.91136 29.6277" stroke="black" stroke-width="1.54" stroke-linecap="round"/>
<path d="M25.6012 25.1463C26.3281 27.3273 26.0728 29.7011 26.0728 31.9863" stroke="black" stroke-width="1.54" stroke-linecap="round"/>
<path d="M7.20375 33.6374C7.20375 36.3268 7.13909 39.2378 6.67961 41.8926C6.2565 44.3372 6.2603 46.6425 6.2603 49.152C6.2603 51.7337 6.49952 54.4152 5.97202 56.9355C5.70509 58.2108 5.85017 59.468 5.78857 60.7617C5.72048 62.1917 5.31684 63.5224 5.31684 65.0072C5.31684 67.5438 5.08098 70.0277 5.08098 72.5549C5.08098 73.288 5.09763 74.0234 5.08098 74.7562C5.0606 75.6531 4.48324 76.4015 4.38648 77.2721C4.32331 77.8408 4.24822 78.4252 4.08511 78.9757C3.84238 79.7949 4.07639 80.7053 3.77062 81.4916C3.02143 83.4181 3.47611 85.82 3.18097 87.8861C3.10155 88.4419 2.50811 88.7912 2.48647 89.3536C2.46173 89.9971 2.25539 90.5763 2.13268 91.2145C1.54316 94.2799 1.54302 97.5089 1.54302 100.623" stroke="black" stroke-width="1.54" stroke-linecap="round"/>
<path d="M25.837 35.0526C25.837 38.2781 26.0728 41.4878 26.0728 44.7229C26.0728 45.3799 26.1178 45.9958 25.837 46.6099C24.9826 48.4789 25.0788 51.1412 24.7757 53.1617C24.0997 57.6677 25.1995 62.219 24.5267 66.7369C24.0032 70.2518 24.4652 73.9221 23.6618 77.4032C23.1305 79.7059 23.0066 82.5863 23.0066 84.9509C23.0066 86.3633 23.0831 87.6529 23.5307 89.013C24.1433 90.8742 24.2865 92.7443 24.4088 94.7C24.5267 96.587 24.186 98.4196 24.186 100.269C24.186 100.985 23.831 101.508 23.7274 102.182C23.6093 102.949 23.9502 103.632 23.9502 104.397" stroke="black" stroke-width="1.54" stroke-linecap="round"/>
<path d="M1.54303 93.0751C1.54303 94.6197 1.77889 96.144 1.77889 97.6745C1.77889 98.6714 1.54303 99.6404 1.54303 100.623C1.54303 101.409 1.54303 102.195 1.54303 102.981C1.54303 103.672 1.21539 104.304 1.32027 104.986C1.53554 106.386 2.68331 106.284 3.90167 106.284C5.59639 106.284 7.29113 106.284 8.98586 106.284C12.3871 106.284 15.8908 106.048 19.3508 106.048C20.4691 106.048 21.5668 106.252 22.6397 106.284C22.7305 106.286 24.3144 106.303 24.1336 106.1C23.6606 105.568 22.7722 104.396 23.7142 103.925" stroke="black" stroke-width="1.54" stroke-linecap="round"/>
<path d="M2.01475 92.6033C3.48 92.447 4.90943 92.3675 6.37824 92.3675C7.30976 92.3675 8.03961 92.8393 8.97275 92.8393C10.6456 92.8393 12.3185 92.8393 13.9914 92.8393C15.5027 92.8393 17.014 92.8393 18.5253 92.8393C20.223 92.8393 21.6177 92.4566 23.2426 92.1317" stroke="black" stroke-width="1.54" stroke-linecap="round"/>
<path d="M24.6578 65.0074C25.4999 63.2293 27.2477 61.8191 28.0122 60.2899C28.484 59.3465 29.7281 58.5751 30.646 58.1673C31.3972 57.8333 32.065 57.1818 32.782 56.8044C34.0528 56.1356 35.1518 55.7817 36.595 55.5597C38.3381 55.2915 39.9937 55.101 41.7579 55.101C43.2543 55.101 44.659 55.6578 46.1213 55.9921C48.7392 56.5904 50.6774 59.657 52.4897 61.4693C53.3994 62.379 54.7839 62.6175 55.556 63.7756C55.9236 64.327 56.0456 64.8335 56.3159 65.3743C56.3929 65.5284 56.7539 66.3429 56.8531 66.4224C57.1521 66.6617 56.961 67.6768 57.0891 68.0866C57.3743 68.9996 57.1378 69.9722 57.4428 70.9039C57.8745 72.2228 58.3862 73.3806 58.3862 74.8088C58.3862 76.2122 57.9682 77.6345 58.2683 79.0151C58.5545 80.3315 58.6222 82.0807 58.6222 83.4046C58.6222 84.3344 58.1504 85.0519 58.1504 85.8813C58.1504 86.8641 58.1504 87.8467 58.1504 88.8295" stroke="black" stroke-width="1.54" stroke-linecap="round"/>
<path d="M57.207 40.0057C57.207 41.4035 57.207 42.8011 57.207 44.1988C57.207 46.1918 58.1504 47.6893 58.1504 49.6762C58.1504 52.9077 57.9146 56.1556 57.9146 59.3465C57.9146 62.4532 58.1504 65.4542 58.1504 68.5452C58.1504 69.9258 58.3862 71.3128 58.3862 72.6598C58.3862 73.9027 58.858 74.5425 58.858 75.8571" stroke="black" stroke-width="1.54" stroke-linecap="round"/>
<path d="M70.6512 41.4209C70.6907 43.6345 71.3144 45.7411 71.3588 47.9464C71.413 50.6409 71.8386 53.262 72.0664 55.9395C72.2619 58.2373 72.5951 60.3783 72.8787 62.6485C73.239 65.531 73.4816 68.5715 73.4816 71.4673C73.4816 73.7482 74.1892 75.945 74.1892 78.2157C74.1892 79.8387 74.4252 81.5129 74.8443 83.0639C75.2993 84.7475 74.9416 86.4177 75.185 88.1219C75.667 91.4951 75.1326 95.0701 75.1326 98.5" stroke="black" stroke-width="1.54" stroke-linecap="round"/>
<path d="M58.1504 100.623C60.9423 100.623 63.6661 99.9152 66.4057 99.9152C67.1349 99.9152 67.7986 100.151 68.5284 100.151C69.2959 100.151 69.886 99.7865 70.6382 99.6924C71.7699 99.551 72.9256 99.4434 74.0713 99.4434C75.0276 99.4434 76.5941 99.3487 74.8968 98.5" stroke="black" stroke-width="1.54" stroke-linecap="round"/>
<path d="M57.9146 88.1219C59.9223 88.8447 62.8471 89.1639 64.9381 88.5937C66.4303 88.1866 67.6814 87.6502 69.2491 87.6502C70.501 87.6502 71.8935 87.4734 73.1277 87.6633C73.8046 87.7675 74.4385 88.1219 75.1326 88.1219" stroke="black" stroke-width="1.54" stroke-linecap="round"/>
<path d="M50.1311 75.3853C51.8406 75.3853 54.0172 75.0353 55.556 75.8046C56.4097 76.2315 57.5345 75.8571 58.3862 75.8571" stroke="black" stroke-width="1.54" stroke-linecap="round"/>
<path d="M49.8951 75.8571C49.8951 77.425 49.8951 78.9931 49.8951 80.5612C49.8951 81.4731 50.3064 82.0768 50.4848 82.933C50.871 84.7866 50.4091 86.7368 50.7206 88.6069C51.2613 91.8503 52.0179 94.9549 52.0179 98.2642" stroke="black" stroke-width="1.54" stroke-linecap="round"/>
<path d="M58.1504 88.8295V101.566" stroke="black" stroke-width="1.54" stroke-linecap="round"/>
<path d="M51.3103 96.613C51.725 97.4769 52.6413 98.1342 53.3544 98.6572C54.42 99.4385 55.2555 100.491 56.3683 101.199C56.7985 101.473 57.2703 101.931 57.7311 102.09C58.6377 102.404 58.3862 102.33 58.3862 101.566" stroke="black" stroke-width="1.54" stroke-linecap="round"/>
<path d="M24.186 66.6584C24.8776 66.5816 25.1623 65.9828 25.7846 65.7673C26.3149 65.5837 27.0575 65.7148 27.6059 65.7148C28.1762 65.7148 28.7526 65.693 29.3225 65.7148C29.7531 65.7314 30.0148 66.1207 30.4495 66.1998C31.0521 66.3092 31.5275 66.4009 32.1529 66.4224C32.9979 66.4516 33.5017 67.1156 34.197 67.4839C34.6793 67.7392 36.2054 68.2205 36.4509 68.6501C36.5845 68.8839 37.0043 68.9429 37.2109 69.2528C37.4784 69.6542 38.4038 70.454 38.8096 70.7728C39.7546 71.5153 40.1295 72.2471 40.8275 73.1446C41.6862 74.2487 41.7115 77.0904 41.8626 78.4515C42.0945 80.5381 41.404 82.7082 41.404 84.8198C41.404 86.2344 40.6958 90.428 42.164 91.0047C43.1206 91.3805 44.2835 92.1471 44.9944 92.7868C45.2459 93.0132 45.7161 92.696 45.9904 92.9702C46.2422 93.222 46.5111 93.3603 46.7765 93.5993C47.5646 94.3086 48.2015 94.3379 49.0828 94.7785C49.8613 95.1678 50.5533 96.1084 51.3103 96.613" stroke="black" stroke-width="1.54" stroke-linecap="round"/>
<path d="M24.6578 48.2609C27.0968 48.2609 29.9458 48.3111 32.3364 48.7457C36.1505 49.4392 39.9924 49.8602 43.7888 50.6196C45.4593 50.9537 46.8872 51.3272 48.598 51.3272C49.8646 51.3272 51.1313 51.3272 52.398 51.3272C53.8596 51.3272 56.1469 51.5034 57.4428 50.8554" stroke="black" stroke-width="1.54" stroke-linecap="round"/>
<path d="M58.1504 26.0897C58.1504 30.1106 58.3862 34.0988 58.3862 38.1188" stroke="black" stroke-width="1.54" stroke-linecap="round"/>
<path d="M59.5656 27.7407C59.5656 29.973 59.8014 32.3291 59.8014 34.476C59.8014 35.6216 60.0373 36.5485 60.0373 37.647" stroke="black" stroke-width="1.54" stroke-linecap="round"/>
<path d="M64.9905 30.3353C64.9905 33.0831 64.7547 35.8862 64.7547 38.5904" stroke="black" stroke-width="1.54" stroke-linecap="round"/>
<path d="M66.4057 30.5711C66.4057 33.0928 66.6415 35.5992 66.6415 38.1188" stroke="black" stroke-width="1.54" stroke-linecap="round"/>
<path d="M23.7142 12.6454C25.3208 12.6454 28.8791 11.94 30.1874 13.2482C31.0867 14.1476 32.1564 15.0503 33.2012 15.8165C34.0249 16.4205 34.9882 16.4949 35.7957 17.1269C36.7711 17.8902 37.6739 18.7645 38.6917 19.4724C39.3721 19.9458 39.7491 20.4666 40.3557 20.9924C41.0837 21.6233 42.1413 21.9063 42.8454 22.5518C44.7738 24.3195 48.147 26.1181 50.7076 26.8497C53.123 27.5399 55.5417 29.6277 58.1504 29.6277" stroke="black" stroke-width="1.54" stroke-linecap="round"/>
<path d="M23.4784 15.24C26.1076 15.24 29.8429 16.0384 31.8384 17.8344C32.5275 18.4545 33.6097 18.6361 34.2757 19.3021C34.9543 19.9807 35.5398 20.6175 36.1888 21.3593C37.2338 22.5535 38.1846 23.6495 39.8579 23.9539C40.391 24.0508 41.3322 24.4746 41.7579 24.8056C42.5039 25.3858 43.6286 25.5001 44.3655 26.0897C45.1645 26.7289 46.5029 26.8172 47.4317 27.2691C48.43 27.7547 49.4359 28.2998 50.4586 28.789C52.0181 29.5349 53.3323 30.5206 54.8484 31.2787C55.2269 31.468 55.6762 31.3913 56.0276 31.5669C56.3219 31.7142 56.2549 32.1286 56.6173 32.209C57.3051 32.3619 57.901 32.458 58.6222 32.458" stroke="black" stroke-width="1.54" stroke-linecap="round"/>
<path d="M35.7433 21.3724C34.5801 22.846 33.2161 24.1354 31.8909 25.4608C31.3287 26.0231 30.4494 26.4331 29.9778 27.0331C29.3913 27.7796 28.7294 28.3031 28.1956 29.1036C27.5889 30.0139 27.2677 31.7852 26.4267 32.458C25.9494 32.8398 26.0212 33.3205 26.3088 32.458" stroke="black" stroke-width="1.54" stroke-linecap="round"/>
<path d="M29.6108 32.458C29.9839 31.4882 31.1203 29.7183 31.9695 29.051C32.3789 28.7294 32.4477 28.3108 32.782 27.9767C33.0371 27.7214 33.5587 27.8754 33.6205 27.5049C33.8941 25.8634 37.3943 25.3274 37.3943 23.4952" stroke="black" stroke-width="1.54" stroke-linecap="round"/>
<path d="M37.3944 23.731C37.3944 27.2876 37.6302 30.8127 37.6302 34.345" stroke="black" stroke-width="1.54" stroke-linecap="round"/>
<path d="M39.2812 24.2028C39.2812 25.6607 39.1608 28.1512 39.753 29.4834C40.5164 31.2013 40.2248 33.3783 40.2248 35.2884" stroke="black" stroke-width="1.54" stroke-linecap="round"/>
<path d="M42.8192 34.5808C43.6563 33.7184 44.0751 32.6552 44.8897 31.8029C45.5076 31.1561 46.3091 30.6437 46.8289 29.9159C47.2369 29.3449 47.9979 28.9408 48.2441 28.4483" stroke="black" stroke-width="1.54" stroke-linecap="round"/>
<path d="M50.1311 28.4483C50.9019 30.0757 51.418 32.2231 52.909 33.2967C53.9045 34.0134 54.394 35.766 55.7918 36.2318" stroke="black" stroke-width="1.54" stroke-linecap="round"/>
<path d="M45.4138 36.2318C45.9842 35.9783 46.7582 34.0615 47.1172 33.4539C47.478 32.8434 47.5559 32.1293 47.8772 31.5669C48.425 30.6083 49.31 29.2605 49.6593 28.2125" stroke="black" stroke-width="1.54" stroke-linecap="round"/>
<path d="M48.4799 30.5711C49.135 30.7166 50.3381 33.1596 50.6027 33.7553C51.0428 34.7456 52.1371 35.4101 52.4897 36.4678" stroke="black" stroke-width="1.54" stroke-linecap="round"/>
<path d="M29.8467 41.8926C29.7369 43.4841 28.9032 45.0302 28.9032 46.6099" stroke="black" stroke-width="1.54" stroke-linecap="round"/>
<path d="M29.6108 41.6567C30.3727 41.9742 31.2863 43.6084 31.6813 44.356C32.017 44.9917 32.2674 46.5671 32.7295 47.0292C32.8789 47.1786 32.9115 46.6372 32.9261 46.4265C32.9919 45.4722 33.2922 44.6321 33.5681 43.7271C33.8472 42.8116 33.8565 41.893 33.8565 40.9491" stroke="black" stroke-width="1.54" stroke-linecap="round"/>
<path d="M35.2715 41.8926C38.4201 41.9776 41.5409 42.8361 44.7062 42.8361" stroke="black" stroke-width="1.54" stroke-linecap="round"/>
<path d="M41.1682 42.8361C41.1682 44.0503 41.1682 45.2646 41.1682 46.4788C41.1682 47.1607 40.6964 47.7333 40.6964 48.4968" stroke="black" stroke-width="1.54" stroke-linecap="round"/>
<path d="M45.6496 42.8361C45.6987 45.0436 45.8855 47.2258 45.8855 49.4402" stroke="black" stroke-width="1.54" stroke-linecap="round"/>
<path d="M45.6496 43.0719C47.6218 43.0719 48.7308 43.07 48.4931 45.0898C48.3107 46.6395 46.4206 47.7891 44.942 47.7891" stroke="black" stroke-width="1.54" stroke-linecap="round"/>
<path d="M50.8387 44.2513C50.8387 45.5481 50.7021 46.9643 50.8387 48.261C50.9361 49.1875 53.0689 49.6762 53.8 49.6762C56.5345 49.6762 55.0842 45.5897 55.0842 44.0153" stroke="black" stroke-width="1.54" stroke-linecap="round"/>
</svg>
