<svg width="85" height="146" viewBox="0 0 85 146" fill="none" xmlns="http://www.w3.org/2000/svg">
<path d="M51.6264 16.567C51.6972 16.5688 51.7379 16.5399 51.8007 16.5098C52.0666 16.3823 52.3887 16.3145 52.6826 16.295C53.2276 16.2588 53.7702 16.31 54.3037 16.4279C54.8366 16.5456 55.3086 16.8474 55.7586 17.1428C56.1223 17.3815 56.6247 17.4774 56.9395 17.775C57.2287 18.0484 57.5719 18.2336 57.8587 18.5054C58.1522 18.7836 58.447 19.082 58.6776 19.4152C58.8663 19.6881 59.226 19.9615 59.5205 20.1097C59.8697 20.2853 60.2273 20.4478 60.5846 20.6062C60.989 20.7855 61.4972 20.9111 61.8389 21.2033C61.9672 21.3131 61.9939 21.4079 62.1642 21.4493C62.383 21.5025 62.5896 21.5869 62.8055 21.6495C63.2959 21.7917 63.7701 21.9197 64.2289 22.1507C64.7211 22.3985 65.2022 22.5941 65.7247 22.7756C66.1093 22.9092 66.4846 22.9732 66.8373 23.187C67.0844 23.3368 67.314 23.5262 67.5622 23.6701C67.6357 23.7127 67.7744 23.743 67.8562 23.7564C68.128 23.8009 68.4015 23.8652 68.6493 23.9913C68.682 24.008 68.8939 24.1782 68.7449 24.1743C68.3406 24.1639 67.9497 24.2394 67.547 24.2606C66.7396 24.3032 65.9265 24.3295 65.1175 24.3027C64.5224 24.2831 63.9146 24.1502 63.328 24.0559C62.7418 23.9616 62.163 23.8706 61.5801 23.7546C60.3144 23.5029 59.1321 22.9826 57.8431 22.8095C57.3182 22.739 56.7792 22.7814 56.2541 22.6851C56.0002 22.6385 55.7451 22.5886 55.4869 22.582C55.0444 22.5705 54.5981 22.5889 54.1764 22.7286C53.9181 22.8141 53.655 23.0055 53.4159 23.1394C53.0439 23.3477 52.7127 23.5661 52.4066 23.8662C51.7353 24.5245 51.35 25.5143 51.2325 26.434C51.1375 27.1775 51.1384 27.926 51.1191 28.6743C51.1024 29.3205 51.058 29.9646 51.0413 30.6101C51.0277 31.1357 51.0164 31.6588 51.07 32.183C51.0934 32.4111 51.1509 32.6352 51.1496 32.8654C51.1492 32.9443 51.1166 33.0777 51.1704 33.1344" stroke="black" stroke-width="2" stroke-linecap="round"/>
<path d="M52.0541 16.1337C52.0443 16.2052 51.9776 16.2106 51.9221 16.2275C51.6331 16.3156 51.3101 16.3881 51.047 16.5412C50.2244 17.0195 49.8379 18.0788 49.4662 18.9025C49.0729 19.7743 48.7458 20.6726 48.4481 21.5823C48.3725 21.8135 48.3409 22.032 48.3069 22.2729C48.259 22.6118 48.1545 22.9486 48.0985 23.2889C48.0182 23.7768 47.9244 24.2661 47.8816 24.7582C47.7317 26.4822 47.7153 28.2068 47.6706 29.9351C47.6493 30.7603 47.576 31.5911 47.5849 32.4153C47.5897 32.8537 47.5837 33.2973 47.5724 33.7357C47.5705 33.8108 47.5435 33.9797 47.6521 33.8766" stroke="black" stroke-width="2" stroke-linecap="round"/>
<path d="M66.9941 23.6847C66.8484 23.6971 66.6864 23.7729 66.5316 23.79C66.3616 23.8089 66.1965 23.803 66.0253 23.7985C65.6352 23.7885 65.2519 23.723 64.8612 23.7129C64.5132 23.7039 64.1703 23.6848 63.8294 23.6369C63.6323 23.6092 63.4457 23.557 63.2491 23.5262C63.0764 23.4991 62.9147 23.5038 62.7515 23.4378C62.4694 23.3235 62.1569 23.2776 61.8681 23.1758C61.4541 23.0299 61.1056 22.7636 60.6915 22.6177C60.2187 22.4512 59.7507 22.2074 59.3023 21.9832C58.628 21.646 57.9214 21.2337 57.3473 20.7416C56.896 20.3548 56.014 18.902 57.2243 18.9333C57.4649 18.9396 57.7802 19.0726 57.9316 19.2633C57.9691 19.3104 58.0971 19.5104 58.0579 19.5103C57.97 19.5101 57.6346 19.4469 57.6044 19.568C57.5626 19.7356 57.7554 19.8854 57.8557 19.9911C58.0951 20.2431 58.3337 20.4976 58.5879 20.7351C58.946 21.0698 59.2769 21.435 59.7194 21.6638C60.2444 21.9353 60.7881 22.0232 61.354 22.1736C62.0578 22.3605 62.7609 22.567 63.4533 22.7909C63.7853 22.8983 64.1146 23.0268 64.4373 23.1589C64.8329 23.3207 65.2106 23.5618 65.6357 23.5941" stroke="black" stroke-width="2" stroke-linecap="round"/>
<path d="M59.3016 20.4589C59.2993 20.549 59.3244 20.5954 59.3795 20.6707C59.6779 21.0793 60.0439 21.3576 60.488 21.5942C60.8437 21.7837 61.2151 21.9465 61.5857 22.1039C61.7086 22.1561 61.8978 22.3022 62.0317 22.279" stroke="black" stroke-width="2" stroke-linecap="round"/>
<path d="M56.8647 19.1184C56.5871 19.1113 56.3096 19.1041 56.0321 19.0969C55.7483 19.0896 55.5179 19.3238 55.6068 19.6151C55.7166 19.9753 55.9956 20.1699 56.2763 20.393C56.6231 20.6687 56.8938 20.9601 57.3432 21.0192" stroke="black" stroke-width="2" stroke-linecap="round"/>
<path d="M57.0355 18.9562C56.9622 19.0118 56.7408 18.9905 56.658 18.9958C56.4742 19.0076 56.2964 19.0361 56.1161 19.0713" stroke="black" stroke-width="2" stroke-linecap="round"/>
<path d="M57.6497 21.0271C57.6211 21.0577 57.6192 21.0843 57.6207 21.0264" stroke="black" stroke-width="2" stroke-linecap="round"/>
<path d="M57.5147 20.8293C57.7033 20.8341 57.838 20.826 58.0248 20.9119C58.235 21.0085 58.4008 21.225 58.6133 21.302" stroke="black" stroke-width="2" stroke-linecap="round"/>
<path d="M56.8451 20.9508C56.8955 20.9572 56.9273 20.9923 56.9732 21.0096C57.3103 21.1372 57.6793 21.1948 58.0275 21.2868C58.5673 21.4295 59.0804 21.5986 59.6002 21.7996" stroke="black" stroke-width="2" stroke-linecap="round"/>
<path d="M51.1662 33.0281C51.1203 34.8057 51.2346 36.5951 51.2686 38.374C51.2829 39.1207 51.3267 39.8703 51.326 40.6167C51.3257 41.0104 51.3192 41.4026 51.3526 41.7957C51.4141 42.5183 51.4251 43.2535 51.4426 43.9772C51.453 44.4079 51.5166 44.8481 51.5815 45.2732C51.6505 45.725 51.6215 46.1837 51.6901 46.6354C51.7546 47.0594 51.7091 47.4372 51.6983 47.856C51.6878 48.2609 51.6774 48.6658 51.6669 49.0707C51.6616 49.274 51.6564 49.4773 51.6511 49.6806C51.6461 49.8734 51.6098 50.0891 51.6581 50.2761" stroke="black" stroke-width="2" stroke-linecap="round"/>
<path d="M47.8068 32.8772C47.8011 33.0982 47.6515 33.2784 47.6365 33.4984C47.6185 33.761 47.5779 34.0179 47.5477 34.2803C47.4481 35.146 47.5324 36.0334 47.5099 36.9019C47.4979 37.3659 47.4859 37.8298 47.4739 38.2937C47.4624 38.7398 47.4509 39.1859 47.4394 39.632C47.4257 40.1591 47.3087 40.6685 47.2834 41.19C47.2565 41.7433 47.0856 42.296 46.9709 42.836C46.7616 43.8211 46.5232 44.9139 46.0837 45.8235C45.9189 46.1646 45.7513 46.4981 45.5776 46.8346C45.3905 47.1971 45.0919 47.5094 44.8574 47.8423C44.5989 48.2092 44.2136 48.4743 43.9637 48.8434C43.3682 49.7229 42.7853 50.5887 42.188 51.4758C41.7895 52.0676 41.3476 52.6224 40.9476 53.2093C40.8755 53.3151 40.7495 53.3658 40.6709 53.4678C40.5231 53.6597 40.3969 53.8721 40.2568 54.0699C39.9804 54.4604 39.7317 54.8604 39.4402 55.2401C38.7254 56.1715 37.897 57.0216 37.2455 58.001C36.9701 58.415 36.6769 58.7951 36.4232 59.2268C36.1674 59.6618 35.8116 60.0455 35.646 60.5287C35.4055 61.231 34.8459 61.8635 34.7755 62.6231C34.7324 63.0886 34.6341 63.5377 34.6219 64.0076" stroke="black" stroke-width="2" stroke-linecap="round"/>
<path d="M51.5825 49.4431C51.5751 49.7281 51.4922 49.9935 51.4539 50.2755C51.3712 50.8829 51.3752 51.4952 51.3594 52.1071C51.3026 54.3027 51.2533 56.469 50.9781 58.6495C50.784 60.1884 50.5699 61.7594 50.5301 63.3003" stroke="black" stroke-width="2" stroke-linecap="round"/>
<path d="M50.811 62.4566C50.8037 62.7363 50.5365 62.8183 50.4637 63.0583C50.1081 64.2304 49.9521 65.4744 49.6543 66.6678C48.9921 69.3218 47.5317 71.4929 46.0468 73.7274C45.3974 74.7046 44.8831 75.7553 44.1049 76.6416C43.4155 77.4267 42.501 77.9423 41.5944 78.4354C40.8609 78.8342 40.1675 79.2896 39.465 79.744C38.8454 80.1449 38.2221 80.4272 37.5494 80.7265C36.9397 80.9977 36.4389 81.466 35.9241 81.8823C35.4123 82.2963 34.9463 82.7445 34.5405 83.2629C34.1731 83.7323 33.937 84.274 33.591 84.7574C32.7777 85.8937 32.0055 86.91 30.8622 87.7644C30.0443 88.3758 29.2154 88.972 28.3984 89.5857C28.1034 89.8073 27.8072 89.9825 27.4657 90.1224C27.132 90.259 26.8048 90.4443 26.4869 90.6131C26.2032 90.7637 25.9002 90.8188 25.6226 90.9488C25.3557 91.0737 25.128 91.2722 24.8314 91.31C24.5686 91.3435 24.316 91.3415 24.0488 91.3346" stroke="black" stroke-width="2" stroke-linecap="round"/>
<path d="M34.6781 63.2716C34.6711 63.5434 34.5686 63.8025 34.5414 64.0816C34.4769 64.7434 34.4911 65.4088 34.4636 66.0725C34.4438 66.5498 34.2973 67.0071 34.2849 67.4842C34.2682 68.1312 34.2178 68.7776 34.1428 69.4182C34.0859 69.9042 33.9326 70.3497 33.9138 70.8444C33.8909 71.4439 33.7978 72.0407 33.7725 72.6415C33.752 73.1311 33.5505 73.6251 33.4296 74.0963C33.2183 74.9199 32.8707 75.7161 32.5095 76.4867C31.0087 79.6892 28.7283 82.4567 26.9017 85.4638C26.2117 86.5997 25.3048 87.5957 24.6397 88.7435C24.2889 89.3489 24.1991 89.9793 24.077 90.6508C24.0543 90.7761 23.9504 91.6145 24.0427 91.5713" stroke="black" stroke-width="2" stroke-linecap="round"/>
<path d="M34.937 62.4253C34.9103 62.6367 34.7048 62.8543 34.5875 63.0113C34.2626 63.446 34.078 63.8806 33.8911 64.3886C33.4222 65.6625 32.9217 66.8491 32.2855 68.0433C31.1834 70.112 29.7985 71.9487 28.367 73.7917C28.0958 74.1409 27.8929 74.5293 27.6176 74.8754C27.2071 75.3917 26.7715 75.883 26.3877 76.4206C25.1694 78.1275 24.4414 80.0596 24.2652 82.1496C24.1259 83.8012 24.1051 85.4921 24.0622 87.149C24.0549 87.4337 24.0862 87.7417 24.145 88.0199C24.2656 88.5902 24.3196 89.1719 24.4693 89.7343" stroke="black" stroke-width="2" stroke-linecap="round"/>
<path d="M32.766 67.5818C32.4562 68.1984 32.4602 68.9506 32.2844 69.6123C31.9226 70.9748 31.6019 72.344 31.21 73.6993C30.5818 75.8719 29.6467 77.9297 28.5175 79.8875C27.1504 82.2576 26.0017 84.8059 24.2574 86.9328" stroke="black" stroke-width="2" stroke-linecap="round"/>
<path d="M43.1374 77.6724C43.1279 78.0415 43.1029 78.3895 42.8367 78.6555C42.427 79.0651 42.3838 79.6195 42.275 80.1549C42.0629 81.1985 41.8182 82.2349 41.5402 83.2615C41.4713 83.516 41.4423 83.8225 41.3087 84.0538C40.6512 85.1925 40.5056 86.6418 40.2033 87.894C40.0437 88.5547 39.9772 89.1857 39.9597 89.8634C39.9531 90.117 39.9466 90.3707 39.94 90.6244C39.9375 90.722 39.9867 91.2637 39.8762 90.9653" stroke="black" stroke-width="2" stroke-linecap="round"/>
<path d="M40.2029 86.845C40.1668 88.2386 39.8896 89.608 40.0398 91.0245C40.1817 92.3634 40.0838 93.7316 40.2657 95.0613C40.5371 97.044 40.5332 99.0941 40.5932 101.088C40.6244 102.127 40.6975 103.128 40.9116 104.149C41.0198 104.665 41.0795 105.188 41.1895 105.703C41.212 105.809 41.2385 106.308 41.3556 106.142" stroke="black" stroke-width="2" stroke-linecap="round"/>
<path d="M40.5809 87.13C40.4315 87.4272 40.3486 87.7463 40.3362 88.0779C40.3245 88.3894 39.7378 90.6314 39.8847 90.6352" stroke="black" stroke-width="2" stroke-linecap="round"/>
<path d="M40.7179 86.0876C40.7021 86.6971 40.5718 87.289 40.5609 87.9002C40.5469 88.6888 40.6025 89.4712 40.5427 90.2607C40.5137 90.6437 40.4221 91.1418 40.4135 91.4746" stroke="black" stroke-width="2" stroke-linecap="round"/>
<path d="M42.1314 105.652C42.1244 105.923 41.9841 106.017 42.2608 106.197C42.5422 106.379 42.8485 106.396 43.1666 106.475C44.1878 106.727 45.2553 106.783 46.2943 106.953C46.8464 107.044 47.4286 107.031 47.9604 107.211C48.2918 107.324 48.6044 107.39 48.9489 107.442C49.4073 107.512 49.823 107.553 50.2989 107.565" stroke="black" stroke-width="2" stroke-linecap="round"/>
<path d="M41.6439 106.344C41.65 106.406 41.7376 106.462 41.7697 106.523C41.9517 106.872 42.1834 107.206 42.4355 107.509C42.8898 108.054 43.4631 108.453 44.0815 108.797C44.3328 108.937 44.6816 109.297 44.9746 109.189" stroke="black" stroke-width="2" stroke-linecap="round"/>
<path d="M41.5342 106.048C41.6259 106.06 41.681 106.14 41.7658 106.171C41.9285 106.23 42.1382 106.188 42.2975 106.162C42.8886 106.066 43.4658 105.897 44.0634 105.839C44.2498 105.821 44.9792 105.908 45.0656 105.669" stroke="black" stroke-width="2" stroke-linecap="round"/>
<path d="M42.7705 105.903C42.7362 106.153 41.9227 105.999 41.7703 105.995C41.4569 105.987 42.0655 107.154 42.4575 106.658" stroke="black" stroke-width="2" stroke-linecap="round"/>
<path d="M35.9415 81.7216C35.9756 82.2463 36.0901 82.7872 35.7527 83.2232C35.5078 83.5396 35.4273 84.0055 35.3477 84.3833C35.1784 85.1866 35.1067 86.0109 34.9879 86.8228C34.8299 87.9029 34.8683 88.9299 34.8401 90.0177C34.8135 91.0493 34.7673 92.0701 34.7669 93.1038C34.7664 94.4075 34.8979 95.7157 34.8288 97.0182C34.7379 98.7288 34.6945 100.446 34.6502 102.159C34.6329 102.83 35.0672 102.856 35.6993 102.949C36.7422 103.102 37.7447 103.528 38.7748 103.684C38.9981 103.718 39.3138 103.435 39.5167 103.364C39.6535 103.316 40.2015 103.321 40.0835 103.134" stroke="black" stroke-width="2" stroke-linecap="round"/>
<path d="M35.1808 102.068C35.2778 102.083 35.3322 102.221 35.4403 102.248C35.7329 102.321 36.1722 102.068 36.4859 102.037C37.2423 101.962 37.9953 101.769 38.7459 101.645C38.9144 101.618 39.8186 101.622 39.8913 101.486" stroke="black" stroke-width="2" stroke-linecap="round"/>
<path d="M43.0683 76.2126C43.3657 76.5257 42.921 76.9268 42.7493 77.2022" stroke="black" stroke-width="2" stroke-linecap="round"/>
<path d="M27.2783 76.274C27.2755 76.3816 27.2979 76.5226 27.2692 76.6259C27.2025 76.8661 26.982 77.1003 26.8794 77.3266C26.6736 77.7806 26.557 78.2694 26.4642 78.7572C26.3264 79.4807 26.3502 80.2281 26.3942 80.9596C26.443 81.7714 26.4588 82.5947 26.743 83.362" stroke="black" stroke-width="0.5" stroke-linecap="round"/>
<path d="M28.5389 75.1915C28.5174 75.3617 28.4003 75.4946 28.325 75.6424C27.8847 76.5071 27.6772 77.5157 27.5508 78.4723C27.4077 79.5561 27.4888 80.6232 27.7254 81.6854" stroke="black" stroke-width="0.5" stroke-linecap="round"/>
<path d="M29.3529 73.2169C28.9057 74.1012 28.9578 75.2691 28.9228 76.2318C28.8964 76.9595 28.8431 77.7129 28.9834 78.4311" stroke="black" stroke-width="0.5" stroke-linecap="round"/>
<path d="M30.4299 72.4231C30.4151 72.5211 30.2642 72.6082 30.2326 72.7375C29.9646 73.8367 29.8511 75.0147 30.1584 76.1137" stroke="black" stroke-width="0.5" stroke-linecap="round"/>
<path d="M14.7813 116.333C14.9286 116.321 14.9903 116.168 15.0057 116.036C15.1094 115.15 15.3873 114.289 15.5764 113.418C15.8963 111.944 16.5943 110.661 17.285 109.332C19.0133 106.005 21.0072 102.609 24.1006 100.36C25.1543 99.5943 26.2999 98.977 27.4636 98.3986C28.8374 97.7158 30.1843 96.9919 31.6274 96.4616C34.1548 95.533 37.0575 94.448 39.7872 94.9714C41.6957 95.3374 43.6498 95.7489 45.5192 96.2809C47.3459 96.8007 49.5415 97.5317 51.0118 98.7824C52.0389 99.656 52.4775 101.295 53.0055 102.494C53.4908 103.595 53.9624 104.731 54.5397 105.788C55.2055 107.008 56.5827 106.857 57.5747 107.658C58.0246 108.021 58.3528 108.539 58.7515 108.956C59.506 109.744 60.3563 110.439 61.0466 111.289C62.2646 112.788 63.0795 114.692 64.0812 116.34C65.267 118.29 66.5239 120.266 67.4754 122.345C68.3988 124.362 68.272 126.764 68.5564 128.936C68.616 129.391 68.6803 129.837 68.6684 130.296C68.664 130.468 68.6382 130.61 68.7302 130.756" stroke="black" stroke-width="2" stroke-linecap="round"/>
<path d="M14.808 115.303C14.7759 115.516 14.5359 115.817 14.4701 116.035C13.9359 117.806 13.638 119.658 13.2827 121.471C13.0298 122.762 13.2875 124.145 13.2247 125.457C13.1893 126.195 13.098 126.939 13.3852 127.633" stroke="black" stroke-width="2" stroke-linecap="round"/>
<path d="M34.7192 116.701C34.8157 116.716 34.9255 116.91 34.9323 117.001C34.9443 117.164 34.8894 117.343 34.8703 117.499C34.7744 118.285 34.8168 119.04 35.0151 119.809C35.2549 120.738 35.7536 121.644 36.4136 122.339" stroke="#FF0000" stroke-width="2" stroke-linecap="round"/>
<path d="M38.2309 117.528C38.2411 117.666 38.3233 117.773 38.3685 117.9C38.5592 118.434 38.3886 119.04 38.5906 119.59C38.9694 120.623 39.5968 121.486 40.2573 122.349C41.1026 123.452 42.6986 124.117 44.0152 124.409C44.9031 124.605 45.6289 124.287 46.4549 123.997C46.9796 123.814 47.8211 123.766 48.2691 123.419C48.7228 123.067 49.292 121.67 48.8074 121.261" stroke="#FF0000" stroke-width="2" stroke-linecap="round"/>
<path d="M41.6545 116.071C42.0281 116.508 41.6087 117.205 41.7958 117.723C41.9147 118.051 42.4654 118.87 42.4744 118.521" stroke="#FF0000" stroke-width="2" stroke-linecap="round"/>
<path d="M47.5543 115.635C47.5332 116.452 47.8664 117.249 48.5722 117.706C48.8814 117.906 49.419 118.161 49.7335 117.862C49.9824 117.626 49.4985 117.085 49.3628 116.859" stroke="#FF0000" stroke-width="2" stroke-linecap="round"/>
<path d="M48.2389 97.6925C48.2537 97.8669 48.3864 97.9142 48.371 98.1171C48.2878 99.213 47.9951 100.242 47.631 101.275C47.4513 101.785 46.8477 103.641 46.2239 103.664C45.3683 103.695 44.4455 103.139 43.6905 102.801" stroke="black" stroke-linecap="round"/>
<path d="M32.9751 102.809C32.8366 102.907 32.6813 102.94 32.5196 102.986C31.1625 103.37 29.8091 103.793 28.4804 104.266C26.8757 104.836 25.4231 105.662 24.279 106.952C23.4362 107.902 22.5799 108.893 22.08 110.067C21.8663 110.569 21.6911 111.592 21.3183 111.946" stroke="black" stroke-linecap="round"/>
<path d="M27.9745 110.041C25.6296 111.519 23.58 113.631 21.5415 115.486C20.0487 116.844 18.3543 118.245 17.1129 119.86C15.8097 121.555 14.7349 123.768 14.1639 125.824" stroke="black" stroke-linecap="round"/>
</svg>
