<svg width="103" height="78" viewBox="0 0 103 78" fill="none" xmlns="http://www.w3.org/2000/svg">
<path d="M59.3541 6.30064C60.2873 6.30064 61.098 7.40518 61.517 8.13836C61.6942 8.4485 61.9422 9.00725 62.2167 9.22685C62.5956 9.52997 62.4878 10.4616 62.8528 10.7536C63.0275 10.8933 63.0437 12.0279 63.0437 12.2803C63.0437 12.9002 63.1379 13.4675 63.1709 14.0615C63.1853 14.3209 63.4119 14.5959 63.4253 14.8248C63.4414 15.0969 63.3539 15.4034 63.5243 15.6164C63.6853 15.8177 63.6361 16.124 63.8353 16.3233C64.019 16.507 63.9343 17.3033 63.9343 16.4788" stroke="#1E1E1E" stroke-width="2" stroke-linecap="round" stroke-linejoin="round"/>
<path d="M64.0615 17.2421C64.2311 17.4117 64.4008 17.5814 64.5704 17.751" stroke="#1E1E1E" stroke-width="2" stroke-linecap="round" stroke-linejoin="round"/>
<path d="M65.9699 19.9138C66.319 19.9138 67.4876 21.0704 67.6238 21.3769C67.7613 21.6861 68.282 21.9313 68.3801 22.2746C68.4919 22.6657 68.8285 22.9741 68.995 23.3489C69.3046 24.0455 69.6595 25.1815 69.6595 25.9571C69.6595 26.8867 69.9897 27.8188 70.0411 28.6925C70.1461 30.4773 69.7867 32.1527 69.7867 34.036C69.7867 35.1334 70.0055 35.8515 70.3027 36.8915C70.4221 37.3094 70.8112 37.7173 70.9388 38.1638C71.0998 38.7272 71.2075 38.8282 71.3134 38.8706" stroke="#1E1E1E" stroke-width="2" stroke-linecap="round" stroke-linejoin="round"/>
<path d="M62.9164 25.5118C62.9535 25.5118 62.7892 26.9629 62.7892 27.2294C62.7892 27.999 62.9164 28.7865 62.9164 29.5195C62.9164 30.2468 63.0437 30.8348 63.0437 31.5551C63.0437 32.2234 63.4253 32.9281 63.4253 33.5907C63.4253 34.2559 63.807 34.8733 63.807 35.5627C63.807 36.0025 63.901 37.1751 64.1604 37.4994C64.2229 37.5775 64.3159 38.3199 64.3159 38.4253C64.3159 38.8084 64.4432 39.1201 64.4432 39.5068C64.4432 39.8947 64.5156 41.1783 64.5704 41.2879" stroke="#1E1E1E" stroke-width="2" stroke-linecap="round" stroke-linejoin="round"/>
<path d="M60.8808 46.377C60.449 46.377 60.2447 47.6683 60.2447 47.9673C60.2447 48.6224 60.4991 49.2291 60.4991 49.8757C60.4991 50.3865 60.6959 51.2408 60.9091 51.7205C61.1724 52.3128 61.1806 52.9858 61.6159 53.5299C61.9053 53.8917 62.1633 54.6505 62.2874 55.0849C62.3819 55.4157 62.7121 56.3407 62.9801 56.5551C63.2798 56.7949 63.5814 57.5817 63.7788 57.9546C63.9128 58.2078 64.1986 58.3578 64.3442 58.5907C64.4953 58.8325 64.6952 58.9736 64.6976 58.9724" stroke="#1E1E1E" stroke-width="2" stroke-linecap="round" stroke-linejoin="round"/>
<path d="M68.26 60.7535C68.601 60.7535 69.4836 62.1124 69.6312 62.4075C69.9477 63.0406 70.6998 63.7716 71.1579 64.3441C71.9764 65.3673 73.0166 66.4578 73.7024 67.6238C74.0459 68.2076 74.4369 69.0472 74.8475 69.5604C75.0219 69.7785 75.2243 70.5226 75.2574 70.8044C75.2905 71.0861 75.5932 71.5486 75.738 71.8222C76.0424 72.3971 76.3428 72.8609 76.7559 73.3772C76.9643 73.6378 77.1844 73.9471 77.4485 74.2113C77.488 74.2507 77.7471 74.6195 77.7454 74.6212C77.6464 74.7202 76.8631 74.5039 77.8019 74.6212" stroke="#1E1E1E" stroke-width="2" stroke-linecap="round" stroke-linejoin="round"/>
<path d="M69.9139 51.7205C70.0086 51.7205 70.7413 52.562 70.861 52.6817C71.2708 53.0915 71.6005 53.6379 71.9495 54.0742C72.2905 54.5004 72.712 54.8007 72.9956 55.2828C73.3476 55.8812 73.8026 56.5188 74.2679 57.0357C74.9599 57.8046 76.1637 58.2604 76.7841 59.036C77.4401 59.856 78.4322 60.544 78.9187 61.5169C79.377 62.4335 80.4629 63.2919 80.7352 64.2452C80.7793 64.3995 81.0247 64.7977 81.1381 64.9237C81.3231 65.1292 81.3308 65.4652 81.4632 65.7154C81.6946 66.1524 81.8144 66.9142 82.0994 67.2704C82.3666 67.6044 82.1456 68.656 82.4457 68.896C82.7594 69.147 82.2016 70.1852 82.1347 70.4864C81.9418 71.3547 81.4915 72.8513 81.4915 73.349" stroke="#1E1E1E" stroke-width="2" stroke-linecap="round" stroke-linejoin="round"/>
<path d="M2.35666 74.2396C2.35666 74.5488 3.0566 73.5306 3.12002 73.4197C3.36652 72.9883 3.5213 72.5415 3.72788 72.0767C3.90427 71.6798 3.88338 70.9196 3.88338 70.4793C3.88338 70.0016 3.98177 69.415 4.0106 68.8961C4.06927 67.8401 4.26506 66.8041 4.26506 65.7154C4.26506 64.7317 5.16253 63.7511 5.41716 62.8599C5.47081 62.6721 5.62354 62.405 5.72816 62.2167C5.86346 61.9731 5.71833 61.7041 5.89073 61.4886C6.17259 61.1363 5.73272 60.3924 5.65748 60.0538C5.54874 59.5645 5.31189 59.1131 5.28287 58.5907C5.2554 58.0962 5.02841 57.565 5.02841 57.1276C5.02841 56.1088 4.90119 55.1327 4.90119 54.0742C4.90119 53.0292 5.18832 51.9539 4.87292 50.9289C4.54219 49.854 4.77396 48.4214 4.77396 47.2958C4.77396 46.7256 4.90119 46.2668 4.90119 45.6772C4.90119 45.1662 5.07917 44.2965 4.87292 43.8324C4.61067 43.2424 4.90119 42.6004 4.90119 41.9877C4.90119 41.4092 5.12261 40.8646 5.15564 40.2701C5.18458 39.7492 5.38637 38.8903 5.60093 38.4182C5.83935 37.8937 5.59113 37.1439 5.67161 36.5805C5.74136 36.0923 5.69219 35.3733 5.89073 34.9266C6.11438 34.4234 5.71016 33.6994 5.98261 33.209C6.3269 32.5893 5.99262 31.5632 6.20172 30.8836C6.37526 30.3196 6.30068 29.6699 6.30068 29.0742C6.30068 27.8445 6.93793 26.5907 7.41744 25.5118C7.84404 24.552 8.5256 23.4141 9.2905 22.6492C9.97714 21.9626 10.3482 20.7857 11.206 20.2955C12.1772 19.7406 11.3928 18.4718 11.6513 17.5672C11.7756 17.1321 11.8702 16.5806 11.8986 16.0971C11.9134 15.8469 12.1376 14.7354 12.3439 14.5704C12.4794 14.462 12.7892 13.2625 12.7892 13.0436C12.7892 12.571 12.933 11.9836 13.1426 11.5876C13.3988 11.1038 13.6999 10.6453 13.9908 10.1881C14.3797 9.57694 14.3271 8.94722 14.5987 8.33626C14.9925 7.45008 15.7128 6.82512 16.5424 6.36425C16.94 6.14339 17.3861 5.81207 17.7228 5.50901C18.1065 5.16365 18.6943 4.99436 19.0233 4.58308C19.5958 3.86753 21.0323 3.8245 21.8223 3.47338C22.8065 3.03597 23.7805 2.92637 24.8757 2.86552C25.1057 2.85275 25.3123 2.62281 25.5119 2.61107C25.7854 2.59498 26.0648 2.61107 26.3388 2.61107C26.8646 2.61107 27.4188 2.38664 27.9292 2.35662C29.3087 2.27547 30.6937 1.59326 32.1559 1.59326C32.8038 1.59326 33.4517 1.59326 34.0997 1.59326C34.9207 1.59326 35.721 1.33881 36.517 1.33881C37.2094 1.33881 37.8905 1.59326 38.6162 1.59326C39.1887 1.59326 39.7612 1.59326 40.3338 1.59326C41.3815 1.59326 42.2855 1.91727 43.3236 1.97494C45.4761 2.09453 47.5944 2.99275 49.7485 2.99275C51.0867 2.99275 52.3779 3.11998 53.6925 3.11998C54.7543 3.11998 55.7845 2.61107 56.8732 2.61107C57.5767 2.61107 58.2535 2.35662 58.9724 2.35662C59.5025 2.35662 60.0326 2.35662 60.5628 2.35662C61.0787 2.35662 61.57 2.42686 62.0259 2.48384C62.2315 2.50954 62.378 2.7383 62.5984 2.7383C62.9654 2.7383 63.3433 2.68768 63.6798 2.83725C64.4665 3.18689 65.0559 3.82025 65.8427 4.23674C66.5495 4.61094 67.3292 5.0589 67.9066 5.63623C68.4506 6.18032 68.6977 7.15899 69.0516 7.82736C69.4545 8.58844 70.1964 9.35676 70.4299 10.174C70.5462 10.5813 70.9062 10.956 70.9317 11.3897C70.9459 11.6312 71.0763 12.6504 71.2498 12.7892C71.9369 13.3389 71.7353 14.6683 72.1404 15.3973C72.3249 15.7295 72.4379 16.5114 72.4584 16.8604C72.4694 17.0461 72.5254 18.1609 72.6493 18.2599C72.975 18.5205 72.8391 19.1801 72.9956 19.5322C73.2322 20.0646 73.3113 20.6291 73.5752 21.1861C74.0862 22.2649 73.8579 23.108 73.8579 24.2396C73.8579 24.7773 74.2396 25.2976 74.2396 25.8299C74.2396 26.3812 74.2396 26.9325 74.2396 27.4838C74.2396 27.9898 74.4941 28.4833 74.4941 28.9469C74.4941 29.4802 74.7485 29.9282 74.7485 30.4101C74.7485 31.3114 75.0398 32.2168 75.6391 32.891C76.2654 33.5956 76.7581 34.4487 77.3213 35.1528C77.9036 35.8806 77.9371 36.9136 78.5936 37.5701C79.0468 38.0233 79.8866 39.2631 79.9648 39.8884C80.0178 40.3123 80.579 40.8414 80.7918 41.2243C81.0052 41.6085 81.3562 42.0412 81.6187 42.3693C82.2078 43.1057 82.5127 43.9354 82.891 44.7866C83.0592 45.165 83.2499 45.7355 83.2727 46.1225C83.295 46.5018 83.3887 47.2536 83.6261 47.5503C83.8276 47.8022 83.7816 48.6538 83.7816 48.9851C83.7816 49.5152 83.7816 50.0453 83.7816 50.5754C83.7816 51.5694 83.6808 52.5487 84.2905 53.3108C84.5343 53.6155 84.8256 53.9518 85.0821 54.2367C85.3501 54.5345 85.2377 55.3281 85.4991 55.5373C85.7714 55.7551 85.6711 56.7242 85.69 57.064C85.7185 57.5778 85.8172 58.1069 85.8172 58.6543C85.8172 59.7213 86.0717 60.652 86.0717 61.7078C86.0717 62.2389 86.1989 62.6349 86.1989 63.1709C86.1989 63.621 86.0447 64.4143 86.2272 64.8248C86.6196 65.7077 86.4642 66.7259 86.8633 67.6238C87.2732 68.5461 87.8926 69.234 88.1144 70.2319C88.2333 70.7673 88.3617 71.1117 88.3617 71.695C88.3617 72.0518 88.2568 72.9851 88.5526 73.2218C88.767 73.3933 88.7703 74.1459 88.9696 74.3951C89.0192 74.4571 89.2382 74.8748 89.2382 74.9393C89.2382 75.1588 88.0655 73.9555 87.9801 73.8579" stroke="#1E1E1E" stroke-width="2" stroke-linecap="round" stroke-linejoin="round"/>
<path d="M18.0088 41.1552C17.9134 41.1552 18.6195 41.2637 18.8236 41.3544C19.1348 41.4927 19.3657 41.7697 19.6022 42.0062C19.9883 42.3923 20.5612 42.9038 21.0236 43.2737C21.6003 43.7351 21.5483 44.5204 21.956 45.03C22.3595 45.5343 22.8699 46.6396 23.0515 47.2752C23.4934 48.8219 24.5801 49.888 25.3058 51.2587C25.8937 52.3692 26.7394 53.3985 27.6596 54.3187C29.5489 56.2079 32.3268 57.94 35.0381 57.94C35.9011 57.94 36.6858 57.7821 37.4824 57.605C38.1737 57.4514 39.193 57.256 39.7186 56.8355C40.2643 56.3989 41.3431 56.6382 41.8009 56.066C42.1303 55.6542 42.6043 55.3365 43.1045 55.1697" stroke="#1E1E1E" stroke-width="0.5" stroke-linecap="round" stroke-linejoin="round"/>
<path d="M18.1717 41.4811C18.1717 41.7694 19.6923 41.5485 19.9643 41.8885C20.2419 42.2355 20.8702 42.6224 21.2318 42.9839C21.532 43.2842 22.2871 44.1111 22.3996 44.5049C22.5489 45.0273 23.3211 45.521 23.3864 46.0439C23.444 46.5041 24.0783 47.0718 24.3642 47.4291C24.7246 47.8796 25.0354 48.3495 25.3782 48.778C26.1559 49.7502 27.0511 50.6378 28.0308 51.4216C29.8734 52.8957 32.1478 54.5417 34.3771 55.1787C35.7661 55.5756 36.91 55.9844 38.4602 55.9844C39.2365 55.9844 39.9073 55.6585 40.6601 55.6585C42.2974 55.6585 41.2389 55.6768 41.9638 55.4956" stroke="#1E1E1E" stroke-linecap="round" stroke-linejoin="round"/>
<path d="M36.4232 55.6586C36.9392 55.6586 37.4553 55.6586 37.9713 55.6586C38.7475 55.6586 38.5944 55.8898 38.8676 55.8215" stroke="#1E1E1E" stroke-linecap="round" stroke-linejoin="round"/>
<path d="M23.8753 41.97C24.0331 41.97 23.5042 41.3838 23.3865 41.2366C23.1826 40.9818 23.1663 40.3272 22.9791 40.1774C22.5583 39.8408 22.4087 38.1831 22.4087 37.6515C22.4087 36.724 22.6822 35.8542 22.7346 34.9627C22.7718 34.3315 23.6789 33.1075 23.7124 33.0072" stroke="#1E1E1E" stroke-linecap="round" stroke-linejoin="round"/>
<path d="M25.5049 43.9255C25.5049 43.5676 25.3779 41.9742 25.1428 41.6803C24.6422 41.0546 24.8531 39.7457 24.8531 38.9553C24.8531 38.0277 25.2891 37.1652 25.342 36.2664C25.3575 36.0016 25.4292 35.35 25.514 35.0533C25.6314 34.6422 25.5775 34.1881 25.6769 33.7406C25.8413 33.0007 26.4299 32.2253 26.8991 31.6221C27.4425 30.9235 27.8497 30.0831 28.4744 29.4584C29.4545 28.4782 30.5554 26.4354 31.2085 26" stroke="#1E1E1E" stroke-linecap="round" stroke-linejoin="round"/>
<path d="M27.6234 46.8588C27.6764 46.9118 27.9202 45.58 28.0761 45.2292C28.346 44.6218 28.4776 44.0463 28.8004 43.4366C29.3983 42.3072 30.0628 40.9691 30.4028 39.7791C31.1089 37.3077 33.6345 35.2347 35.4093 33.4599C36.2677 32.6015 37.3126 31.8546 38.2158 31.0517C39.2593 30.1242 40.9592 30.0346 42.2083 29.3406C42.8076 29.0077 43.5662 29.0208 44.1638 28.6888C44.7175 28.3812 45.4721 28.2814 46.1193 28.2814C46.7456 28.2814 47.3991 27.9555 48.0748 27.9555C48.7923 27.9555 50.2024 28.2814 50.2024 28.2814C50.2024 28.2814 48.9342 28.3907 48.5185 28.8065C48.0858 29.2392 47.3657 29.3551 46.8889 29.7843C46.3862 30.2366 45.742 30.4422 45.2593 30.925C44.9724 31.2118 44.0651 31.7434 43.6659 31.8575C43.1871 31.9943 42.464 32.3413 42.1268 32.7628C41.7718 33.2065 40.6989 33.2848 40.3343 33.7405C39.4984 34.7854 37.9705 35.1356 37.0389 36.0672C36.6161 36.4901 35.9086 36.6456 35.4093 37.045C34.9782 37.3899 34.4347 37.6755 34.0151 38.0952C33.6324 38.4779 33.0694 39.167 32.6752 39.3989C32.058 39.7619 31.824 40.565 31.29 40.9922C30.9774 41.2423 30.2788 42.0172 30.0678 42.3864C29.8384 42.7879 29.3338 43.6654 29.0086 43.9255C28.6812 44.1874 28.235 45.0849 28.1214 45.4827C28.0372 45.7773 27.7864 46.1709 27.7864 46.4514C27.7864 46.8653 27.4336 47.257 27.7864 47.0217" stroke="#1E1E1E" stroke-linecap="round" stroke-linejoin="round"/>
<path d="M30.3937 44.7403C30.3937 44.8541 30.9251 44.3204 31.0456 44.1699C31.2128 43.9609 31.8896 43.4715 32.1863 43.4366C32.6368 43.3836 33.3585 42.6607 33.7344 42.3683C34.1631 42.0348 34.7005 41.4727 35.2101 41.3272C36.0406 41.0899 36.9194 40.1774 37.8084 40.1774C38.618 40.1774 40.0161 39.1407 40.8593 39.8153C41.0501 39.9679 42.107 40.0144 42.3712 40.0144C42.8977 40.0144 43.4396 40.4433 43.9194 40.5033C44.0029 40.5138 44.4293 40.7358 44.372 40.793C44.205 40.96 43.9111 40.6663 43.6749 40.6663C43.0821 40.6663 42.6525 40.8292 42.0453 40.8292C40.9042 40.8292 39.9344 40.6663 38.7861 40.6663C38.288 40.6663 37.7971 40.8292 37.238 40.8292C36.6435 40.8292 35.4332 41.4165 36.4232 40.9922" stroke="#1E1E1E" stroke-linecap="round" stroke-linejoin="round"/>
<path d="M34.1418 53.2142C34.1418 52.0613 33.9789 49.9357 33.9789 48.4069C33.9789 48.1523 34.1214 47.2366 33.9426 47.0579C33.8816 46.9969 34.0683 47.7125 34.2233 47.8365C34.8542 48.3412 35.0064 48.9038 35.364 49.5476C35.7024 50.1567 35.9695 50.9359 36.387 51.4578C36.5835 51.7035 36.553 52.191 36.7401 52.4718C36.9646 52.8085 36.621 51.6284 36.7854 51.2586C37.1412 50.4581 36.4233 49.467 36.4233 48.6513C36.4233 48.0925 36.3417 46.6143 36.5862 46.3699" stroke="#1E1E1E" stroke-linecap="round" stroke-linejoin="round"/>
<path d="M37.5639 46.8587C38.0577 46.8587 38.5485 46.3699 39.112 46.3699C39.592 46.3699 40.5236 46.4381 40.6602 46.3699" stroke="#1E1E1E" stroke-linecap="round" stroke-linejoin="round"/>
<path d="M38.8676 47.0217C39.4542 47.0217 39.1935 49.4737 39.1935 50.0365C39.1935 50.4666 39.6589 50.8593 39.6824 51.2587C39.7189 51.8794 39.7128 52.3552 39.8454 52.3994" stroke="#1E1E1E" stroke-linecap="round" stroke-linejoin="round"/>
<path d="M41.9638 46.6957C41.9638 48.3337 42.4527 50.1296 42.4527 51.7475" stroke="#1E1E1E" stroke-linecap="round" stroke-linejoin="round"/>
<path d="M42.1268 46.3698C42.1268 45.4447 44.8276 46.1699 45.1868 46.569C46.215 47.7114 42.9416 48.4864 42.9416 48.3254" stroke="#1E1E1E" stroke-linecap="round" stroke-linejoin="round"/>
<path d="M45.7119 45.881C45.7119 46.2828 45.8749 46.8567 45.8749 47.3477C45.8749 47.6914 45.8676 48.683 46.074 48.941C46.6671 49.6824 46.4205 50.9907 47.5859 51.2496C49.2205 51.6129 48.8081 50.0039 48.8081 48.8958C48.8081 48.3985 48.4822 47.8144 48.4822 47.2662C48.4822 46.6484 48.4186 46.0797 48.1563 45.5551" stroke="#1E1E1E" stroke-linecap="round" stroke-linejoin="round"/>
<path d="M24.6901 49.9549C25.2928 49.9549 26.0972 51.1267 26.5189 51.5483C26.8539 51.8834 27.2602 52.1086 27.5872 52.4355C27.9371 52.7854 28.1629 53.2546 28.5197 53.5401C30.1114 54.8135 32.1302 55.353 33.6891 56.6001C34.2985 57.0876 35.968 57.1252 36.7491 57.1252C36.8816 57.1252 37.3828 57.2202 37.3828 57.2066C37.3828 57.0204 36.8864 56.8069 36.7491 56.7992C36.2614 56.7721 35.6983 56.5748 35.201 56.4643C34.5714 56.3244 34.0802 56.1474 33.4084 56.1474C32.8121 56.1474 32.3636 55.8215 31.7789 55.8215C31.0514 55.8215 31.3433 55.6183 31.6974 56.2379C31.8627 56.5273 32.2224 56.765 32.5122 56.926C33.2631 57.3432 32.5176 56.4842 32.8381 57.1252" stroke="#1E1E1E" stroke-width="3" stroke-linecap="round" stroke-linejoin="round"/>
<path d="M30.5566 40.3404C30.63 40.3404 31.2573 39.2399 31.4076 39.0729C31.7542 38.6878 32.2188 38.0328 32.4759 37.5701C33.0122 36.6048 33.8932 35.7725 34.6668 34.9989C36.1728 33.4929 37.9758 31.9407 39.8815 31.1784C40.3761 30.9806 41.1962 30.688 41.6016 30.3636C42.071 29.9882 42.9269 29.9227 43.3942 29.5488C43.708 29.2978 44.4668 28.9332 44.897 28.9332C45.1852 28.9332 46.3678 28.8386 46.5629 28.6435C46.9614 28.245 45.4568 28.8674 44.897 28.9332C44.423 28.989 43.7388 29.7882 43.2675 30.0377C42.2492 30.5768 41.3471 31.543 40.2527 32.0294C39.9397 32.1685 38.7415 32.8389 38.5416 33.0887C38.2418 33.4635 37.5335 33.6894 37.1565 34.0664C36.3352 34.8877 35.4589 35.9571 34.5491 36.6647C34.1398 36.9831 33.4951 37.2376 33.164 37.6515C32.5069 38.4729 33.9114 37.3961 34.2232 37.1536C34.875 36.6467 35.2246 35.8678 35.8528 35.3792C36.6099 34.7903 37.3788 34.1882 38.1252 33.5775C39.2239 32.6786 40.4703 31.9869 41.5564 31.1422C42.0766 30.7376 42.7965 30.4623 43.3489 30.1554C43.703 29.9587 44.6874 29.7657 44.897 29.5036C45.0556 29.3053 45.8325 29.1274 45.6213 29.2682C45.3699 29.4358 45.1165 29.5338 44.8246 29.6665C44.4381 29.8422 44.0807 30.0926 43.6839 30.2369C43.1602 30.4273 42.7089 31.0943 42.2082 31.2056C41.1991 31.4298 40.0412 32.605 39.1935 33.1701" stroke="#1E1E1E" stroke-width="3" stroke-linecap="round" stroke-linejoin="round"/>
<path d="M1.33884 76.148C1.33884 76.5069 4.35611 75.5976 4.71034 75.5189C6.06213 75.2185 7.55387 75.3849 8.91588 75.1372C9.54023 75.0237 10.3018 75.1482 10.9091 74.9747C11.4748 74.813 12.8643 74.5165 13.3971 74.904C13.6873 75.115 14.2207 74.8686 14.5421 74.7767C14.9378 74.6637 15.7185 74.6516 16.1254 74.7767C17.1742 75.0995 18.6772 74.7597 19.6594 74.3668" stroke="#1E1E1E" stroke-width="2" stroke-linecap="round" stroke-linejoin="round"/>
<path d="M43.578 75.7663C44.4341 76.0516 45.5098 75.8935 46.4053 75.8935C47.6147 75.8935 48.7227 76.1139 49.9393 75.7663" stroke="#1E1E1E" stroke-width="2" stroke-linecap="round" stroke-linejoin="round"/>
<path d="M52.2294 75.5118C53.9902 75.2917 55.7839 75.2635 57.5234 74.9959C59.1558 74.7447 60.7664 75.0029 62.4075 75.0029C63.7999 75.0029 65.1928 74.7485 66.606 74.7485C68.0834 74.7485 69.4775 74.2396 70.9317 74.2396" stroke="#1E1E1E" stroke-width="2" stroke-linecap="round" stroke-linejoin="round"/>
<path d="M80.9826 76.0207C82.4952 76.0207 84.0078 76.0207 85.5203 76.0207C86.7109 76.0207 87.8099 75.5118 88.9908 75.5118C89.8844 75.5118 90.7041 75.1301 91.5707 75.1301C92.9417 75.1301 94.3453 75.2573 95.7409 75.2573C96.4995 75.2573 97.2582 75.2573 98.0168 75.2573C99.162 75.2573 100.198 75.6698 101.339 75.3846" stroke="#1E1E1E" stroke-width="2" stroke-linecap="round" stroke-linejoin="round"/>
</svg>
