<svg width="84" height="145" viewBox="0 0 84 145" fill="none" xmlns="http://www.w3.org/2000/svg">
<path d="M51.2876 16.2818C51.3584 16.2836 51.3991 16.2547 51.4619 16.2246C51.7278 16.0971 52.0499 16.0293 52.3438 16.0098C52.8888 15.9736 53.4314 16.0248 53.9649 16.1427C54.4978 16.2604 54.9698 16.5622 55.4198 16.8576C55.7835 17.0963 56.2859 17.1922 56.6007 17.4898C56.8899 17.7632 57.2331 17.9484 57.5199 18.2202C57.8134 18.4984 58.1082 18.7968 58.3388 19.13C58.5275 19.4029 58.8872 19.6763 59.1817 19.8245C59.5309 20.0001 59.8885 20.1626 60.2458 20.321C60.6502 20.5003 61.1584 20.6259 61.5001 20.9181C61.6284 21.0279 61.6551 21.1227 61.8254 21.1641C62.0442 21.2173 62.2508 21.3017 62.4667 21.3643C62.9571 21.5065 63.4313 21.6345 63.8901 21.8655C64.3823 22.1133 64.8634 22.3089 65.3859 22.4904C65.7705 22.624 66.1458 22.688 66.4985 22.9018C66.7456 23.0516 66.9752 23.241 67.2234 23.3849C67.2969 23.4275 67.4356 23.4578 67.5174 23.4712C67.7892 23.5157 68.0627 23.58 68.3105 23.7061C68.3432 23.7228 68.5551 23.893 68.4061 23.8891C68.0018 23.8787 67.6109 23.9542 67.2082 23.9754C66.4008 24.018 65.5877 24.0443 64.7787 24.0175C64.1836 23.9979 63.5758 23.865 62.9892 23.7707C62.403 23.6764 61.8242 23.5854 61.2413 23.4694C59.9756 23.2177 58.7933 22.6974 57.5043 22.5243C56.9794 22.4538 56.4404 22.4962 55.9153 22.3999C55.6614 22.3533 55.4063 22.3034 55.1481 22.2968C54.7056 22.2853 54.2593 22.3037 53.8376 22.4434C53.5793 22.5289 53.3162 22.7203 53.0771 22.8542C52.7051 23.0625 52.3739 23.2809 52.0678 23.581C51.3965 24.2393 51.0112 25.2291 50.8937 26.1488C50.7987 26.8923 50.7996 27.6408 50.7803 28.3891C50.7636 29.0353 50.7192 29.6794 50.7025 30.3249C50.6889 30.8505 50.6776 31.3736 50.7312 31.8978C50.7546 32.1259 50.8121 32.35 50.8108 32.5802C50.8104 32.6591 50.7778 32.7925 50.8316 32.8492" stroke="black" stroke-width="2" stroke-linecap="round"/>
<path d="M51.7153 15.8485C51.7055 15.92 51.6388 15.9254 51.5833 15.9423C51.2943 16.0304 50.9713 16.1029 50.7082 16.256C49.8856 16.7343 49.4991 17.7936 49.1274 18.6173C48.7341 19.4891 48.407 20.3874 48.1093 21.2971C48.0337 21.5283 48.0021 21.7468 47.9681 21.9877C47.9202 22.3266 47.8157 22.6634 47.7597 23.0037C47.6794 23.4916 47.5856 23.9809 47.5428 24.473C47.3929 26.197 47.3765 27.9216 47.3318 29.6499C47.3105 30.4751 47.2372 31.3059 47.2461 32.1301C47.2509 32.5685 47.2449 33.0121 47.2336 33.4505C47.2317 33.5256 47.2047 33.6945 47.3133 33.5914" stroke="black" stroke-width="2" stroke-linecap="round"/>
<path d="M66.6553 23.3995C66.5096 23.4119 66.3476 23.4877 66.1928 23.5048C66.0228 23.5237 65.8577 23.5178 65.6865 23.5133C65.2964 23.5033 64.9131 23.4378 64.5224 23.4277C64.1744 23.4187 63.8315 23.3996 63.4906 23.3517C63.2935 23.324 63.1069 23.2718 62.9103 23.241C62.7376 23.2139 62.5759 23.2186 62.4127 23.1526C62.1306 23.0383 61.8181 22.9924 61.5293 22.8906C61.1153 22.7447 60.7668 22.4784 60.3527 22.3325C59.8799 22.166 59.4119 21.9222 58.9635 21.698C58.2892 21.3608 57.5826 20.9485 57.0085 20.4564C56.5572 20.0696 55.6752 18.6168 56.8855 18.6481C57.1261 18.6544 57.4414 18.7874 57.5928 18.9781C57.6303 19.0252 57.7583 19.2252 57.7191 19.2251C57.6312 19.2249 57.2958 19.1617 57.2656 19.2828C57.2238 19.4504 57.4166 19.6002 57.5169 19.7059C57.7563 19.9579 57.9949 20.2124 58.2491 20.4499C58.6072 20.7846 58.9381 21.1498 59.3806 21.3786C59.9056 21.6501 60.4493 21.738 61.0152 21.8884C61.719 22.0753 62.4221 22.2818 63.1145 22.5057C63.4465 22.6131 63.7758 22.7416 64.0985 22.8737C64.4941 23.0355 64.8718 23.2766 65.2969 23.3089" stroke="black" stroke-width="2" stroke-linecap="round"/>
<path d="M58.9628 20.1737C58.9605 20.2638 58.9856 20.3102 59.0407 20.3855C59.3391 20.7941 59.7051 21.0724 60.1492 21.309C60.5049 21.4985 60.8763 21.6613 61.2469 21.8187C61.3698 21.8709 61.559 22.017 61.6929 21.9938" stroke="black" stroke-width="2" stroke-linecap="round"/>
<path d="M56.5259 18.8332C56.2483 18.8261 55.9708 18.8189 55.6933 18.8117C55.4095 18.8044 55.1791 19.0386 55.268 19.3299C55.3778 19.6901 55.6568 19.8847 55.9375 20.1078C56.2843 20.3835 56.555 20.6749 57.0044 20.734" stroke="black" stroke-width="2" stroke-linecap="round"/>
<path d="M56.6967 18.671C56.6234 18.7266 56.402 18.7053 56.3192 18.7106C56.1354 18.7224 55.9576 18.7509 55.7773 18.7861" stroke="black" stroke-width="2" stroke-linecap="round"/>
<path d="M57.3109 20.7419C57.2823 20.7725 57.2804 20.7991 57.2819 20.7412" stroke="black" stroke-width="2" stroke-linecap="round"/>
<path d="M57.1759 20.5441C57.3645 20.5489 57.4992 20.5408 57.686 20.6267C57.8962 20.7233 58.062 20.9398 58.2745 21.0168" stroke="black" stroke-width="2" stroke-linecap="round"/>
<path d="M56.5063 20.6656C56.5567 20.672 56.5885 20.7071 56.6344 20.7244C56.9715 20.852 57.3405 20.9096 57.6887 21.0016C58.2285 21.1443 58.7416 21.3134 59.2614 21.5144" stroke="black" stroke-width="2" stroke-linecap="round"/>
<path d="M50.8274 32.7429C50.7815 34.5205 50.8958 36.3099 50.9298 38.0888C50.9441 38.8355 50.9879 39.5851 50.9872 40.3315C50.9869 40.7252 50.9804 41.1174 51.0138 41.5105C51.0753 42.2331 51.0863 42.9683 51.1038 43.692C51.1142 44.1227 51.1778 44.5629 51.2427 44.988C51.3117 45.4398 51.2827 45.8985 51.3513 46.3502C51.4158 46.7742 51.3703 47.152 51.3595 47.5708C51.349 47.9757 51.3386 48.3806 51.3281 48.7855C51.3228 48.9888 51.3176 49.1921 51.3123 49.3954C51.3073 49.5882 51.271 49.8039 51.3193 49.9909" stroke="black" stroke-width="2" stroke-linecap="round"/>
<path d="M47.468 32.592C47.4623 32.813 47.3127 32.9932 47.2977 33.2132C47.2797 33.4758 47.2391 33.7327 47.2089 33.9951C47.1093 34.8608 47.1936 35.7482 47.1711 36.6167C47.1591 37.0807 47.1471 37.5446 47.1351 38.0085C47.1236 38.4546 47.1121 38.9007 47.1006 39.3468C47.0869 39.8739 46.9699 40.3833 46.9446 40.9048C46.9177 41.4581 46.7468 42.0108 46.6321 42.5508C46.4228 43.5359 46.1844 44.6287 45.7449 45.5383C45.5801 45.8794 45.4125 46.2129 45.2388 46.5494C45.0517 46.9119 44.7531 47.2242 44.5186 47.5571C44.2601 47.924 43.8748 48.1891 43.6249 48.5582C43.0294 49.4377 42.4465 50.3035 41.8492 51.1906C41.4507 51.7824 41.0088 52.3372 40.6088 52.9241C40.5367 53.0299 40.4107 53.0806 40.3321 53.1826C40.1843 53.3745 40.0581 53.5869 39.918 53.7847C39.6416 54.1752 39.3929 54.5752 39.1014 54.9549C38.3866 55.8863 37.5582 56.7364 36.9067 57.7158C36.6313 58.1298 36.3381 58.5099 36.0844 58.9416C35.8286 59.3766 35.4728 59.7603 35.3072 60.2435C35.0667 60.9458 34.5071 61.5783 34.4367 62.3379C34.3936 62.8034 34.2953 63.2525 34.2831 63.7224" stroke="black" stroke-width="2" stroke-linecap="round"/>
<path d="M51.2437 49.1579C51.2363 49.4429 51.1534 49.7083 51.1151 49.9903C51.0324 50.5977 51.0364 51.21 51.0206 51.8219C50.9638 54.0175 50.9145 56.1838 50.6393 58.3643C50.4452 59.9032 50.2311 61.4742 50.1913 63.0151" stroke="black" stroke-width="2" stroke-linecap="round"/>
<path d="M50.4722 62.1714C50.4649 62.4511 50.1977 62.5331 50.1249 62.7731C49.7693 63.9452 49.6133 65.1892 49.3155 66.3826C48.6533 69.0366 47.1929 71.2077 45.708 73.4422C45.0586 74.4194 44.5443 75.4701 43.7661 76.3564C43.0767 77.1415 42.1622 77.6571 41.2556 78.1502C40.5221 78.549 39.8287 79.0044 39.1262 79.4588C38.5066 79.8597 37.8833 80.142 37.2106 80.4413C36.6009 80.7125 36.1001 81.1808 35.5853 81.5971C35.0735 82.0111 34.6075 82.4593 34.2017 82.9777C33.8343 83.4471 33.5982 83.9888 33.2522 84.4722C32.4389 85.6085 31.6667 86.6248 30.5234 87.4792C29.7055 88.0906 28.8766 88.6868 28.0596 89.3005C27.7646 89.5221 27.4684 89.6973 27.1269 89.8372C26.7932 89.9738 26.466 90.1591 26.1481 90.3279C25.8644 90.4785 25.5614 90.5336 25.2838 90.6636C25.0169 90.7885 24.7892 90.987 24.4926 91.0248C24.2298 91.0583 23.9772 91.0563 23.71 91.0494" stroke="black" stroke-width="2" stroke-linecap="round"/>
<path d="M34.3393 62.9864C34.3323 63.2582 34.2298 63.5173 34.2026 63.7964C34.1381 64.4582 34.1523 65.1236 34.1248 65.7873C34.105 66.2646 33.9585 66.7219 33.9461 67.199C33.9294 67.846 33.879 68.4924 33.804 69.133C33.7471 69.619 33.5938 70.0645 33.575 70.5592C33.5521 71.1587 33.459 71.7555 33.4337 72.3563C33.4132 72.8459 33.2117 73.3399 33.0908 73.8111C32.8795 74.6347 32.5319 75.4309 32.1707 76.2015C30.6699 79.404 28.3895 82.1715 26.5629 85.1786C25.8729 86.3145 24.966 87.3105 24.3009 88.4583C23.9501 89.0637 23.8603 89.6941 23.7382 90.3656C23.7155 90.4909 23.6116 91.3293 23.7039 91.2861" stroke="black" stroke-width="2" stroke-linecap="round"/>
<path d="M34.5982 62.1401C34.5715 62.3515 34.366 62.5691 34.2487 62.7261C33.9238 63.1608 33.7392 63.5954 33.5523 64.1034C33.0834 65.3773 32.5829 66.5639 31.9467 67.7581C30.8446 69.8268 29.4597 71.6635 28.0282 73.5065C27.757 73.8557 27.5541 74.2441 27.2788 74.5902C26.8683 75.1065 26.4327 75.5978 26.0489 76.1354C24.8306 77.8423 24.1026 79.7744 23.9264 81.8644C23.7871 83.516 23.7663 85.2069 23.7234 86.8638C23.7161 87.1485 23.7474 87.4565 23.8062 87.7347C23.9268 88.305 23.9808 88.8867 24.1305 89.4491" stroke="black" stroke-width="2" stroke-linecap="round"/>
<path d="M32.4272 67.2967C32.1174 67.9133 32.1214 68.6654 31.9456 69.3271C31.5838 70.6896 31.2631 72.0589 30.8712 73.4142C30.243 75.5868 29.3079 77.6445 28.1787 79.6023C26.8116 81.9724 25.6629 84.5208 23.9186 86.6477" stroke="black" stroke-width="2" stroke-linecap="round"/>
<path d="M42.7986 77.3872C42.7891 77.7563 42.7641 78.1043 42.4979 78.3703C42.0882 78.7799 42.045 79.3343 41.9362 79.8697C41.7241 80.9133 41.4794 81.9497 41.2014 82.9763C41.1325 83.2308 41.1035 83.5373 40.9699 83.7686C40.3124 84.9073 40.1668 86.3566 39.8645 87.6088C39.7049 88.2695 39.6384 88.9005 39.6209 89.5782C39.6143 89.8318 39.6078 90.0855 39.6012 90.3392C39.5987 90.4368 39.6479 90.9785 39.5374 90.6801" stroke="black" stroke-width="2" stroke-linecap="round"/>
<path d="M39.8641 86.5598C39.828 87.9534 39.5508 89.3228 39.701 90.7393C39.8429 92.0782 39.745 93.4464 39.9269 94.7761C40.1983 96.7588 40.1944 98.8089 40.2544 100.803C40.2856 101.842 40.3587 102.843 40.5728 103.864C40.681 104.38 40.7407 104.903 40.8507 105.418C40.8732 105.524 40.8997 106.023 41.0168 105.857" stroke="black" stroke-width="2" stroke-linecap="round"/>
<path d="M40.2421 86.8448C40.0927 87.142 40.0098 87.4611 39.9974 87.7927C39.9857 88.1042 39.399 90.3462 39.5459 90.35" stroke="black" stroke-width="2" stroke-linecap="round"/>
<path d="M40.3791 85.8024C40.3633 86.4119 40.233 87.0038 40.2221 87.615C40.2081 88.4036 40.2637 89.186 40.2039 89.9755C40.1749 90.3585 40.0833 90.8566 40.0747 91.1894" stroke="black" stroke-width="2" stroke-linecap="round"/>
<path d="M41.7926 105.367C41.7856 105.638 41.6453 105.732 41.922 105.912C42.2034 106.094 42.5097 106.111 42.8278 106.19C43.849 106.442 44.9165 106.498 45.9555 106.668C46.5076 106.759 47.0898 106.746 47.6216 106.926C47.953 107.039 48.2656 107.105 48.6101 107.157C49.0685 107.227 49.4842 107.268 49.9601 107.28" stroke="black" stroke-width="2" stroke-linecap="round"/>
<path d="M41.3051 106.059C41.3112 106.121 41.3988 106.177 41.4309 106.238C41.6129 106.587 41.8446 106.921 42.0967 107.224C42.551 107.769 43.1243 108.168 43.7427 108.512C43.994 108.652 44.3428 109.012 44.6358 108.904" stroke="black" stroke-width="2" stroke-linecap="round"/>
<path d="M41.1954 105.763C41.2871 105.775 41.3422 105.855 41.427 105.886C41.5897 105.945 41.7994 105.903 41.9587 105.877C42.5498 105.781 43.127 105.612 43.7246 105.554C43.911 105.536 44.6404 105.623 44.7268 105.384" stroke="black" stroke-width="2" stroke-linecap="round"/>
<path d="M42.4317 105.618C42.3974 105.868 41.5839 105.714 41.4315 105.71C41.1181 105.702 41.7267 106.869 42.1187 106.373" stroke="black" stroke-width="2" stroke-linecap="round"/>
<path d="M35.6027 81.4365C35.6368 81.9612 35.7513 82.502 35.4139 82.938C35.169 83.2544 35.0885 83.7204 35.0089 84.0982C34.8396 84.9015 34.7679 85.7258 34.6491 86.5377C34.4911 87.6178 34.5295 88.6448 34.5013 89.7326C34.4747 90.7642 34.4285 91.7849 34.4281 92.8186C34.4276 94.1223 34.5591 95.4306 34.49 96.7331C34.3991 98.4437 34.3557 100.161 34.3114 101.874C34.2941 102.545 34.7284 102.571 35.3605 102.664C36.4034 102.817 37.4059 103.243 38.436 103.399C38.6593 103.433 38.975 103.15 39.1779 103.079C39.3147 103.031 39.8627 103.036 39.7447 102.849" stroke="black" stroke-width="2" stroke-linecap="round"/>
<path d="M34.842 101.783C34.939 101.798 34.9934 101.936 35.1015 101.963C35.3941 102.036 35.8334 101.783 36.1471 101.752C36.9035 101.677 37.6565 101.484 38.4071 101.36C38.5756 101.333 39.4798 101.337 39.5525 101.201" stroke="black" stroke-width="2" stroke-linecap="round"/>
<path d="M42.7295 75.9274C43.0269 76.2405 42.5822 76.6416 42.4105 76.917" stroke="black" stroke-width="2" stroke-linecap="round"/>
<path d="M26.9395 75.9889C26.9367 76.0965 26.9591 76.2375 26.9304 76.3408C26.8637 76.581 26.6432 76.8152 26.5406 77.0415C26.3348 77.4955 26.2182 77.9843 26.1254 78.4721C25.9876 79.1956 26.0114 79.943 26.0554 80.6745C26.1042 81.4863 26.12 82.3096 26.4042 83.0769" stroke="black" stroke-width="0.5" stroke-linecap="round"/>
<path d="M28.2001 74.9063C28.1786 75.0765 28.0615 75.2094 27.9862 75.3572C27.5459 76.2219 27.3384 77.2305 27.212 78.1871C27.0689 79.2709 27.15 80.338 27.3866 81.4002" stroke="black" stroke-width="0.5" stroke-linecap="round"/>
<path d="M29.0141 72.9317C28.5669 73.816 28.619 74.9839 28.584 75.9466C28.5576 76.6743 28.5043 77.4277 28.6446 78.1459" stroke="black" stroke-width="0.5" stroke-linecap="round"/>
<path d="M30.0911 72.1379C30.0763 72.2359 29.9254 72.323 29.8938 72.4523C29.6258 73.5515 29.5123 74.7295 29.8196 75.8285" stroke="black" stroke-width="0.5" stroke-linecap="round"/>
<path d="M14.4425 116.048C14.5898 116.036 14.6515 115.883 14.6669 115.751C14.7706 114.865 15.0485 114.004 15.2376 113.133C15.5575 111.659 16.2555 110.376 16.9462 109.047C18.6745 105.72 20.6684 102.324 23.7618 100.075C24.8155 99.3092 25.9611 98.6918 27.1248 98.1134C28.4986 97.4306 29.8455 96.7067 31.2886 96.1764C33.816 95.2478 36.7187 94.1628 39.4484 94.6862C41.3569 95.0522 43.311 95.4637 45.1804 95.9957C47.0071 96.5155 49.2027 97.2465 50.673 98.4972C51.7001 99.3708 52.1387 101.01 52.6667 102.209C53.152 103.31 53.6236 104.446 54.2009 105.503C54.8667 106.723 56.2439 106.572 57.2359 107.373C57.6858 107.736 58.014 108.254 58.4127 108.671C59.1672 109.459 60.0175 110.154 60.7078 111.004C61.9258 112.503 62.7407 114.407 63.7424 116.055C64.9282 118.005 66.1851 119.981 67.1366 122.06C68.06 124.077 67.9332 126.479 68.2176 128.651C68.2772 129.106 68.3415 129.552 68.3296 130.011C68.3252 130.183 68.2994 130.325 68.3914 130.471" stroke="black" stroke-width="2" stroke-linecap="round"/>
<path d="M14.4692 115.018C14.4371 115.231 14.1971 115.532 14.1313 115.75C13.5971 117.521 13.2992 119.373 12.9439 121.186C12.691 122.477 12.9487 123.86 12.8859 125.172C12.8505 125.91 12.7592 126.654 13.0464 127.348" stroke="black" stroke-width="2" stroke-linecap="round"/>
<path d="M34.3804 116.416C34.4769 116.431 34.5867 116.625 34.5935 116.716C34.6055 116.879 34.5506 117.058 34.5315 117.214C34.4356 118 34.478 118.755 34.6763 119.524C34.9161 120.453 35.4148 121.359 36.0748 122.054" stroke="#FF0000" stroke-width="2" stroke-linecap="round"/>
<path d="M37.8921 117.243C37.9023 117.381 37.9845 117.488 38.0297 117.615C38.2204 118.149 38.0498 118.755 38.2518 119.305C38.6306 120.338 39.258 121.201 39.9185 122.064C40.7638 123.167 42.3598 123.832 43.6764 124.124C44.5643 124.32 45.2901 124.002 46.1161 123.712C46.6408 123.529 47.4823 123.481 47.9303 123.134C48.384 122.782 48.9532 121.385 48.4686 120.976" stroke="#FF0000" stroke-width="2" stroke-linecap="round"/>
<path d="M41.3157 115.786C41.6893 116.223 41.2699 116.92 41.457 117.438C41.5759 117.766 42.1266 118.585 42.1356 118.236" stroke="#FF0000" stroke-width="2" stroke-linecap="round"/>
<path d="M47.2155 115.35C47.1944 116.167 47.5276 116.964 48.2334 117.421C48.5426 117.621 49.0802 117.876 49.3947 117.577C49.6436 117.341 49.1597 116.8 49.024 116.574" stroke="#FF0000" stroke-width="2" stroke-linecap="round"/>
<path d="M47.9001 97.4073C47.9149 97.5817 48.0476 97.629 48.0322 97.8319C47.949 98.9278 47.6563 99.9568 47.2922 100.99C47.1125 101.5 46.5089 103.356 45.8851 103.379C45.0295 103.41 44.1067 102.854 43.3517 102.516" stroke="black" stroke-linecap="round"/>
<path d="M32.6363 102.524C32.4978 102.622 32.3425 102.655 32.1808 102.701C30.8237 103.085 29.4703 103.508 28.1416 103.981C26.5369 104.551 25.0843 105.377 23.9402 106.667C23.0974 107.617 22.2411 108.608 21.7412 109.782C21.5275 110.284 21.3523 111.307 20.9795 111.661" stroke="black" stroke-linecap="round"/>
<path d="M27.6357 109.756C25.2908 111.234 23.2412 113.346 21.2027 115.201C19.7099 116.559 18.0155 117.96 16.7741 119.575C15.4709 121.27 14.3961 123.483 13.8251 125.539" stroke="black" stroke-linecap="round"/>
<rect x="5.32366" y="1.96881" width="76.1915" height="139.94" rx="38.0958" transform="rotate(1.15604 5.32366 1.96881)" stroke="black" stroke-width="3"/>
</svg>
