<svg width="135" height="132" viewBox="0 0 135 132" fill="none" xmlns="http://www.w3.org/2000/svg">
<rect x="1.9654" y="41.2599" width="101" height="96" rx="48" transform="rotate(-22.8956 1.9654 41.2599)" stroke="black" stroke-width="3"/>
<g clip-path="url(#clip0_40_26)">
<path d="M27.6103 60.3624C27.843 60.2289 27.399 59.6696 27.5008 59.4078C27.6768 58.9547 27.4874 58.6525 27.5042 58.199C27.5171 57.8516 27.5487 57.4682 27.7568 57.155C27.9658 56.8404 28.1037 56.2936 28.4698 56.139C28.9047 55.9553 28.9021 55.4049 29.3587 55.1917C29.7183 55.0236 30.0559 54.7542 30.3944 54.6113C30.8594 54.4149 31.0099 53.9415 31.4522 53.7356C31.9552 53.5015 32.4779 53.3024 32.9892 53.0865C33.8458 52.7247 34.6953 52.3282 35.5646 51.9988C35.948 51.8535 36.6245 51.9395 37.0504 51.9432C37.4335 51.9466 37.8239 51.7777 38.1682 51.7889C38.6454 51.8044 38.9733 52.0736 39.4404 52.0777C39.8285 52.0811 40.2669 52.0021 40.6786 52.0155C41.5107 52.0426 42.3415 51.5604 43.1389 51.6595C43.6034 51.7173 44.0327 51.618 44.4817 51.6326C45.0715 51.6518 45.6499 51.7771 46.2337 51.7823C46.7808 51.7871 47.4298 51.9385 47.963 51.8781C48.4073 51.8278 48.7583 52.0614 49.2344 51.9528C49.415 51.9115 49.5791 52.0555 49.7886 52.0285C50.1384 51.9834 50.4468 51.9902 50.7796 51.8642C51.2652 51.6802 51.9126 51.7024 52.4267 51.6689C52.7276 51.6493 52.8781 51.8382 53.16 51.8597C53.5667 51.8908 53.9402 51.7019 54.3572 51.7195C54.7301 51.7352 55.1898 51.7174 55.5416 51.5688C56.495 51.1661 57.3104 51.1237 58.3126 51.0022C59.4408 50.8654 60.6359 51.3438 61.766 51.2595C62.8776 51.1764 64.0239 51.6231 65.0433 51.9882C65.5953 52.1859 66.2597 52.0605 66.8208 52.024C67.4507 51.983 68.0332 52.3132 68.6613 52.2872C69.0293 52.272 69.4219 52.4845 69.8176 52.5138C70.1671 52.5397 70.7826 52.9021 71.0751 52.8644C71.5691 52.8007 72.0268 52.962 72.5225 53.0077C72.7824 53.0317 73.9849 53.2205 74.1416 53.3645C74.8796 54.0424 75.8766 54.4375 76.6902 55.0524C77.4643 55.6379 78.6221 56.1642 79.1892 56.9519C79.4234 57.2774 79.8343 57.2961 80.0462 57.5908C80.2964 57.938 80.8232 58.1661 81.2227 58.3092C81.9405 58.5663 82.5432 59.0026 83.1587 59.4933C84.3239 60.4227 86.0727 60.5556 87.5317 61.0781C87.9772 61.2377 88.4828 61.2183 88.8872 61.5065C89.1378 61.6848 89.8276 62.0599 90.1072 62.1349C90.8847 62.3436 91.6476 62.7876 92.4092 63.0851C93.439 63.4872 94.4169 63.385 95.5145 63.2906C96.0661 63.2431 96.6868 63.4749 97.2299 63.5275C97.6814 63.571 98.0923 63.5867 98.5409 63.6567C99.534 63.8121 100.574 63.7919 101.534 64.0608C101.964 64.1811 102.463 64.129 102.904 64.2527C103.715 64.4798 104.613 64.6558 105.44 64.8099C105.906 64.897 106.354 64.9871 106.805 65.163C106.946 65.2181 108.801 65.6012 108.226 65.921C108.062 66.0124 107.682 66.0438 107.739 66.2935C107.876 66.8927 108.165 67.3807 107.663 67.93C107.496 68.1139 106.921 68.2776 107.014 68.5938C107.23 69.3313 105.946 69.8626 105.398 70.1181C104.935 70.3338 104.638 70.2103 104.152 70.1041C103.454 69.9522 102.756 69.8059 102.059 69.6695C101.322 69.5249 100.839 68.8698 100.029 68.8986C99.0934 68.932 98.215 68.6823 97.3296 68.4577C96.8433 68.3342 96.3018 68.6032 95.8552 68.5403C95.3849 68.4738 94.713 68.2976 94.2327 68.4073C93.8006 68.5059 93.462 68.1833 93.0142 68.342C92.6927 68.4561 91.9686 68.3956 91.5957 68.4408C90.6615 68.5542 89.686 68.6039 88.8104 68.9737C87.6799 69.4511 86.4937 69.5232 85.3472 70.0074C84.5701 70.3356 85.1059 70.6191 85.222 71.2755C85.2843 71.6265 84.2188 71.9137 83.9351 72.0335C83.5666 72.1891 83.4497 72.7442 83.1926 73.0382C82.9603 73.3039 82.7062 73.6373 82.4093 73.8295C81.9843 74.1049 81.554 74.5775 81.0298 74.6586C80.8551 74.6854 80.8309 74.3351 80.7254 74.2468C80.1736 73.7851 78.123 74.6588 77.506 74.8916C77.0361 75.0688 76.9052 75.5759 76.872 76.0173C76.8439 76.393 76.8079 77.3259 76.5146 77.5663C76.1649 77.8528 75.5717 77.9961 75.1553 78.172C74.749 78.3436 74.343 78.5151 73.9367 78.6867C73.405 78.9112 73.2681 79.3979 72.8096 79.5915C72.1419 79.8735 71.5321 80.1606 70.9264 80.5221C70.3401 80.8717 69.7477 81.1706 69.1113 81.4394C68.2816 81.7898 68.0738 82.8784 67.3237 83.1952C65.5909 83.927 63.8055 84.395 62.112 85.1102C61.1872 85.5008 60.3263 85.485 59.376 85.7019C58.2685 85.9546 57.5281 86.5933 56.3344 86.478C55.888 86.4349 55.4606 86.2891 55.0047 86.2849C54.5203 86.2808 53.712 86.3678 53.2923 86.055C53.0292 85.8589 52.3947 86.0424 52.0619 85.9233C51.7173 85.7999 51.2401 86.0767 50.8676 86.0702C49.9043 86.0538 48.9824 85.8245 48.0424 85.7939C47.5801 85.7789 47.2425 85.885 46.8083 85.8464C46.3447 85.8052 45.8789 85.7366 45.4514 85.5697C44.6309 85.2491 43.9596 84.5817 43.1523 84.2211C42.1956 83.7937 41.9242 82.9112 41.2552 82.1628C40.9381 81.8082 40.5422 81.2654 40.1205 81.0215C39.8484 80.8642 39.1518 80.3649 38.9027 80.3207C38.2446 80.2034 37.7717 79.4263 37.0953 79.3443C36.6261 79.2876 36.2599 78.7769 35.98 78.4808C35.575 78.052 34.8281 77.7784 34.3593 77.386C33.951 77.0444 33.2539 76.5072 33.0473 76.0179C32.9604 75.8124 32.8133 75.7755 32.6158 75.6917C32.3466 75.5776 32.3079 75.2852 32.1951 75.0433C31.964 74.5476 31.5084 74.3727 31.1105 74.0398C30.7765 73.7603 30.2798 73.6014 29.9867 73.2912C29.671 72.957 29.2856 72.5348 28.9253 72.2461C28.3826 71.8112 28.2113 71.1735 27.9351 70.5196C27.2421 68.8786 27.0856 67.4342 27.8129 65.71" stroke="black" stroke-linecap="round"/>
<path d="M28.3649 60.7585C28.6835 60.5758 27.8697 60.4933 27.7698 60.4697C27.3096 60.3614 27.4004 61.0613 27.2547 61.2592C27.092 61.4803 26.8784 62.1538 26.8934 62.4126C26.9036 62.588 27.0511 62.7406 26.9233 62.9084C26.8523 63.0017 26.6329 63.1513 26.6475 63.279C26.6878 63.6309 26.3776 63.8689 26.4508 64.2041C26.5264 64.5503 26.3983 64.7485 26.2952 65.072C26.0405 65.8719 26.3352 65.9484 27.036 65.6091C27.3418 65.4611 27.6386 65.154 27.8914 64.9302C28.0993 64.7461 28.1679 64.2989 28.3486 64.1969C28.9262 63.8711 29.2094 63.037 29.6397 62.5793C29.8524 62.353 30.2754 62.2728 30.4067 61.9615C30.5825 61.5447 30.1959 61.642 29.9733 61.4376C29.4825 60.9868 28.6137 61.1597 27.9911 60.9164" stroke="black" stroke-linecap="round"/>
<path d="M26.7949 63.9952C26.7606 63.8723 29.0124 62.7727 28.7486 62.8841C28.2544 63.0928 28.0704 63.7425 27.5828 63.9484C27.3723 64.0373 27.0421 64.1052 26.9694 64.3504C26.8937 64.6055 27.5055 64.2232 27.6066 64.256C27.7391 64.299 26.4454 65.0131 26.6039 64.9337C26.9488 64.7609 27.486 63.9971 27.7551 63.6611C28.1233 63.2014 27.7241 63.8887 27.4581 64.001C27.1734 64.1213 27.1931 64.4537 26.9749 64.634C26.731 64.8356 26.4546 64.957 26.2813 65.2129" stroke="black" stroke-linecap="round"/>
<path d="M32.5265 58.9503C32.7035 59.3694 33.0181 59.8622 33.5859 59.656C33.8972 59.5429 34.2533 59.6149 34.5406 59.413C35.1084 59.0138 35.31 58.1303 35.0645 57.549C34.8726 57.0947 34.7359 57.2176 34.394 56.9628C34.0463 56.7037 33.5701 57.0271 33.2315 57.1701C32.6541 57.414 32.7017 57.4725 32.6816 58.0155C32.6658 58.4405 32.7229 58.8144 32.8895 59.2089" stroke="black" stroke-linecap="round"/>
<path d="M33.7932 58.7449C34.0075 59.2524 34.4169 57.9873 33.7956 58.2497C33.6035 58.3308 33.5807 58.4638 33.6689 58.6509C33.757 58.8377 34.1096 58.6928 34.0213 58.4838" stroke="black" stroke-linecap="round"/>
<path d="M66.0765 84.6189C66.1549 84.9001 65.8855 85.3703 65.9662 85.7396C66.0684 86.208 66.0298 86.6955 66.2192 87.1438C66.3584 87.4736 66.4048 87.9711 66.4834 88.3311C66.5556 88.6621 66.7248 89.142 66.6849 89.4762C66.6275 89.9553 66.1959 90.0761 65.7972 90.2445C65.3422 90.4366 64.8837 90.8027 64.6568 91.2195C64.5293 91.4537 63.9645 91.5805 63.7234 91.6823C63.2409 91.8861 62.7584 92.0899 62.2757 92.2937" stroke="black" stroke-linecap="round"/>
<path d="M66.7419 90.295C66.7566 90.5036 66.4771 90.5849 66.421 90.7803C66.3179 91.1394 66.0967 91.4556 65.996 91.8091C65.8713 92.2472 65.8665 92.7774 65.7947 93.2304C65.697 93.847 65.7722 93.913 65.6689 93.2211" stroke="black" stroke-linecap="round"/>
<path d="M67.0533 89.9387C66.8089 90.9285 68.1368 91.318 68.781 91.5697" stroke="black" stroke-linecap="round"/>
<path d="M62.9532 85.1509C62.4383 85.4041 62.1961 86.3871 62.1945 86.9077C62.1921 87.6917 61.9966 88.4342 62.0423 89.2201C62.0937 90.1066 61.0657 89.4739 60.7286 89.2379C60.4274 89.027 60.0458 89.2642 59.7466 88.978C59.4958 88.7383 59.3359 88.5736 59.0107 88.3898" stroke="black" stroke-linecap="round"/>
<path d="M61.6256 90.2079C61.053 90.4497 60.4009 90.3878 59.8175 90.6342C59.2746 90.8635 58.6629 90.9769 58.0889 90.9147C57.5341 90.8544 56.7807 91.13 56.2699 91.3457C55.5684 91.6419 54.8332 91.8399 54.1287 92.1375" stroke="black" stroke-linecap="round"/>
<path d="M61.7061 90.3986C61.8251 90.8252 60.812 91.4339 60.5877 91.7139C60.2788 92.0997 59.8885 92.5797 59.527 92.8925" stroke="black" stroke-linecap="round"/>
<path d="M43.7258 74.6125C44.3132 75.104 45.1269 75.376 45.81 75.7054C46.6953 76.1324 47.8769 75.8359 48.7781 76.188C49.2719 76.381 49.7872 76.2374 50.3189 76.3741C50.9165 76.5276 51.5562 76.7225 52.1489 76.85C53.0549 77.0448 53.7065 77.6872 54.6818 77.6537C56.2928 77.5987 57.7448 78.3891 59.3678 77.8917C60.2287 77.6276 61.0476 77.3009 61.8868 76.9465C62.6317 76.6319 62.7273 76.1399 62.7794 75.4455" stroke="black" stroke-linecap="round"/>
<path d="M62.4974 74.7778C62.8049 75.2049 63.9824 75.0231 64.4498 75.0273C65.0483 75.0324 65.8915 74.7595 66.4577 74.5727C66.7862 74.4643 67.0916 74.5933 67.4069 74.4966C67.8209 74.3695 68.1932 74.1864 68.6161 74.0796C69.3326 73.8981 70.0938 73.8175 70.7869 73.5248C71.2245 73.34 71.6844 73.1807 72.1477 73.0876C72.749 72.9666 73.7096 72.778 74.3127 72.8225C74.8002 72.8588 75.3213 72.5417 75.8194 72.5485C76.3206 72.5552 77.2494 72.5941 77.7124 72.3986C78.532 72.0524 79.2339 71.8731 79.6171 71.0321C80.0347 70.1162 79.1195 69.4654 78.5131 69.0255C78.343 68.9019 78.1312 69.1138 77.9436 69.1037C77.6516 69.088 77.5031 68.9535 77.2048 69.0098C76.8235 69.0816 76.2437 68.9973 76.052 68.6035C75.7721 68.0296 74.9256 67.2079 74.3241 66.9729" stroke="black" stroke-linecap="round"/>
<path d="M72.5031 67.8544C73.6276 67.3795 74.832 67.3204 75.9516 66.8475C76.4045 66.6562 77.0754 66.515 77.3554 66.086C77.5162 65.8395 77.788 65.5492 77.8468 65.2604C77.8856 65.07 78.0732 65.1265 78.1432 64.9604C78.3335 64.5094 78.7997 64.2311 79.1226 63.8472C79.4541 63.4534 79.8016 63.1729 79.9855 62.671C80.2185 62.0363 80.7871 61.1094 81.1979 60.5604C81.4272 60.2538 81.6952 59.8735 81.6682 59.4875" stroke="black" stroke-linecap="round"/>
<path d="M56.2401 74.7227C57.0326 74.4401 57.3242 75.2795 57.9537 75.3479C58.565 75.4142 58.8976 75.5113 59.5213 75.2478C60.3914 74.8804 61.2719 74.6207 62.1576 74.2467C62.8885 73.938 63.0048 73.1934 63.6415 72.8396C64.121 72.5728 64.7438 72.0485 64.8477 71.4745C64.9844 70.7211 65.0999 70.5113 65.6082 69.9795C65.9923 69.5775 65.7108 68.9703 66.1448 68.5163C67.0904 67.5268 66.3638 65.8583 67.2243 64.8007C67.4411 64.5341 67.5471 64.3271 67.8653 64.1927C68.1746 64.0621 68.67 63.7554 68.862 63.4848C69.0361 63.2388 69.128 62.6367 69.1108 62.343C69.095 62.073 68.8623 61.8607 68.8727 61.5818C68.893 61.0375 68.5318 60.3645 68.3214 59.8663C68.0326 59.1825 67.4561 58.4726 67.332 57.7364C67.2409 57.1958 67.1366 56.7873 66.9221 56.2796C66.7258 55.8146 66.3633 55.5029 66.16 55.0216C66.0212 54.6928 65.911 54.3234 65.7292 54.017C65.5331 53.6866 65.1773 53.5148 65.0201 53.1425" stroke="black" stroke-linecap="round"/>
<path d="M72.5955 67.2533C73.2651 66.9705 73.6566 66.3919 74.1515 65.8655C74.8031 65.1724 75.1242 64.2204 74.7407 63.3124" stroke="black" stroke-linecap="round"/>
<path d="M72.7815 64.1398C73.7797 63.9709 74.8945 63.8167 74.6803 62.6073C74.64 62.3791 74.4727 62.0107 74.4995 61.7846C74.5576 61.299 73.8246 61.3616 73.5203 61.2427" stroke="black" stroke-linecap="round"/>
<path d="M72.7942 61.4368C73.0441 61.3313 73.5228 61.2368 73.6358 60.9689C73.7503 60.6974 73.7367 60.1147 73.6247 59.8497C73.3427 59.1819 72.7159 59.1258 72.9802 58.3234C73.0507 58.1089 72.9112 57.9144 73.0034 57.6954C73.0574 57.5676 73.1464 57.4774 73.1695 57.3442C73.24 56.9365 73.4244 56.9152 73.2262 56.446C73.0371 55.9981 72.9933 55.856 72.4719 55.753C72.1208 55.6837 71.5476 55.8936 71.2067 56.0375" stroke="black" stroke-linecap="round"/>
<path d="M70.5894 69.3369C70.7908 69.8139 70.9922 70.2908 71.1937 70.7678C71.4807 71.4474 72.2148 71.7662 72.5873 72.4274" stroke="black" stroke-linecap="round"/>
<path d="M55.5204 73.5653C56.6578 73.0849 57.9223 72.8882 59.0704 72.4033C59.3692 72.2771 59.5229 72.0472 59.7113 71.7954C59.9473 71.4801 60.3953 71.4588 60.6627 71.1624C60.9365 70.859 60.8768 70.4324 61.0259 70.0786C61.0939 69.9177 61.2479 69.8432 61.2885 69.6682C61.4892 68.802 63.4058 68.5189 63.0541 67.3487C62.9579 67.0283 63.0007 66.588 63.1379 66.3017C63.3205 65.9202 64.1077 65.4699 63.8875 64.9486C63.7431 64.6067 63.3505 63.9946 63.5072 63.623C63.6645 63.2503 64.075 62.9326 63.8918 62.4988C63.744 62.1488 63.376 61.6365 63.5509 61.2815C63.6529 61.0744 63.529 60.8536 63.7861 60.7451C63.9895 60.6592 64.1933 60.5808 64.2227 60.3359C64.2458 60.1417 64.3501 60.0896 64.4174 59.9164C64.4696 59.782 64.4198 59.6709 64.3985 59.5373C64.3555 59.2673 64.5247 59.1027 64.5284 58.8579C64.5358 58.3672 63.6781 57.8924 63.4904 57.4479C63.3152 57.0329 63.2577 56.624 63.0824 56.2089C62.8502 55.659 61.9594 55.784 61.4867 55.9836" stroke="black" stroke-linecap="round"/>
<path d="M48.2592 53.3645C48.0611 53.8341 48.1508 54.3841 47.8646 54.8301C47.5121 55.3795 47.4517 55.9952 47.0924 56.555C46.7765 57.0473 46.2966 57.3879 45.8339 57.7359C45.4318 58.0385 45.2071 58.5479 44.8417 58.8793C44.4434 59.2406 44.3251 59.9633 43.9095 60.3471C43.5323 60.6955 43.2351 61.0675 43.1215 61.5791C43.0071 62.0942 42.7426 62.5154 42.7558 63.0824C42.7633 63.4035 42.2649 63.8434 42.1324 64.1575C41.9425 64.6076 41.9406 65.0962 41.8552 65.536C41.7717 65.966 41.6756 66.4014 41.6798 66.8215C41.685 67.3556 41.6455 68.0085 41.8384 68.503C41.9515 68.7931 41.976 69.1024 42.0985 69.3923C42.2217 69.6841 41.9699 69.8496 42.0463 70.0888C42.5475 71.6577 43.12 73.1778 43.7661 74.7077" stroke="black" stroke-linecap="round"/>
<path d="M50.8821 74.0629C51.2798 74.0574 51.6085 74.5909 51.986 74.4899C52.271 74.4136 52.635 74.1002 52.7842 73.8591C53.1232 73.3113 53.1912 72.4233 52.9459 71.8425" stroke="black" stroke-linecap="round"/>
<path d="M54.0235 71.3875C53.8987 71.74 54.2989 72.132 54.6262 72.2071C55.1097 72.3177 55.7953 71.8756 56.2193 71.6965C56.789 71.4559 56.9982 69.7147 56.2311 69.7807" stroke="black" stroke-linecap="round"/>
<path d="M56.1331 69.8221C55.9985 69.3391 58.4038 69.3376 58.3501 68.7235C58.3096 68.2641 58.2323 67.7 57.9524 67.3115C57.8142 67.1195 58.0834 67.3026 58.2945 67.2857C58.4717 67.2716 58.7623 67.1823 58.9043 67.0594C59.356 66.6685 58.9621 66.1336 58.7861 65.7168C58.7128 65.5433 58.6641 65.3783 58.489 65.2864C58.3127 65.1939 58.1558 65.4167 58.4761 65.0733C59.101 64.4032 59.4028 64.1699 59.0649 63.3697C59.0427 63.3172 59.0068 63.17 58.925 63.1602C58.882 63.155 58.7031 63.2824 58.7406 63.3005C58.9357 63.3946 59.6128 62.7971 59.7287 62.6335C59.9357 62.3414 59.8972 62.043 59.5679 61.8272C58.8689 61.3694 59.3739 61.1711 59.8231 60.5641C60.1577 60.1123 60.26 59.5362 59.8041 59.1671C59.2431 58.7129 58.5581 58.9124 59.1287 58.0536C59.4879 57.5126 59.2748 57.3064 59.0348 56.7381C58.8205 56.2307 59.7273 55.7646 59.9256 55.2941C60.1499 54.7626 59.7767 54.4577 59.266 54.6735C58.8232 54.8604 58.3805 55.0474 57.938 55.2343" stroke="black" stroke-linecap="round"/>
<path d="M49.8475 68.8797C50.1087 69.3556 50.8317 68.9137 51.1843 68.7648C51.8732 68.4739 52.4565 68.2333 52.3985 67.4027C52.3645 66.9163 51.9573 66.6624 52.4442 66.2657C53.0099 65.8046 53.2158 65.4553 53.3528 64.7267C53.4048 64.4485 53.098 64.0024 52.9933 63.7545C52.7878 63.268 53.7698 62.8708 54.1055 62.6978C54.7541 62.3636 54.8807 62.2098 54.6205 61.5936C54.4032 61.079 54.7149 60.9441 55.0871 60.5722C55.3981 60.2614 55.4048 60.1705 55.25 59.804C55.1167 59.4885 55.0814 59.1927 54.6897 59.2975C53.9264 59.5017 55.4249 57.6255 54.6581 57.8559C54.4174 57.9282 53.8585 57.6954 53.6674 57.5749C53.3021 57.3446 53.5172 56.7942 53.3833 56.4772C53.1219 55.8582 53.1232 55.4692 52.3947 55.7769" stroke="black" stroke-linecap="round"/>
</g>
<defs>
<clipPath id="clip0_40_26">
<rect width="77" height="51" fill="white" transform="translate(21.7737 57.3185) rotate(-22.8956)"/>
</clipPath>
</defs>
</svg>
