<svg width="92" height="78" viewBox="0 0 92 78" fill="none" xmlns="http://www.w3.org/2000/svg">
<g clip-path="url(#clip0_118_28)">
<path d="M6.6102 33.3624C6.84293 33.2289 6.39899 32.6696 6.50074 32.4078C6.67676 31.9547 6.48731 31.6525 6.50418 31.199C6.51708 30.8516 6.5486 30.4682 6.7567 30.155C6.96571 29.8404 7.10366 29.2936 7.46974 29.139C7.90463 28.9553 7.90205 28.4049 8.35863 28.1917C8.71826 28.0236 9.05586 27.7542 9.39434 27.6113C9.8593 27.4149 10.0099 26.9415 10.4522 26.7356C10.9551 26.5015 11.4779 26.3024 11.9891 26.0865C12.8457 25.7247 13.6952 25.3282 14.5646 24.9988C14.948 24.8535 15.6245 24.9395 16.0503 24.9432C16.4335 24.9466 16.8238 24.7777 17.1681 24.7889C17.6453 24.8044 17.9732 25.0736 18.4403 25.0777C18.8284 25.0811 19.2668 25.0021 19.6785 25.0155C20.5106 25.0426 21.3414 24.5604 22.1388 24.6595C22.6033 24.7173 23.0327 24.618 23.4817 24.6326C24.0714 24.6518 24.6498 24.7771 25.2337 24.7823C25.7807 24.7871 26.4298 24.9385 26.9629 24.8781C27.4073 24.8278 27.7582 25.0614 28.2343 24.9528C28.415 24.9115 28.579 25.0555 28.7885 25.0285C29.1384 24.9834 29.4468 24.9902 29.7795 24.8642C30.2651 24.6802 30.9126 24.7024 31.4267 24.6689C31.7276 24.6493 31.8781 24.8382 32.1599 24.8597C32.5666 24.8908 32.9402 24.7019 33.3571 24.7195C33.7301 24.7352 34.1897 24.7174 34.5415 24.5688C35.495 24.1661 36.3103 24.1237 37.3126 24.0022C38.4407 23.8654 39.6358 24.3438 40.766 24.2595C41.8775 24.1764 43.0238 24.6231 44.0432 24.9882C44.5952 25.1859 45.2597 25.0605 45.8207 25.024C46.4506 24.983 47.0331 25.3132 47.6612 25.2872C48.0292 25.272 48.4219 25.4845 48.8176 25.5138C49.167 25.5397 49.7826 25.9021 50.0751 25.8644C50.569 25.8007 51.0268 25.962 51.5225 26.0077C51.7823 26.0317 52.9848 26.2205 53.1415 26.3645C53.8795 27.0424 54.8765 27.4375 55.6901 28.0524C56.4643 28.6379 57.622 29.1642 58.1892 29.9519C58.4233 30.2774 58.8342 30.2961 59.0462 30.5908C59.2963 30.938 59.8232 31.1661 60.2226 31.3092C60.9404 31.5663 61.5431 32.0026 62.1586 32.4933C63.3238 33.4227 65.0726 33.5556 66.5316 34.0781C66.9771 34.2377 67.4827 34.2183 67.8872 34.5065C68.1378 34.6848 68.8276 35.0599 69.1071 35.1349C69.8846 35.3436 70.6475 35.7876 71.4091 36.0851C72.4389 36.4872 73.4168 36.385 74.5144 36.2906C75.0661 36.2431 75.6867 36.4749 76.2298 36.5275C76.6813 36.571 77.0923 36.5867 77.5408 36.6567C78.534 36.8121 79.5738 36.7919 80.5342 37.0608C80.9639 37.1811 81.4631 37.129 81.9042 37.2527C82.7154 37.4798 83.6125 37.6558 84.4401 37.8099C84.9063 37.897 85.3544 37.9871 85.8047 38.163C85.9456 38.2181 87.8014 38.6012 87.2261 38.921C87.0616 39.0124 86.6821 39.0438 86.7391 39.2935C86.8758 39.8927 87.1647 40.3807 86.6633 40.93C86.4955 41.1139 85.9205 41.2776 86.0134 41.5938C86.2303 42.3313 84.9463 42.8626 84.3975 43.1181C83.9345 43.3338 83.6381 43.2103 83.1517 43.1041C82.4537 42.9522 81.7563 42.8059 81.0591 42.6695C80.322 42.5249 79.8386 41.8698 79.0285 41.8986C78.0933 41.932 77.2149 41.6823 76.3295 41.4577C75.8432 41.3342 75.3017 41.6032 74.8551 41.5403C74.3848 41.4738 73.7129 41.2976 73.2326 41.4073C72.8005 41.5059 72.462 41.1833 72.0142 41.342C71.6926 41.4561 70.9685 41.3956 70.5956 41.4408C69.6614 41.5542 68.686 41.6039 67.8103 41.9737C66.6798 42.4511 65.4937 42.5232 64.3472 43.0074C63.57 43.3356 64.1058 43.6191 64.2219 44.2755C64.2842 44.6265 63.2188 44.9137 62.935 45.0335C62.5666 45.1891 62.4496 45.7442 62.1926 46.0382C61.9602 46.3039 61.7061 46.6373 61.4092 46.8295C60.9842 47.1049 60.5539 47.5775 60.0297 47.6586C59.855 47.6854 59.8308 47.3351 59.7253 47.2468C59.1735 46.7851 57.123 47.6588 56.5059 47.8916C56.0361 48.0688 55.9051 48.5759 55.872 49.0173C55.8438 49.393 55.8078 50.3259 55.5145 50.5663C55.1649 50.8528 54.5717 50.9961 54.1552 51.172C53.7489 51.3436 53.3429 51.5151 52.9366 51.6867C52.405 51.9112 52.2681 52.3979 51.8095 52.5915C51.1418 52.8735 50.532 53.1606 49.9263 53.5221C49.3401 53.8717 48.7476 54.1706 48.1112 54.4394C47.2816 54.7898 47.0737 55.8784 46.3237 56.1952C44.5908 56.927 42.8055 57.395 41.112 58.1102C40.1872 58.5008 39.3263 58.485 38.3759 58.7019C37.2684 58.9546 36.5281 59.5933 35.3344 59.478C34.8879 59.4349 34.4605 59.2891 34.0046 59.2849C33.5202 59.2808 32.7119 59.3678 32.2922 59.055C32.0291 58.8589 31.3947 59.0424 31.0619 58.9233C30.7172 58.7999 30.2401 59.0767 29.8676 59.0702C28.9042 59.0538 27.9824 58.8245 27.0424 58.7939C26.58 58.7789 26.2424 58.885 25.8082 58.8464C25.3447 58.8052 24.8788 58.7366 24.4513 58.5697C23.6308 58.2491 22.9595 57.5817 22.1523 57.2211C21.1955 56.7937 20.9241 55.9112 20.2551 55.1628C19.9381 54.8082 19.5421 54.2654 19.1204 54.0215C18.8484 53.8642 18.1518 53.3649 17.9026 53.3207C17.2445 53.2034 16.7717 52.4263 16.0952 52.3443C15.6261 52.2876 15.2598 51.7769 14.98 51.4808C14.5749 51.052 13.8281 50.7784 13.3592 50.386C12.951 50.0444 12.2538 49.5072 12.0472 49.0179C11.9604 48.8124 11.8132 48.7755 11.6157 48.6917C11.3465 48.5776 11.3078 48.2852 11.1951 48.0433C10.9639 47.5476 10.5083 47.3727 10.1105 47.0398C9.77648 46.7603 9.27977 46.6014 8.98663 46.2912C8.67091 45.957 8.28552 45.5348 7.92525 45.2461C7.38258 44.8112 7.2112 44.1735 6.93506 43.5196C6.24203 41.8786 6.08557 40.4342 6.8128 38.71" stroke="black" stroke-linecap="round"/>
<path d="M7.36493 33.7585C7.68355 33.5758 6.86971 33.4933 6.7698 33.4697C6.3096 33.3614 6.40039 34.0613 6.25474 34.2592C6.09202 34.4803 5.8784 35.1538 5.89344 35.4126C5.90364 35.588 6.05111 35.7406 5.92333 35.9084C5.85226 36.0017 5.63285 36.1513 5.6475 36.279C5.68785 36.6309 5.37761 36.8689 5.4508 37.2041C5.5264 37.5503 5.39827 37.7485 5.29524 38.072C5.04054 38.8719 5.3352 38.9484 6.03603 38.6091C6.3418 38.4611 6.63857 38.154 6.8914 37.9302C7.09931 37.7461 7.1679 37.2989 7.3486 37.1969C7.92618 36.8711 8.20941 36.037 8.6397 35.5793C8.85245 35.353 9.27539 35.2728 9.40667 34.9615C9.58248 34.5447 9.19587 34.642 8.9733 34.4376C8.48253 33.9868 7.61368 34.1597 6.99107 33.9164" stroke="black" stroke-linecap="round"/>
<path d="M5.79494 36.9952C5.76067 36.8723 8.01247 35.7727 7.74866 35.8841C7.25444 36.0928 7.07041 36.7425 6.58284 36.9484C6.37233 37.0373 6.04213 37.1052 5.96944 37.3504C5.8938 37.6055 6.50559 37.2232 6.6067 37.256C6.73921 37.299 5.44544 38.0131 5.60393 37.9337C5.94886 37.7609 6.48606 36.9971 6.75519 36.6611C7.12338 36.2014 6.72417 36.8887 6.45821 37.001C6.1735 37.1213 6.19318 37.4537 5.97501 37.634C5.73109 37.8356 5.45471 37.957 5.28132 38.2129" stroke="black" stroke-linecap="round"/>
<path d="M11.5266 31.9503C11.7036 32.3694 12.0182 32.8622 12.5859 32.656C12.8973 32.5429 13.2533 32.6149 13.5406 32.413C14.1085 32.0138 14.3101 31.1303 14.0646 30.549C13.8727 30.0947 13.7359 30.2176 13.3941 29.9628C13.0463 29.7037 12.5701 30.0271 12.2316 30.1701C11.6542 30.414 11.7018 30.4725 11.6816 31.0155C11.6658 31.4405 11.723 31.8144 11.8896 32.2089" stroke="black" stroke-linecap="round"/>
<path d="M12.7932 31.7449C13.0075 32.2524 13.4169 30.9873 12.7956 31.2497C12.6035 31.3308 12.5807 31.4638 12.6689 31.6509C12.757 31.8377 13.1096 31.6928 13.0213 31.4838" stroke="black" stroke-linecap="round"/>
<path d="M45.0764 57.6189C45.1548 57.9001 44.8854 58.3703 44.9661 58.7396C45.0683 59.208 45.0297 59.6955 45.2191 60.1438C45.3584 60.4736 45.4047 60.9711 45.4834 61.3311C45.5556 61.6621 45.7247 62.142 45.6848 62.4762C45.6275 62.9553 45.1958 63.0761 44.7971 63.2445C44.3422 63.4366 43.8837 63.8027 43.6567 64.2195C43.5292 64.4537 42.9644 64.5805 42.7234 64.6823C42.2408 64.8861 41.7583 65.0899 41.2756 65.2937" stroke="black" stroke-linecap="round"/>
<path d="M45.7419 63.295C45.7566 63.5036 45.4771 63.5849 45.421 63.7803C45.3179 64.1394 45.0967 64.4556 44.996 64.8091C44.8713 65.2472 44.8665 65.7774 44.7947 66.2304C44.697 66.847 44.7722 66.913 44.6689 66.2211" stroke="black" stroke-linecap="round"/>
<path d="M46.0533 62.9387C45.8089 63.9285 47.1368 64.318 47.781 64.5697" stroke="black" stroke-linecap="round"/>
<path d="M41.9532 58.1509C41.4383 58.4041 41.1961 59.3871 41.1945 59.9077C41.1921 60.6917 40.9966 61.4342 41.0423 62.2201C41.0937 63.1066 40.0657 62.4739 39.7286 62.2379C39.4274 62.027 39.0458 62.2642 38.7466 61.978C38.4958 61.7383 38.3359 61.5736 38.0107 61.3898" stroke="black" stroke-linecap="round"/>
<path d="M40.6256 63.2079C40.053 63.4497 39.4009 63.3878 38.8175 63.6342C38.2746 63.8635 37.6629 63.9769 37.0889 63.9147C36.5341 63.8544 35.7807 64.13 35.2699 64.3457C34.5684 64.6419 33.8332 64.8399 33.1287 65.1375" stroke="black" stroke-linecap="round"/>
<path d="M40.7061 63.3986C40.8251 63.8252 39.812 64.4339 39.5877 64.7139C39.2788 65.0997 38.8885 65.5797 38.527 65.8925" stroke="black" stroke-linecap="round"/>
<path d="M22.7259 47.6125C23.3133 48.104 24.1269 48.376 24.8101 48.7054C25.6953 49.1324 26.877 48.8359 27.7781 49.188C28.272 49.381 28.7873 49.2374 29.319 49.3741C29.9166 49.5276 30.5563 49.7225 31.149 49.85C32.0549 50.0448 32.7066 50.6872 33.6818 50.6537C35.2928 50.5987 36.7448 51.3891 38.3679 50.8917C39.2287 50.6276 40.0476 50.3009 40.8868 49.9465C41.6318 49.6319 41.7274 49.1399 41.7795 48.4455" stroke="black" stroke-linecap="round"/>
<path d="M41.4974 47.7778C41.8049 48.2049 42.9824 48.0231 43.4498 48.0273C44.0483 48.0324 44.8915 47.7595 45.4577 47.5727C45.7862 47.4643 46.0916 47.5933 46.4069 47.4966C46.8209 47.3695 47.1932 47.1864 47.6161 47.0796C48.3326 46.8981 49.0938 46.8175 49.7869 46.5248C50.2245 46.34 50.6844 46.1807 51.1477 46.0876C51.749 45.9666 52.7096 45.778 53.3127 45.8225C53.8002 45.8588 54.3213 45.5417 54.8194 45.5485C55.3206 45.5552 56.2494 45.5941 56.7124 45.3986C57.532 45.0524 58.2339 44.8731 58.6171 44.0321C59.0347 43.1162 58.1195 42.4654 57.5131 42.0255C57.343 41.9019 57.1312 42.1138 56.9436 42.1037C56.6516 42.088 56.5031 41.9535 56.2048 42.0098C55.8235 42.0816 55.2437 41.9973 55.052 41.6035C54.7721 41.0296 53.9256 40.2079 53.3241 39.9729" stroke="black" stroke-linecap="round"/>
<path d="M51.503 40.8544C52.6275 40.3795 53.8319 40.3204 54.9515 39.8475C55.4045 39.6562 56.0754 39.515 56.3554 39.086C56.5162 38.8395 56.7879 38.5492 56.8467 38.2604C56.8855 38.07 57.0731 38.1265 57.1432 37.9604C57.3334 37.5094 57.7997 37.2311 58.1226 36.8472C58.4541 36.4534 58.8015 36.1729 58.9854 35.671C59.2184 35.0363 59.787 34.1094 60.1979 33.5604C60.4271 33.2538 60.6952 32.8735 60.6681 32.4875" stroke="black" stroke-linecap="round"/>
<path d="M35.2401 47.7227C36.0326 47.4401 36.3242 48.2795 36.9537 48.3479C37.565 48.4142 37.8976 48.5113 38.5213 48.2478C39.3914 47.8804 40.2719 47.6207 41.1576 47.2467C41.8885 46.938 42.0048 46.1934 42.6415 45.8396C43.121 45.5728 43.7438 45.0485 43.8477 44.4745C43.9844 43.7211 44.0999 43.5113 44.6082 42.9795C44.9923 42.5775 44.7108 41.9703 45.1448 41.5163C46.0904 40.5268 45.3638 38.8583 46.2243 37.8007C46.4411 37.5341 46.5471 37.3271 46.8653 37.1927C47.1746 37.0621 47.67 36.7554 47.862 36.4848C48.0361 36.2388 48.128 35.6367 48.1108 35.343C48.095 35.073 47.8623 34.8607 47.8727 34.5818C47.893 34.0375 47.5318 33.3645 47.3214 32.8663C47.0326 32.1825 46.4561 31.4726 46.332 30.7364C46.2409 30.1958 46.1366 29.7873 45.9221 29.2796C45.7258 28.8146 45.3633 28.5029 45.16 28.0216C45.0212 27.6928 44.911 27.3234 44.7292 27.017C44.5331 26.6866 44.1773 26.5148 44.0201 26.1425" stroke="black" stroke-linecap="round"/>
<path d="M51.5956 40.2533C52.2651 39.9705 52.6567 39.3919 53.1515 38.8655C53.8032 38.1724 54.1243 37.2204 53.7408 36.3124" stroke="black" stroke-linecap="round"/>
<path d="M51.7815 37.1398C52.7797 36.9709 53.8945 36.8167 53.6803 35.6073C53.64 35.3791 53.4727 35.0107 53.4995 34.7846C53.5576 34.299 52.8246 34.3616 52.5203 34.2427" stroke="black" stroke-linecap="round"/>
<path d="M51.7942 34.4368C52.0441 34.3313 52.5228 34.2368 52.6358 33.9689C52.7503 33.6974 52.7367 33.1147 52.6247 32.8497C52.3427 32.1819 51.7159 32.1258 51.9802 31.3234C52.0507 31.1089 51.9112 30.9144 52.0034 30.6954C52.0574 30.5676 52.1464 30.4774 52.1695 30.3442C52.24 29.9365 52.4244 29.9152 52.2262 29.446C52.0371 28.9981 51.9933 28.856 51.4719 28.753C51.1208 28.6837 50.5476 28.8936 50.2067 29.0375" stroke="black" stroke-linecap="round"/>
<path d="M49.5894 42.3369C49.7908 42.8139 49.9922 43.2908 50.1937 43.7678C50.4807 44.4474 51.2148 44.7662 51.5873 45.4274" stroke="black" stroke-linecap="round"/>
<path d="M34.5205 46.5653C35.6579 46.0849 36.9224 45.8882 38.0704 45.4033C38.3693 45.2771 38.5229 45.0472 38.7114 44.7954C38.9474 44.4801 39.3954 44.4588 39.6627 44.1624C39.9365 43.859 39.8769 43.4324 40.0259 43.0786C40.094 42.9177 40.248 42.8432 40.2886 42.6682C40.4893 41.802 42.4059 41.5189 42.0542 40.3487C41.9579 40.0283 42.0007 39.588 42.1379 39.3017C42.3206 38.9202 43.1078 38.4699 42.8876 37.9486C42.7432 37.6067 42.3505 36.9946 42.5072 36.623C42.6645 36.2503 43.0751 35.9326 42.8919 35.4988C42.7441 35.1488 42.376 34.6365 42.551 34.2815C42.653 34.0744 42.5291 33.8536 42.7861 33.7451C42.9896 33.6592 43.1934 33.5808 43.2228 33.3359C43.2458 33.1417 43.3502 33.0896 43.4174 32.9164C43.4697 32.782 43.4199 32.6709 43.3985 32.5373C43.3555 32.2673 43.5247 32.1027 43.5285 31.8579C43.5359 31.3672 42.6782 30.8924 42.4905 30.4479C42.3152 30.0329 42.2578 29.624 42.0825 29.2089C41.8502 28.659 40.9595 28.784 40.4867 28.9836" stroke="black" stroke-linecap="round"/>
<path d="M27.2592 26.3645C27.0611 26.8341 27.1508 27.3841 26.8646 27.8301C26.5121 28.3795 26.4517 28.9952 26.0924 29.555C25.7765 30.0473 25.2966 30.3879 24.8339 30.7359C24.4318 31.0385 24.2071 31.5479 23.8417 31.8793C23.4434 32.2406 23.3251 32.9633 22.9095 33.3471C22.5323 33.6955 22.2351 34.0675 22.1215 34.5791C22.0071 35.0942 21.7426 35.5154 21.7558 36.0824C21.7633 36.4035 21.2649 36.8434 21.1324 37.1575C20.9425 37.6076 20.9406 38.0962 20.8552 38.536C20.7717 38.966 20.6756 39.4014 20.6798 39.8215C20.685 40.3556 20.6455 41.0085 20.8384 41.503C20.9515 41.7931 20.976 42.1024 21.0985 42.3923C21.2217 42.6841 20.9699 42.8496 21.0463 43.0888C21.5475 44.6577 22.12 46.1778 22.7661 47.7077" stroke="black" stroke-linecap="round"/>
<path d="M29.8821 47.0629C30.2798 47.0574 30.6085 47.5909 30.986 47.4899C31.271 47.4136 31.635 47.1002 31.7842 46.8591C32.1232 46.3113 32.1912 45.4233 31.9459 44.8425" stroke="black" stroke-linecap="round"/>
<path d="M33.0235 44.3875C32.8987 44.74 33.2989 45.132 33.6262 45.2071C34.1097 45.3177 34.7953 44.8756 35.2193 44.6965C35.789 44.4559 35.9982 42.7147 35.2311 42.7807" stroke="black" stroke-linecap="round"/>
<path d="M35.133 42.8221C34.9985 42.3391 37.4038 42.3376 37.3501 41.7235C37.3096 41.2641 37.2322 40.7 36.9524 40.3115C36.8142 40.1195 37.0833 40.3026 37.2944 40.2857C37.4716 40.2716 37.7622 40.1823 37.9042 40.0594C38.3559 39.6685 37.9621 39.1336 37.786 38.7168C37.7127 38.5433 37.664 38.3783 37.489 38.2864C37.3126 38.1939 37.1557 38.4167 37.476 38.0733C38.1009 37.4032 38.4028 37.1699 38.0648 36.3697C38.0426 36.3172 38.0067 36.17 37.925 36.1602C37.8819 36.155 37.703 36.2824 37.7406 36.3005C37.9357 36.3946 38.6127 35.7971 38.7286 35.6335C38.9357 35.3414 38.8972 35.043 38.5678 34.8272C37.8688 34.3694 38.3738 34.1711 38.8231 33.5641C39.1576 33.1123 39.2599 32.5362 38.8041 32.1671C38.243 31.7129 37.558 31.9124 38.1286 31.0536C38.4879 30.5126 38.2748 30.3064 38.0348 29.7381C37.8204 29.2307 38.7272 28.7646 38.9255 28.2941C39.1499 27.7626 38.7767 27.4577 38.2659 27.6735C37.8232 27.8604 37.3805 28.0474 36.938 28.2343" stroke="black" stroke-linecap="round"/>
<path d="M28.8475 41.8797C29.1087 42.3556 29.8317 41.9137 30.1843 41.7648C30.8732 41.4739 31.4565 41.2333 31.3985 40.4027C31.3645 39.9163 30.9573 39.6624 31.4442 39.2657C32.0099 38.8046 32.2158 38.4553 32.3528 37.7267C32.4048 37.4485 32.098 37.0024 31.9933 36.7545C31.7878 36.268 32.7698 35.8708 33.1055 35.6978C33.7541 35.3636 33.8807 35.2098 33.6205 34.5936C33.4032 34.079 33.7149 33.9441 34.0871 33.5722C34.3981 33.2614 34.4048 33.1705 34.25 32.804C34.1167 32.4885 34.0814 32.1927 33.6897 32.2975C32.9264 32.5017 34.4249 30.6255 33.6581 30.8559C33.4174 30.9282 32.8585 30.6954 32.6674 30.5749C32.3021 30.3446 32.5172 29.7942 32.3833 29.4772C32.1219 28.8582 32.1232 28.4692 31.3947 28.7769" stroke="black" stroke-linecap="round"/>
</g>
<defs>
<clipPath id="clip0_118_28">
<rect width="77" height="51" fill="white" transform="translate(0.773682 30.3185) rotate(-22.8956)"/>
</clipPath>
</defs>
</svg>
