<svg width="79" height="103" viewBox="0 0 79 103" fill="none" xmlns="http://www.w3.org/2000/svg">
<path d="M17.5609 81.9599C17.8269 81.6935 18.3972 81.7568 18.7361 81.7606C19.3258 81.7675 19.8878 81.8912 20.4642 82.0042C21.0994 82.1278 21.7164 82.3034 22.2997 82.5881C22.7208 82.7942 23.0402 83.0202 23.4087 83.3087C24.1802 83.9126 24.6341 84.9202 25.1019 85.7607C25.7033 86.8401 26.5236 87.7423 27.514 88.4851C28.4892 89.2164 29.8929 89.5775 31.0949 89.6347C31.9142 89.6744 32.7436 89.6507 33.5623 89.6385C34.2283 89.6278 34.8912 89.6652 35.5573 89.6652C36.0727 89.6652 36.5873 89.637 37.1037 89.637C37.2823 89.637 37.4581 89.6652 37.6345 89.6652C37.6763 89.6652 37.8488 89.6599 37.7324 89.7233C37.3289 89.9439 36.9067 90.0912 36.4577 90.2179C35.9308 90.3668 35.3653 90.5072 34.8228 90.5813C34.5181 90.6233 34.2128 90.734 33.9114 90.8011C33.5283 90.8859 33.1292 90.8912 32.7472 90.979C32.1142 91.1256 31.4189 91.2004 30.7696 91.2004C30.0172 91.2004 29.2365 91.1599 28.4949 91.0362C26.5159 90.7065 24.3361 90.1866 23.4607 88.1599C23.2342 87.6347 23.2303 87.0568 23.0469 86.5217C22.9116 86.1271 22.6838 85.792 22.5225 85.4156C22.2438 84.7652 21.7346 84.2981 21.1861 83.879C20.9189 83.6744 20.6272 83.5164 20.3347 83.353C20.0233 83.1782 19.6751 82.9759 19.3396 82.8553C18.746 82.6416 18.2283 82.2477 17.6178 82.0736" stroke="#2E3192" stroke-linecap="round"/>
<path d="M28.1664 85.4859C28.1664 85.2454 29.0306 85.0202 29.2215 84.9454C29.8373 84.7034 30.4987 84.5408 31.1391 84.3782C31.8155 84.2065 32.5047 84.0859 33.1816 83.9088C33.4868 83.8294 33.8001 83.7622 34.1088 83.6958C34.4687 83.6187 34.843 83.6416 35.2051 83.5805C36.2936 83.3958 37.3251 83.4989 38.4022 83.6782C38.6231 83.7157 38.8759 83.7798 39.0988 83.7798C39.1907 83.7798 39.0807 83.6889 39.0546 83.666C38.9178 83.5462 38.6668 83.4637 38.5017 83.3828C38.1892 83.2309 37.8679 83.1286 37.5429 83.0118C36.973 82.8072 36.3572 82.6263 35.7611 82.5286C34.591 82.337 33.3354 82.176 32.1722 82.5225C31.0948 82.8431 30.0394 83.3202 29.2215 84.105C28.8604 84.4515 28.3321 84.8179 28.1664 85.3149" stroke="#FF0000" stroke-linecap="round"/>
<path d="M26.4163 86.2339L26.457 86.153" stroke="black" stroke-linecap="round"/>
<path d="M26.5588 85.9691C26.5874 85.9347 26.6023 85.8881 26.62 85.8469" stroke="black" stroke-linecap="round"/>
<path d="M26.9052 85.4599C27.0568 85.3088 27.1755 85.1187 27.3238 84.9614C27.4409 84.837 27.5227 84.7019 27.6271 84.5683C27.7587 84.3996 27.9183 84.2515 28.0549 84.0866C28.5381 83.5011 29.1762 82.9622 29.8349 82.5813C31.3705 81.6935 33.0307 80.995 34.677 80.3431C35.6601 79.9538 36.6691 79.6332 37.6701 79.2996C38.4382 79.0439 39.2072 78.7217 40.0149 78.6164C40.3058 78.5782 40.5957 78.5431 40.8873 78.5095C41.1729 78.4774 41.4921 78.4561 41.7654 78.3721C41.8728 78.3385 41.9831 78.3591 42.0936 78.3469C42.2114 78.3339 42.3247 78.292 42.4421 78.2744C42.6812 78.2385 42.9173 78.2087 43.1596 78.2087" stroke="#FBB03B" stroke-linecap="round"/>
<path d="M43.5059 78.1881C43.6316 78.1881 43.7637 78.1774 43.8884 78.1637C44.005 78.1507 43.8229 78.0782 43.7956 78.0706C43.6714 78.0355 43.5386 78.05 43.4086 78.0454C43.1183 78.0355 42.8351 77.9507 42.5463 77.9187C42.0712 77.866 41.6017 77.7698 41.125 77.724C40.5113 77.666 39.9026 77.6225 39.2873 77.5935C38.5718 77.5591 37.8299 77.6889 37.1169 77.7446C36.5792 77.7866 36.0668 77.879 35.5416 77.9889C35.0556 78.0912 34.57 78.1927 34.1011 78.3607C33.031 78.7423 31.9751 79.1294 31.0163 79.7553C30.7562 79.9255 30.4943 80.0897 30.2457 80.2759C29.9931 80.4652 29.781 80.6721 29.552 80.8874C29.0455 81.3629 28.5649 81.7874 28.2462 82.4103C28.1192 82.6584 27.9333 82.8874 27.8331 83.1484C27.7554 83.35 27.6618 83.5454 27.5875 83.7492C27.441 84.15 27.2694 84.5492 27.0987 84.9408C26.9784 85.2164 26.82 85.5103 26.7332 85.7958C26.7094 85.8744 26.6587 86.0927 26.5793 86.1324" stroke="#FBB03B" stroke-linecap="round"/>
<path d="M25.3571 84.6049C25.3729 84.4454 25.4385 84.2912 25.4385 84.127C25.4385 83.9484 25.4601 83.7728 25.4793 83.595C25.5239 83.182 25.6181 82.7599 25.7124 82.3553C25.8264 81.8652 26.0048 81.3996 26.1413 80.9164C26.3061 80.3331 26.5297 79.737 26.8032 79.198C26.9871 78.8354 27.1917 78.4996 27.3929 78.1476C27.5913 77.8003 27.9499 77.5286 28.2132 77.2308C28.3965 77.024 28.6106 76.8293 28.8074 76.6324C28.9166 76.5232 29.0534 76.3942 29.1355 76.2637C29.2734 76.0446 29.5015 75.8843 29.6798 75.6988C29.7516 75.624 29.8069 75.5522 29.8892 75.4881C29.9531 75.4385 29.9027 75.4377 29.845 75.4499C29.7155 75.4774 29.5836 75.4835 29.4523 75.4995C29.0633 75.5484 28.6654 75.6614 28.3264 75.8614C27.5036 76.3484 26.7787 76.9904 26.1062 77.6629C25.7471 78.0225 25.4542 78.4736 25.1738 78.8942C24.986 79.1759 24.7471 79.482 24.6532 79.8133C24.6012 79.9965 24.6026 80.1881 24.5785 80.3744C24.5264 80.7782 24.5408 81.2278 24.5638 81.6309C24.5922 82.1263 24.7387 82.5614 24.8682 83.0362" stroke="#006837" stroke-linecap="round"/>
<path d="M25.0312 83.4438C25.0725 83.8148 25.3125 84.15 25.4182 84.5026" stroke="#006837" stroke-linecap="round"/>
<path d="M24.2775 83.5248C24.2129 83.4523 24.1904 83.3614 24.1553 83.2714C24.0832 83.0874 23.9952 82.9118 23.92 82.7294C23.6486 82.0721 23.4695 81.4027 23.4413 80.6836C23.4191 80.1187 23.4337 79.4767 23.5805 78.924C23.6265 78.7508 23.6643 78.5752 23.7276 78.408C23.7439 78.3645 23.762 78.3156 23.7752 78.2721C23.7768 78.266 23.6395 78.395 23.6212 78.4126C23.2506 78.7584 22.9598 79.1133 22.8619 79.624C22.8096 79.8973 22.7922 80.1607 22.811 80.4378C22.8338 80.7737 22.8695 81.1485 22.9762 81.4691C23.0839 81.792 23.1845 82.1271 23.3655 82.4187C23.4923 82.6225 23.6238 82.8248 23.748 83.0294C23.8294 83.1637 23.9422 83.2782 24.0331 83.4072C24.0617 83.4477 24.1139 83.5042 24.1553 83.5248" stroke="#2E3192" stroke-linecap="round"/>
<path d="M14.8919 65.3965C14.5689 68.3042 13.6985 71.1393 13.2176 74.0248C12.4744 78.4836 11.5181 82.9462 10.3609 87.3119C10.0688 88.4142 9.96427 89.547 9.71603 90.6561C9.52588 91.5058 9.30641 92.3264 9.20336 93.1943C9.13771 93.7478 8.97969 94.3134 8.9429 94.8646C8.91167 95.3333 8.73282 95.7714 8.71557 96.2371C8.65488 97.8745 8.08427 99.46 8.19465 101.116" stroke="black" stroke-width="2" stroke-linecap="round"/>
<path d="M14.892 65.2477C14.9951 65.2362 15.1118 65.1652 15.1896 65.0988C15.5083 64.8278 16.0723 64.8813 16.4588 64.8347C18.0369 64.6439 19.6216 64.5782 21.2131 64.5782C25.6765 64.5782 30.1246 64.0423 34.5788 63.8423C38.2989 63.6751 42.0197 63.55 45.7327 63.2965C47.9479 63.1454 50.1747 62.9408 52.3968 62.9408" stroke="black" stroke-width="2" stroke-linecap="round"/>
<path d="M51.6525 63.1644C51.3617 63.2003 51.138 65.4232 51.0739 65.7354C50.6609 67.753 50.6976 69.8805 50.5945 71.9286C50.5388 73.0354 50.5533 74.137 50.5327 75.2438C50.5121 76.3103 50.3212 77.3622 50.3136 78.4271C50.2938 81.066 50.1991 83.7034 50.2434 86.3446C50.2869 89.0179 50.5548 91.6866 50.6151 94.3607C50.6403 95.4729 50.8869 96.6912 50.7556 97.8042C50.6373 98.8126 50.7602 99.8034 50.7602 100.818" stroke="black" stroke-width="2" stroke-linecap="round"/>
<path d="M52.0991 62.9408C53.9075 62.9408 55.6709 63.037 57.461 63.4248C59.3541 63.8347 61.2404 64.3255 63.1419 64.6897C64.9587 65.0377 66.7488 65.6767 68.5694 65.9752C68.9663 66.04 69.3327 66.2149 69.7358 66.2149C69.9343 66.2149 70.0892 66.2057 70.2564 66.2897" stroke="black" stroke-width="2" stroke-linecap="round"/>
<path d="M76.135 101.042C76.135 97.0447 74.7289 93.2134 73.8656 89.3622C73.4625 87.563 73.061 85.7317 72.9358 83.8843C72.8159 82.124 72.1182 80.408 72.0427 78.6591C71.8679 74.6385 70.4801 70.7606 70.4801 66.7362" stroke="black" stroke-width="2" stroke-linecap="round"/>
<path d="M50.4625 101.785C50.7113 101.758 50.9983 101.561 51.2556 101.504C52.4609 101.24 53.6625 101.229 54.8854 101.153C57.9449 100.964 61.0159 100.803 64.0801 100.818C66.5549 100.83 69.0518 100.906 71.5259 100.814C73.1618 100.753 74.7953 100.893 76.4328 100.893" stroke="black" stroke-width="2" stroke-linecap="round"/>
<path d="M7.15282 101.339C10.6868 101.339 14.2175 101.19 17.7569 101.19C22.7316 101.19 27.7017 101 32.677 101.041C34.7084 101.058 36.7253 101.328 38.7542 101.339C40.575 101.349 42.3924 101.265 44.2113 101.265C46.0538 101.265 47.8795 101.413 49.7182 101.413" stroke="black" stroke-width="2" stroke-linecap="round"/>
<path d="M11.0224 96.3531C12.6931 96.3531 14.3735 96.063 16.0495 96.0554C19.0493 96.0416 22.0457 96.2043 25.0454 96.2043C28.0049 96.2043 30.9648 96.2791 33.9255 96.2791C35.3485 96.2791 36.7621 96.1302 38.1837 96.1302" stroke="black" stroke-width="2" stroke-linecap="round"/>
<path d="M29.8493 93.8233C29.9021 94.4577 29.8493 95.1141 29.8493 95.7577" stroke="black" stroke-width="2" stroke-linecap="round"/>
<path d="M15.7106 94.121C15.3839 94.4882 15.4482 95.2531 15.4873 95.6836" stroke="black" stroke-width="2" stroke-linecap="round"/>
<path d="M21.6637 72.0195C22.2668 72.0195 22.8414 71.9225 23.4373 71.8256C25.4144 71.5019 27.389 71.2988 29.3863 71.1637C33.9106 70.8576 38.4052 70.4568 42.9463 70.4568" stroke="black" stroke-width="2" stroke-linecap="round"/>
<path d="M34.7606 71.424C34.3669 71.9164 34.3885 73.0683 34.3885 73.6568" stroke="black" stroke-width="2" stroke-linecap="round"/>
<path d="M32.2306 74.8469C33.3324 74.3286 34.8724 74.4637 36.0629 74.3309C38.1204 74.0996 40.2097 74.1775 42.2766 74.1775" stroke="black" stroke-width="2" stroke-linecap="round"/>
<path d="M38.8535 74.5499V74.624" stroke="black" stroke-width="2" stroke-linecap="round"/>
<path d="M38.7791 75.2935C38.7791 75.4828 38.741 75.6332 38.7047 75.8148" stroke="black" stroke-width="2" stroke-linecap="round"/>
<path d="M32.4851 49.0719C32.4149 49.7035 31.3807 50.1907 30.8916 50.4811C29.8272 51.113 28.6313 51.5218 27.3869 51.5218C27.2779 51.5218 26.9934 51.5251 26.9106 51.4424C26.8685 51.4002 27.9688 51.3176 28.0448 51.3176" stroke="black" stroke-width="2" stroke-linecap="round"/>
<path d="M26.8708 52.1342C28.3106 52.1342 29.6684 52.9415 30.4321 54.1417C30.6355 54.4614 30.6503 54.4245 30.9879 54.4933C31.8232 54.6638 32.5694 55.0257 33.174 55.6303C33.8052 56.2616 34.1843 57.0316 34.5038 57.8533C34.8546 58.7555 35.2466 59.7231 35.2892 60.7029C35.3298 61.6346 34.6275 62.5736 33.9623 63.1553C33.6258 63.45 33.208 63.6607 32.8933 63.9752" stroke="black" stroke-width="2" stroke-linecap="round"/>
<path d="M38.2013 56.1662C38.2436 56.5465 38.577 57.0255 38.7259 57.3713C38.9632 57.9225 39.2586 58.4419 39.4999 58.9903C39.8787 59.8511 40.348 60.7619 40.997 61.4515C41.2776 61.7495 41.6068 61.9484 41.9271 62.1889" stroke="black" stroke-width="2" stroke-linecap="round"/>
<path d="M39.0179 52.9508C39.2715 53.1762 39.6428 53.3691 39.9252 53.5632C40.6032 54.0294 41.1585 54.5175 42.0178 54.6095C42.8391 54.6975 43.5732 54.7023 44.3769 54.5301C45.4295 54.3046 46.4523 54.3201 47.5242 54.3912C48.6638 54.4667 49.877 54.6608 50.9831 54.9413C51.4212 55.0523 52.2159 55.1629 52.4663 55.6076C52.6877 56.0017 52.2228 56.6472 52.0953 57.0452C51.9854 57.3869 51.8793 57.6691 51.8793 58.0291C51.8793 58.432 51.7266 58.7813 51.7266 59.1774C51.7266 59.5786 51.4266 59.9738 51.264 60.3258C51.1632 60.5449 51.0037 60.768 50.8335 60.9382C50.6609 61.1106 50.5441 61.3946 50.348 61.5252" stroke="black" stroke-width="2" stroke-linecap="round"/>
<path d="M50.5014 54.7882C50.6861 54.7677 50.8571 54.5282 50.9808 54.4139C51.2304 54.1828 51.522 53.9858 51.8029 53.7958C52.3587 53.4203 52.9991 53.1764 53.5922 52.8714C54.1045 52.6079 53.2106 52.1646 53.0022 52.0605C52.4838 51.8012 51.9487 51.5441 51.4205 51.3176" stroke="black" stroke-width="2" stroke-linecap="round"/>
<path d="M34.1183 50.2969C34.1593 50.6251 34.997 51.0625 35.2269 51.1986C36.2752 51.8189 37.4743 52.2283 38.6976 51.9046C39.2799 51.7504 39.8246 51.5709 40.4243 51.4821C40.7773 51.4298 41.355 51.358 41.6208 51.6238" stroke="black" stroke-width="2" stroke-linecap="round"/>
<path d="M51.7266 50.9093C51.177 50.9642 50.6625 51.4984 50.1754 51.7231C50.0159 51.7968 49.935 51.8953 49.7617 51.7486C49.3629 51.4114 48.9517 51.1167 48.4968 50.8526C46.756 49.8418 44.8197 48.6173 42.7324 48.6636C42.25 48.6744 41.7986 48.913 41.3402 49.0209C40.8655 49.1326 40.4411 49.2755 39.9876 49.4519C39.4527 49.6599 38.7715 49.6984 38.2127 49.7978C37.7461 49.8807 37.2475 49.8375 36.7723 49.8375" stroke="black" stroke-width="2" stroke-linecap="round"/>
<path d="M32.9156 35.7612C32.8413 36.4307 32.5981 37.1052 32.4526 37.7659C32.2833 38.5338 32.0843 39.2913 31.9209 40.0603C31.6314 41.4225 31.2691 42.75 31.2691 44.1574C31.2691 44.6355 31.2349 45.1091 31.2349 45.5887C31.2349 45.8235 31.1684 46.131 31.4674 46.1204C31.633 46.1144 31.7699 45.9831 31.94 45.9831C32.1766 45.9831 32.3828 46.0694 32.6146 46.086C32.7243 46.0939 33.194 46.2491 33.2568 46.3433C33.3923 46.5465 33.6548 46.7606 33.8342 46.9359C34.471 47.5586 35.1248 48.1688 35.736 48.8035C36.0794 49.1601 36.4383 49.5266 36.7994 49.8516C37.118 50.1384 36.7232 50.5898 36.7232 50.9569" stroke="black" stroke-width="2" stroke-linecap="round"/>
<path d="M39.5703 49.3448C39.404 49.16 39.2708 48.926 39.111 48.7311C38.8673 48.4339 38.5919 48.1606 38.3202 47.8888C37.9415 47.5102 37.554 47.1102 37.2053 46.7034C37.0723 46.5483 36.9942 46.3306 36.8605 46.1889C36.7556 46.0779 36.6221 45.9328 36.5688 45.7945C36.1679 44.7521 36.8755 43.6311 37.4245 42.7969C38.0341 41.8706 38.6986 41.0298 39.435 40.2014C39.7406 39.8575 40.1063 39.5022 40.3592 39.1227" stroke="black" stroke-width="2" stroke-linecap="round"/>
<path d="M38.6784 42.3128C38.6784 42.3953 38.6425 42.4738 38.6269 42.5549C38.5721 42.8404 38.5875 43.1582 38.5736 43.4505C38.5414 44.1267 38.5372 44.804 38.505 45.48C38.4659 46.2993 38.5069 47.1172 38.5069 47.9383" stroke="black" stroke-width="2" stroke-linecap="round"/>
<path d="M44.5783 40.8721C44.5783 41.0949 44.5346 41.3001 44.4754 41.5124C44.397 41.794 44.4321 42.1012 44.3802 42.3891C44.3222 42.7098 44.2047 43.0222 44.1667 43.3457C44.0817 44.0682 43.8061 44.8073 43.6026 45.5048C43.5887 45.5524 43.4505 45.9917 43.5341 46.0155C43.5944 46.0328 43.7462 46.0634 43.7818 46.1203C43.8426 46.2176 43.965 46.2615 44.0638 46.3109C44.2125 46.3852 44.3045 46.5578 44.4221 46.6692C44.6057 46.8432 44.8564 46.9703 45.009 47.1666C45.1473 47.3444 45.3268 47.4901 45.4854 47.6486C45.8401 48.0033 46.2793 48.3905 46.5602 48.8073C46.7027 49.0187 46.9207 49.2173 47.1015 49.398C47.2415 49.5381 47.3183 49.7178 47.4597 49.8593" stroke="black" stroke-width="2" stroke-linecap="round"/>
<path d="M38.3011 47.4237C38.5614 47.4237 38.7703 47.509 39.0176 47.5914C39.4205 47.7257 39.8379 47.8262 40.2068 48.0393C40.4713 48.1921 40.766 48.2877 41.0338 48.4337C41.2077 48.5286 41.4543 48.5531 41.5941 48.6929" stroke="black" stroke-width="2" stroke-linecap="round"/>
<path d="M31.4285 39.6142C31.3383 39.6041 31.2547 39.5118 31.1718 39.4742C30.6273 39.2267 30.097 38.8731 29.5154 38.7218C29.2104 38.6425 28.8584 38.5118 28.5414 38.5118C28.1404 38.5118 27.9578 38.8744 27.6665 39.1126C26.2445 40.2761 24.6036 41.3157 22.9189 42.0609C22.3745 42.3017 21.8469 42.5652 21.2974 42.7899C21.1207 42.8623 20.7916 43.0804 20.5917 43.0233C20.5368 43.0076 20.4051 41.8825 20.4051 41.7664C20.4051 41.3263 20.1541 41.6035 19.9064 41.6585C19.7583 41.6914 19.3168 41.6922 19.2094 41.778C18.9944 41.9501 19.0928 40.9046 19.0928 40.769C19.0928 40.5402 18.7683 40.7555 18.5387 40.769C17.9846 40.8016 17.4371 40.874 16.8619 40.874C16.6719 40.874 16.1103 40.9847 16.3136 40.7136C16.7262 40.1634 17.4148 39.8189 18.0021 39.4946C18.7696 39.0708 19.5703 38.7302 20.3847 38.4098C22.3227 37.6473 24.3315 37.1004 26.2084 36.176C26.9604 35.8055 27.6926 35.4121 28.4335 35.0211C28.6487 34.9075 28.9555 34.7965 29.0663 34.5749" stroke="black" stroke-width="2" stroke-linecap="round"/>
<path d="M28.9334 34.8119C28.8071 34.7961 28.6139 34.6671 28.4812 34.63C28.1613 34.5404 27.8578 34.3831 27.5691 34.2206C26.6111 33.6818 25.6502 33.1545 24.7698 32.49C23.7673 31.7334 22.8561 30.7894 22.2383 29.6881C21.8238 28.9493 21.7934 28.2182 21.6218 27.4244C21.5948 27.2995 21.6471 27.1544 21.5359 27.0581C21.2703 26.8279 21.0096 26.5942 20.7502 26.3532C20.5078 26.1282 20.3022 25.8607 20.0932 25.6054C19.9058 25.3762 20.3968 25.5396 20.5151 25.5573C20.7644 25.5947 21.0144 25.6332 21.263 25.6736C21.3742 25.6916 21.5156 25.7847 21.6293 25.7595C21.6998 25.7438 21.4674 25.4906 21.4298 25.4664C21.2423 25.3459 21.2064 25.1065 21.066 24.946C20.9045 24.7615 20.8019 24.5501 20.7198 24.3219C20.5222 23.773 20.172 23.2574 20.0301 22.6898C20.0035 22.5836 19.968 22.4617 19.9745 22.3512C19.9801 22.2559 20.2269 22.3234 20.2928 22.2956C20.361 22.2669 20.5608 22.2905 20.6011 22.2502C20.669 22.1822 20.0945 21.9105 20.0452 21.8863C19.5514 21.6441 19.0605 21.4597 18.5496 21.2598C17.522 20.8577 16.4364 20.6109 15.3839 20.2821C15.1064 20.1953 14.7993 20.1163 14.5375 20.0041C14.3667 19.9309 14.2063 19.8056 14.0423 19.7161C13.9932 19.6893 13.8479 19.4799 13.9741 19.5114C14.1162 19.547 14.546 19.7415 14.1989 19.4761C13.5111 18.9501 12.6275 18.6652 11.8392 18.3291C11.3812 18.1338 10.8973 17.9766 10.4724 17.7152C10.3626 17.6475 10.085 17.5527 10.3587 17.5787C10.6314 17.6047 10.9062 17.6721 11.1722 17.7353C11.2376 17.7509 11.5802 17.8024 11.3516 17.7328C10.8592 17.583 10.3777 17.388 9.9242 17.1568C9.6897 17.0373 9.34313 16.8941 9.15107 16.7121C9.04343 16.6101 8.66435 16.4523 8.61542 16.3483C8.55733 16.2247 9.31779 16.052 8.87824 16.03C8.59572 16.0159 8.31969 15.8887 8.03435 15.8506C7.55603 15.7869 6.86419 15.6309 6.46793 15.3478C5.89465 14.9384 5.23526 14.6558 4.72213 14.1427C4.49739 13.918 4.42457 13.748 4.83075 13.8117C5.18679 13.8676 5.39602 14.0638 5.69488 14.2211C5.81328 14.2833 6.28129 14.4992 6.25572 14.4736C5.69663 13.9146 4.90297 13.6138 4.28503 13.1194" stroke="black" stroke-width="2" stroke-linecap="round"/>
<path d="M3.64847 12.5737C3.61381 12.4177 3.31686 12.1358 3.22656 11.9977C3.13076 11.8512 3.01503 11.7298 2.92083 11.5833C2.80961 11.4104 2.47297 10.6905 2.58228 10.55C2.7474 10.3377 3.27411 10.4999 3.44381 10.6435C3.55404 10.7367 3.6761 10.8088 3.79496 10.8911C3.94313 10.9937 4.05626 11.1736 4.21442 11.2549C4.52099 11.4126 4.81756 11.5394 5.11382 11.7298C5.19954 11.785 5.32595 11.8686 5.37656 11.9572C5.39206 11.9843 5.45924 11.9982 5.48519 11.9775C5.54053 11.9332 5.29305 11.7171 5.27549 11.6995C4.56328 10.9874 3.77854 10.3369 3.17099 9.52678C2.7864 9.01403 2.41121 8.5122 2.05679 7.98059" stroke="black" stroke-width="2" stroke-linecap="round"/>
<path d="M1.64739 7.29848C1.56227 7.20268 1.45563 6.51993 1.62464 6.48245C2.07021 6.38336 2.46594 6.88665 2.78426 7.08115C2.84991 7.1213 3.40022 7.67543 3.37296 7.49802C3.32014 7.15466 3.05655 6.74565 2.87526 6.45718C2.58213 5.99084 2.33426 5.50046 2.05663 5.02466" stroke="black" stroke-width="2" stroke-linecap="round"/>
<path d="M1.64739 4.16057C1.41899 3.7037 0.741967 2.1927 1.46548 1.84125C1.86113 1.64904 2.10212 1.99942 2.40029 2.16209C2.53678 2.23652 2.60938 2.46919 2.69342 2.59415C2.97548 3.01347 3.26961 3.42645 3.55747 3.84217" stroke="black" stroke-width="2" stroke-linecap="round"/>
<path d="M4.23961 4.79724C4.35136 4.91602 4.41396 5.07518 4.51243 5.20656" stroke="black" stroke-width="2" stroke-linecap="round"/>
<path d="M4.96716 5.84315C5.06403 5.9507 5.15205 6.08589 5.22991 6.20696C5.41686 6.49773 5.66961 6.73208 5.85144 7.023C6.13114 7.47055 6.51106 7.91872 6.87717 8.29888C7.61908 9.06934 8.1716 9.89331 9.08534 10.4818C9.39511 10.6813 9.73359 10.8401 10.0757 10.977C10.1108 10.9909 10.424 11.1345 10.3587 11.0073C10.0308 10.3687 9.3642 9.80781 8.89587 9.27415C8.22778 8.51285 7.46495 7.69704 6.99847 6.79307C6.53129 5.88796 6.20205 4.95803 5.9222 3.97864" stroke="black" stroke-width="2" stroke-linecap="round"/>
<path d="M5.9222 3.06905C6.32778 2.70859 6.61595 2.86386 6.91763 3.26615C7.78755 4.426 8.75412 5.63539 9.40366 6.93463C9.58282 7.29288 9.85198 7.60097 10.0202 7.9654C10.2066 8.36929 10.4556 8.78563 10.6872 9.168C11.0683 9.79739 11.5323 10.3917 11.9731 10.9795C12.3543 11.4876 12.1856 10.4116 12.1045 10.1836C11.8924 9.587 11.5721 9.01723 11.3112 8.44036C10.886 7.50044 10.4862 6.32936 10.4698 5.2873C10.4656 5.01363 10.5592 4.84783 10.6619 4.60516C10.7386 4.42379 11.1398 4.35279 11.291 4.45867C11.7803 4.80119 11.8746 5.37318 12.0615 5.9341" stroke="black" stroke-width="2" stroke-linecap="round"/>
<path d="M12.5618 7.02563C12.7415 7.36877 12.8889 7.72525 13.0621 8.07159" stroke="black" stroke-width="2" stroke-linecap="round"/>
<path d="M13.5169 8.98112C13.5536 9.31173 13.8787 9.70387 14.0399 9.9841C14.317 10.4662 14.7517 10.9499 14.9292 11.4823C15.0084 11.72 15.0206 11.4649 15.0151 11.3636C14.9983 11.0526 14.9473 10.7146 14.8786 10.411C14.7123 9.67661 14.4599 8.95562 14.2647 8.22821C14.0741 7.51791 13.8588 6.66134 14.4618 6.08065C15.0208 5.54241 15.6118 6.82439 15.7907 7.18729C16.2449 8.10829 16.6454 9.06035 17.0413 10.0043C17.2387 10.4752 17.5095 10.9242 17.7664 11.3661C18.0371 11.8317 18.2205 12.3701 18.5875 12.7759C19.1126 13.3562 19.518 14.002 20.0806 14.5646C20.678 15.162 21.2609 15.7434 21.9553 16.232C22.2286 16.4244 22.5367 16.5583 22.8042 16.7576C22.9247 16.8473 23.0733 16.9654 23.2034 17.0304" stroke="black" stroke-width="2" stroke-linecap="round"/>
<path d="M23.8855 17.8036C23.7414 17.4973 23.5372 17.2282 23.3878 16.9218C23.1929 16.5221 23.0697 16.1026 22.9077 15.6889C22.8502 15.5418 22.6737 15.2065 22.971 15.3579C23.67 15.714 24.3394 16.0875 25.0781 16.3736C25.6705 16.603 26.271 16.8944 26.8238 17.1921C27.3814 17.4924 27.9955 17.6834 28.5342 18.0309C28.7918 18.1971 29.0795 18.3595 29.3149 18.5539C29.3688 18.5985 29.7072 18.8151 29.704 18.7965C29.6387 18.4046 29.3062 18.0572 29.0901 17.7429C28.8242 17.3561 28.5342 16.9779 28.2614 16.5959C28.1925 16.4995 28.0471 16.2805 28.231 16.4645C28.6289 16.8624 29.2156 17.1159 29.7394 17.2856C31.1882 17.755 32.6197 18.3506 33.9814 19.0314" stroke="black" stroke-width="2" stroke-linecap="round"/>
<path d="M34.7999 19.3498C36.2572 19.8182 37.8086 20.4599 39.0292 21.419C39.4118 21.7196 39.8188 22.1209 40.0752 22.5432C40.1804 22.7165 40.1487 23.1542 40.1687 23.3542C40.2121 23.7889 40.2921 24.2187 40.3481 24.6529C40.438 25.35 40.6595 26.0558 40.8584 26.7271C40.9482 27.0299 41.007 27.4313 41.1894 27.6947C41.4152 28.0209 41.5428 28.4579 41.7477 28.8089C42.1941 29.5732 42.6618 30.2195 43.251 30.8755C43.462 31.1106 43.6632 31.3462 43.8043 31.6284" stroke="black" stroke-width="2" stroke-linecap="round"/>
<path d="M41.7834 28.6433C42.8083 28.6433 43.6921 29.2954 44.5896 29.6993C44.8331 29.8087 45.0709 29.9715 45.3206 30.0606C45.4533 30.108 45.5568 30.215 45.6943 30.215" stroke="black" stroke-width="2" stroke-linecap="round"/>
<path d="M51.851 33.114C52.2609 32.7499 52.9067 32.48 53.4151 32.3187C54.3487 32.022 55.2953 31.6874 56.2655 31.5311C57.3029 31.3639 58.2877 30.9805 59.3091 30.7434C60.2663 30.521 61.2083 30.2322 62.1732 30.0365C63.1877 29.8306 64.1686 29.7598 65.1984 29.7598C65.8091 29.7598 66.4205 29.8636 67.0312 29.8636C67.3503 29.8636 67.7396 29.7864 68.0167 29.6177C68.1679 29.5255 68.2892 29.3641 68.4144 29.2411C68.6068 29.0521 68.8213 28.9059 69.0289 28.7378C69.4663 28.3843 70.1076 28.1879 70.6312 28.0117C71.4556 27.7343 72.319 27.5498 73.1862 27.4795C73.9411 27.4184 74.6969 27.3766 75.4511 27.3239C75.9129 27.2917 76.406 27.3655 76.8595 27.2701C77.1442 27.2103 77.7045 27.2165 77.4892 26.786C77.2244 26.2556 76.5099 26.2279 75.9869 26.1463C75.5404 26.0765 75.0877 26.0533 74.6427 25.9753C74.3007 25.9155 73.8931 25.8613 73.5511 25.9139C72.7579 26.0359 71.9289 25.9776 71.1289 26.0618C71.0282 26.0724 70.7327 26.1319 70.8251 26.0906C71.5495 25.7687 72.2633 25.5484 73.0518 25.4374C74.1236 25.2866 75.2045 25.1089 76.245 24.7997C76.4732 24.7316 77.5267 24.6136 76.8518 24.2694C76.2747 23.9752 75.5114 23.8949 74.8786 23.9852C74.3854 24.0556 73.8885 24.1822 73.3938 24.2272C72.9648 24.2662 72.5389 24.2807 72.1144 24.3655" stroke="black" stroke-width="2" stroke-linecap="round"/>
<path d="M71.2847 24.5037C71.2037 24.5118 70.3587 24.7225 70.3587 24.692C70.3587 24.6299 70.8259 24.4109 70.8831 24.3789C71.2511 24.1725 71.6465 24.0359 72.0411 23.8928C72.6442 23.6744 73.2534 23.5447 73.8625 23.3607C74.277 23.2357 74.6785 23.0399 75.077 22.8708C75.2343 22.8042 76.4648 22.3198 75.9373 22.0486C75.4175 21.7811 74.9045 21.9808 74.3625 22.0486C73.9732 22.0973 73.5824 22.1563 73.1976 22.237C72.7442 22.3321 72.2595 22.3697 71.8152 22.502C70.8442 22.7911 69.8175 23.0779 68.8969 23.5029C68.7083 23.59 68.5243 23.6857 68.3457 23.7853C68.2518 23.8371 68.3564 23.7706 68.4068 23.7008C68.6648 23.3415 68.9923 23.0857 69.348 22.8266C70.0908 22.2854 70.8969 21.9068 71.6915 21.4531C72.3679 21.0674 73.0266 20.658 73.6824 20.239C74.0526 20.0023 74.3686 19.7145 74.6389 19.3688C74.748 19.2295 74.8892 19.0443 74.8389 18.8521C74.7862 18.6547 74.5976 18.5908 74.4137 18.5908C74.2679 18.5908 74.1457 18.6301 74.0083 18.6792C73.648 18.8079 73.2747 18.8884 72.9137 19.0134C72.0556 19.3106 71.177 19.5657 70.3358 19.9067C69.2824 20.3334 68.2465 20.8021 67.1969 21.2379C66.6289 21.4735 66.1396 21.8089 65.648 22.1678C65.4488 22.3134 65.3457 22.4591 65.1831 22.6212C65.0915 22.7128 65.0075 22.8428 64.9297 22.9477C64.8312 23.0809 64.7228 23.2787 64.9511 23.1091C65.964 22.3565 66.9877 21.4849 67.7556 20.4773C67.8633 20.336 68.0572 20.1127 67.9037 19.947C67.7175 19.7464 67.4694 19.6307 67.1869 19.7165C66.69 19.8678 66.2121 20.2169 65.7594 20.4657C65.1549 20.7979 64.6442 21.2616 64.0923 21.6682" stroke="black" stroke-width="2" stroke-linecap="round"/>
<path d="M63.435 22.2561C62.8045 22.8871 62.1213 23.48 61.464 24.0715C61.3846 24.1433 61.5419 23.9685 61.5678 23.9236C61.7312 23.6416 61.9045 23.3612 62.0518 23.0707C62.2472 22.685 62.4106 22.323 62.3655 21.893C62.2884 21.1649 61.1946 22.3296 61.0129 22.4809C60.1129 23.2307 59.0709 23.9538 58.3403 24.8803C58.2457 25.0008 58.0258 25.3826 58.0411 25.2299C58.0594 25.0421 58.251 24.7955 58.335 24.6229C58.5472 24.187 58.8289 23.8251 59.0091 23.3703C59.0533 23.2587 59.2106 22.7907 58.9915 22.7422C58.7373 22.6856 58.4732 22.9993 58.2945 23.1283C57.7434 23.5268 57.2037 23.9401 56.6594 24.3481C56.1083 24.7616 55.6632 25.2637 55.1632 25.7333C54.8495 26.0281 54.5732 26.3461 54.2716 26.6476C54.0564 26.8628 54.3884 26.4112 54.4335 26.3403C54.6724 25.9602 54.9144 25.5088 54.9289 25.0494C54.9365 24.799 55.0411 24.4626 54.8075 24.2809C54.5953 24.1156 54.1235 24.6851 54.0182 24.7919C53.4381 25.3813 52.9335 26.0407 52.3892 26.6611C52.1304 26.9562 51.919 27.2812 51.7129 27.6081C51.6983 27.6315 51.5785 27.7731 51.5785 27.7676C51.5785 27.7065 51.6869 27.5819 51.7129 27.5314C51.7884 27.3833 51.8632 27.234 51.9205 27.078C52.077 26.651 52.2442 26.2827 52.2319 25.8178C52.2274 25.6501 52.0442 25.4162 51.8709 25.5584C51.2648 26.0539 50.6319 26.5833 50.1991 27.247C49.9281 27.6627 49.4663 28.0156 49.1003 28.3439C48.807 28.6073 48.5064 28.8515 48.2282 29.1297C47.9142 29.4436 47.3164 29.8449 46.8912 29.9749C46.688 30.037 46.4763 30.0959 46.2841 30.192C46.1418 30.2632 45.963 30.2965 45.8345 30.3822" stroke="black" stroke-width="2" stroke-linecap="round"/>
<path d="M48.3325 32.4681C48.6612 32.5129 48.976 32.6285 49.3035 32.6821C49.8464 32.7709 50.3793 32.8915 50.9212 32.9849C51.6892 33.1174 52.5281 33.2526 53.248 33.5659C53.6052 33.7212 53.9907 33.9299 53.9907 34.3657C53.9907 34.5457 53.9525 34.6523 54.0945 34.7623C54.3571 34.9667 54.7174 35.092 55.0006 35.2758C55.3121 35.4775 55.6678 35.8146 55.7976 36.1644C55.9762 36.6473 55.6373 37.433 56.0342 37.8299" stroke="black" stroke-width="2" stroke-linecap="round"/>
<path d="M56.1533 38.1262H56.1235" stroke="black" stroke-width="2" stroke-linecap="round"/>
<path d="M56.0342 37.8891C55.9571 37.8805 55.8518 37.7775 55.7808 37.741C55.6747 37.6865 55.5648 37.636 55.4602 37.5797C55.1877 37.4332 54.8136 37.4794 54.5174 37.43C54.3197 37.3971 54.1083 37.4151 53.9083 37.4151C53.6655 37.4151 53.4274 37.3495 53.1838 37.3559C53.0067 37.3606 53.5174 37.504 53.6945 37.504" stroke="black" stroke-width="2" stroke-linecap="round"/>
<path d="M53.2503 37.7706C53.1541 37.7826 52.9984 37.9521 52.9243 38.0093C52.6976 38.1833 52.4709 38.3515 52.2228 38.4947C51.793 38.7433 51.3029 38.8535 50.8373 39.0131C50.3877 39.1673 49.8823 39.2547 49.4138 39.3258C49.0075 39.3873 48.6069 39.505 48.2041 39.571C47.4707 39.6912 46.6912 40.0143 46.0515 40.3922C45.7918 40.5457 45.4918 40.6901 45.2073 40.7905C44.9674 40.8751 44.6937 40.9948 44.5112 41.1773" stroke="black" stroke-width="2" stroke-linecap="round"/>
<path d="M53.7121 95.4806C53.9022 95.3432 54.3037 95.3791 54.5174 95.3791C55.4297 95.3791 56.3419 95.4302 57.2548 95.4302C59.0991 95.4302 60.9564 95.2096 62.793 95.4302" stroke="black" stroke-width="2" stroke-linecap="round"/>
<path d="M56.4671 93.0325C56.6671 93.5317 56.6197 94.3248 56.6197 94.8691" stroke="black" stroke-width="2" stroke-linecap="round"/>
<path d="M54.3755 92.4714C56.3594 92.3973 58.3632 92.4966 60.3442 92.3691" stroke="black" stroke-width="2" stroke-linecap="round"/>
<path d="M59.477 77.7278C62.2091 77.7278 64.9129 78.1958 67.5885 78.6973" stroke="black" stroke-width="2" stroke-linecap="round"/>
<path d="M65.2411 79.0034V80.4828" stroke="black" stroke-width="2" stroke-linecap="round"/>
<path d="M62.793 81.2989C64.1495 81.2989 65.5075 81.3783 66.8572 81.5142C67.6549 81.5951 68.4648 81.6424 69.2549 81.7867C69.6075 81.8508 69.935 81.9806 70.2915 82.0134" stroke="black" stroke-width="2" stroke-linecap="round"/>
<path d="M66.5167 76.4523V77.779" stroke="black" stroke-width="2" stroke-linecap="round"/>
<path d="M63.8129 75.6874C64.8442 75.6874 65.8961 75.9187 66.9251 76.0049C67.7915 76.0775 68.6762 76.2225 69.5266 76.4019" stroke="black" stroke-width="2" stroke-linecap="round"/>
<path d="M19.5654 82.5348C19.8161 82.5348 20.0903 82.7279 20.3567 82.7432C20.5784 82.7554 20.5501 82.8477 20.3475 82.7012C20.1136 82.5325 19.883 82.4516 19.6025 82.4516C19.4623 82.4516 19.3726 82.4096 19.2369 82.4096C19.0032 82.4096 19.7043 82.4096 19.938 82.4096C20.3775 82.4096 19.694 82.2974 19.5677 82.2638C19.3396 82.2035 19.1865 82.118 18.95 82.118C18.741 82.118 19.3708 82.1477 19.5701 82.2111C19.8366 82.2951 20.6731 82.3577 20.3938 82.3684C19.9995 82.3836 19.591 82.3119 19.2322 82.1508C19.089 82.0859 18.93 82.0348 18.7741 82.0348C18.7404 82.0348 18.5582 82.0348 18.6909 82.0348C18.946 82.0348 19.2016 82.0302 19.4567 82.037C19.9267 82.05 20.4129 82.0691 20.8796 82.1279C21.0029 82.1432 21.0931 82.2187 21.2105 82.2432C21.4101 82.2851 21.5597 82.3996 21.7497 82.4538C21.7797 82.4622 21.7861 82.5485 21.7635 82.5668C21.6493 82.6607 21.193 82.4783 21.0648 82.4516C20.7196 82.3798 20.4155 82.3164 20.9074 82.618C21.1782 82.7836 21.4554 82.921 21.708 83.1157C21.7813 83.1722 22.0784 83.3332 21.8329 83.2935C21.6066 83.2577 21.4283 83.076 21.1897 83.118C20.985 83.1538 21.4332 83.6226 21.4789 83.6546C21.6517 83.7752 21.5617 83.6455 21.4997 83.5393C21.3465 83.2752 21.1761 83.0325 20.9768 82.8012C20.8274 82.6271 20.6843 82.4226 20.5233 82.2615C20.4501 82.1882 20.5944 82.4577 20.6483 82.5462C20.7351 82.689 20.8388 82.8225 20.9213 82.9699C20.9794 83.0737 21.0874 83.147 21.1249 83.2592C21.14 83.3042 20.6025 82.9813 20.8704 83.0531C21.4655 83.2126 22.0812 83.5592 22.5964 83.8905C22.7662 83.9997 22.689 83.4081 22.689 83.2935C22.689 82.9394 23.0608 83.5019 23.1471 83.6271C23.1819 83.6775 23.3036 83.805 23.2466 83.7821C23.0824 83.7165 22.8954 83.5462 22.7399 83.4508C22.6581 83.4012 22.3297 82.9974 22.2517 83.0577C22.0578 83.2088 22.2246 83.7569 22.2309 83.96C22.2377 84.1806 22.3373 84.8332 22.3373 84.6126C22.3373 84.3676 22.12 84.0966 22.0666 83.8561C22.0481 83.7722 22.1061 84.0226 22.1337 84.1035C22.2116 84.3317 22.3287 84.5287 22.4622 84.7256C22.6 84.9294 22.7799 85.1432 22.8787 85.3691C22.898 85.4134 23.1055 85.7699 23.1055 85.621C23.1055 85.1607 23.067 84.7126 22.999 84.2561C22.9913 84.2042 22.8626 83.3974 22.9574 83.3813C23.0881 83.36 23.2315 83.9768 23.2558 84.0432C23.4429 84.5561 23.6694 85.0485 23.8783 85.5516C23.922 85.6577 23.9684 85.76 24.0194 85.8623C24.0194 85.8623 24.0987 86.0126 24.1027 86.0035C24.1605 85.8584 24.047 85.5684 24.0217 85.4226C23.9829 85.1989 23.9791 84.9714 23.9199 84.7516C23.8774 84.5935 23.9394 84.6623 23.9894 84.7607C24.0765 84.9317 24.1823 85.1012 24.2484 85.2813C24.2794 85.3653 24.3119 85.5271 24.3781 85.5935C24.4461 85.6615 24.4278 85.6775 24.4474 85.7836C24.4994 86.0638 24.5905 86.3233 24.6256 86.6119C24.6336 86.6775 24.8267 87.6554 24.6881 87.5462C24.2957 87.2378 24.1249 86.6706 23.8829 86.2554C23.6364 85.8325 23.6469 86.8508 23.6469 86.9584C23.6469 87.2523 23.6419 87.5424 23.7071 87.831C23.7555 88.0455 23.7302 87.6981 23.7302 87.6531C23.7302 86.9317 23.7989 86.0997 23.4201 85.45C23.3994 85.4149 23.3603 85.221 23.3229 85.3668C23.2512 85.647 23.2623 85.9836 23.2767 86.2691C23.2935 86.6027 23.3757 86.9294 23.4479 87.2546C23.4783 87.3913 23.4181 86.963 23.4016 86.9126C23.3927 86.8852 23.2464 86.4607 23.2975 86.6142C23.4016 86.9264 23.4719 87.2409 23.5868 87.5508C23.749 87.989 23.8891 88.4516 24.0958 88.8653C24.1794 89.0325 24.323 89.1004 24.5123 89.1478C24.7076 89.1966 24.561 88.2226 24.54 88.1157C24.5103 87.9645 24.4382 87.821 24.4382 87.6668C24.4382 87.5859 24.4407 87.8676 24.4452 87.8981C24.4974 88.2554 24.6458 88.9386 25.0004 89.1355C25.2355 89.2668 25.2651 88.5676 25.2688 88.4722C25.2876 87.9928 25.1616 87.4897 24.8639 87.1065C24.4816 86.6149 25.6447 88.0836 26.1041 88.5042C26.1245 88.5233 26.3281 88.7172 26.2429 88.5852C26.0911 88.3508 26.0374 88.0806 25.9468 87.8195C25.8506 87.5416 25.7394 87.2936 25.609 87.0325C25.5575 86.9302 25.4565 86.7707 25.4378 86.6577C25.4154 86.5241 25.2753 86.4844 25.1647 86.4264C25.0304 86.3561 24.7908 86.2042 24.6279 86.2042C24.5694 86.2042 24.4922 86.5661 24.4798 86.6165C24.4044 86.9226 24.4382 87.2523 24.4382 87.5645C24.4382 87.6653 24.3763 88.0516 24.4798 88.1249C24.6387 88.2371 24.7491 88.4432 24.8986 88.5737C25.1222 88.7691 25.3417 88.8897 25.5442 89.092C25.7378 89.2859 26.0128 89.4172 26.2013 89.6058C26.2037 89.6081 26.062 89.5615 26.0416 89.5501C25.9326 89.4867 25.8723 89.3661 25.7709 89.2913C25.6736 89.2187 25.5662 89.1012 25.4378 89.1149C25.2607 89.1348 25.3195 89.376 25.3961 89.4485C25.5158 89.5615 25.609 89.5798 25.7547 89.6355C25.9877 89.7256 26.2558 89.7302 26.4789 89.8416C26.5562 89.8806 26.732 89.9317 26.8144 89.9455C27.0545 89.9859 26.7165 88.976 26.6293 88.8279C26.53 88.66 26.2528 88.1447 26.3401 88.3195C26.4204 88.4798 26.5494 88.6271 26.6663 88.7607C26.7511 88.8584 27.0339 89.1126 26.9185 89.0546C26.7449 88.9684 26.06 88.5981 25.9468 88.8561C25.8604 89.0523 26.121 89.2691 26.2475 89.3653C26.3404 89.4355 27.1277 90.0462 27.1013 89.7165C27.0707 89.3332 26.7592 89.0424 26.5853 88.7195C26.491 88.5439 26.5191 88.434 26.6918 88.5134C26.9007 88.6096 27.0289 88.8371 27.1846 88.9928C27.3209 89.1287 27.4217 89.2455 27.5849 89.3554C27.7354 89.4577 28.0123 89.602 28.1957 89.6149C28.2675 89.6203 28.2793 89.6745 28.3438 89.6958C28.5304 89.7577 27.9536 89.6439 27.7607 89.6058C27.4752 89.5493 27.112 89.3867 26.863 89.573C26.7974 89.6226 26.7691 89.8936 26.8352 89.95C27.1804 90.2462 27.4726 90.4172 27.9504 90.4501C28.3438 90.4775 28.6899 90.6142 29.0934 90.6142C29.3087 90.6142 29.5484 90.5836 29.7598 90.6233C29.8717 90.6447 29.9114 90.663 29.7668 90.6355C29.543 90.592 29.3523 90.4249 29.149 90.3226C28.8055 90.1508 28.5062 89.8951 28.1472 89.7607C27.924 89.6768 27.9039 89.692 27.6867 89.6981C27.6171 89.7004 27.5081 89.7142 27.5224 89.8065C27.5488 89.9783 27.6626 89.9424 27.807 89.9668C28.0881 90.0142 28.3388 90.073 28.6261 90.073C28.791 90.073 29.0402 90.121 29.1999 90.0638C29.2517 90.0447 28.9748 89.8203 28.9361 89.7813C28.8758 89.721 28.8576 89.6722 28.7695 89.6378C28.6736 89.6004 28.3589 89.6149 28.4618 89.6149C28.6807 89.6149 28.9403 89.7997 29.1397 89.8806C29.3344 89.9607 29.5833 89.9478 29.7899 89.9478C29.9821 89.9478 30.1643 89.9897 30.3568 89.9897C30.6185 89.9897 30.8881 89.9638 31.1434 90.0218C31.5294 90.1104 31.9759 90.1149 32.3743 90.1149C32.6651 90.1149 32.9559 90.1149 33.2466 90.1149C33.8705 90.1149 34.6336 90.2867 35.2433 90.1126C35.2746 90.1035 35.3188 90.0661 35.248 90.0821C35.0358 90.131 34.8119 90.1188 34.5955 90.1355C34.3027 90.1584 33.9078 90.0775 33.6237 90.1584C33.4883 90.1974 33.341 90.2646 33.198 90.2836C32.9984 90.3104 32.7847 90.4409 32.5918 90.4478C32.4216 90.4539 32.279 90.531 32.1059 90.531C31.8684 90.531 31.6308 90.531 31.3933 90.531C31.0046 90.531 30.6159 90.531 30.2272 90.531C30.0305 90.531 29.8446 90.4897 29.6464 90.4897C29.2737 90.4897 30.3913 90.46 30.7639 90.4501C31.4837 90.431 32.1909 90.4646 32.9065 90.3966C33.4402 90.3462 34.1228 90.2874 34.6256 90.0936C34.7504 90.0455 35.3717 90.1126 35.4331 89.9897" stroke="#2E3192" stroke-linecap="round"/>
<path d="M28.4363 76.3294C28.3632 76.3378 28.2233 76.45 28.1865 76.5141C28.1565 76.5668 28.1459 76.6011 28.1239 76.6622C28.0901 76.7576 27.9579 76.7645 27.9388 76.85C27.9196 76.937 27.6995 77.0805 27.6242 77.1393C27.4754 77.2546 27.6429 77.021 27.6843 76.982C27.779 76.892 27.8842 76.811 27.9805 76.7225C28.0748 76.6362 28.1895 76.4904 28.316 76.4546C28.4184 76.4248 28.6568 76.3156 28.707 76.2255C28.7662 76.1187 28.7239 76.1355 28.6423 76.2088C28.4794 76.3553 28.3177 76.5042 28.1448 76.6393C28.0263 76.7317 27.833 76.7866 27.77 76.9286C27.745 76.9851 27.6313 77.0775 27.5826 77.121C27.2943 77.3767 27.0859 77.7309 26.8861 78.0462C26.7013 78.3378 26.6315 78.695 26.4465 78.9622C26.4021 79.0263 26.4426 79.1347 26.3956 79.2126C26.342 79.3004 26.2787 79.4233 26.2707 79.5271C26.2595 79.6721 26.162 79.7798 26.1133 79.9019C26.0091 80.1622 25.7794 80.421 25.7709 80.7027C25.7665 80.8477 25.6336 80.9889 25.6066 81.137C25.576 81.3057 25.5123 81.4683 25.4816 81.637C25.4539 81.7897 25.4377 81.9393 25.3961 82.095C25.3735 82.1798 25.2846 82.253 25.2734 82.3309C25.269 82.3622 25.2945 82.5179 25.2503 82.4469C25.1228 82.2431 25.1481 81.9538 25.0027 81.7454C24.928 81.6393 24.9219 81.395 24.8986 81.2668C24.8163 80.8141 24.9758 80.3492 25.1253 79.934C25.1889 79.7576 25.2088 79.5133 25.3128 79.3607C25.4274 79.192 25.6092 79.0538 25.7385 78.8927C25.9521 78.6278 26.1893 78.35 26.428 78.1111C26.4684 78.0706 26.4893 78.0034 26.5298 77.963C26.5677 77.9248 26.6193 77.792 26.6362 77.8424C26.6657 77.9309 26.5763 78.0714 26.5436 78.1431C26.4312 78.3912 26.3114 78.6347 26.192 78.879C26.0468 79.1767 25.9132 79.4889 25.7894 79.795C25.7381 79.9225 25.7915 80.3683 25.6784 80.4202C25.5931 80.4591 25.3617 80.7675 25.4053 80.6095C25.4405 80.4821 25.41 80.3355 25.4886 80.2256C25.5449 80.1469 25.6043 80.0935 25.6043 79.9943" stroke="#006837" stroke-linecap="round"/>
<path d="M35.9328 78.9531C35.8108 79.1225 35.6843 79.1057 35.4978 79.1615C35.0814 79.2866 34.6479 79.3844 34.216 79.4347C33.8917 79.4721 33.3733 79.4011 33.1332 79.6798C32.779 80.0905 32.3043 80.2492 31.8746 80.5355C31.833 80.5637 31.5044 80.7454 31.7033 80.6187C31.9495 80.463 32.2552 80.376 32.5224 80.263C33.9363 79.6637 35.3988 79.1935 36.9231 78.9439C37.1917 78.8996 37.519 78.8195 37.7653 78.7034C37.9584 78.6118 38.2696 78.6248 38.4317 78.495C38.5386 78.4095 38.7124 78.4416 38.8389 78.4027C39.0077 78.3508 39.1589 78.2866 39.3387 78.2866C39.6796 78.2866 40.0398 78.3233 40.3706 78.2363C40.5138 78.1981 40.5881 78.1202 40.7547 78.1202C40.8037 78.1202 40.9368 78.0576 40.8981 78.0882C40.7756 78.1828 40.4887 78.1118 40.3428 78.1248C39.6497 78.1882 38.973 78.2454 38.2743 78.2454C37.813 78.2454 37.3078 78.2408 36.8514 78.3073C36.7643 78.3202 36.5098 78.3813 36.5899 78.3447C36.8837 78.2111 37.1622 78.0592 37.4784 77.9813C37.5312 77.9683 37.9966 77.8737 37.9204 77.9378C37.584 78.2179 37.0243 78.3637 36.62 78.5134C36.1964 78.6706 35.7594 78.7828 35.3336 78.9324C35.1771 78.9874 35.0368 79.0966 34.8847 79.1683C34.2407 79.4714 33.6091 79.8233 32.9712 80.1424C32.6782 80.2889 31.7862 80.663 32.1105 80.6164C32.5859 80.5485 33.0869 80.2477 33.5265 80.0637C33.7995 79.95 34.2397 79.9187 34.4682 79.7286C34.7804 79.4683 33.8164 80.2889 33.4132 80.3393C33.3095 80.3523 33.5884 80.2248 33.6816 80.1775C33.9519 80.0401 34.2404 79.9347 34.5261 79.8347C34.8854 79.7088 35.2725 79.637 35.6182 79.476C35.91 79.3401 36.4297 78.7034 35.7755 78.7034C35.3822 78.7034 35.0275 78.7393 34.6464 78.8492C34.4124 78.9164 34.1773 78.9813 33.9453 79.0546C33.8437 79.0874 33.6202 79.2393 33.6353 79.134C33.6543 79.0004 34.1104 78.7989 34.1998 78.7515C34.5065 78.5897 34.8406 78.3943 35.1785 78.3103C35.2584 78.2897 35.3311 78.2866 35.4123 78.2866C35.5474 78.2866 35.691 78.1691 35.8287 78.1431C35.8396 78.1416 36.1557 78.1103 36.1457 78.134C36.048 78.3683 35.771 78.4615 35.5627 78.5553C34.8987 78.8531 34.1348 78.7981 33.4617 79.0454C33.1841 79.1477 32.892 79.221 32.6103 79.3187C32.445 79.376 32.2416 79.595 32.1105 79.7164C31.9255 79.8882 31.5552 79.9783 31.3285 80.1012C31.1146 80.2164 30.906 80.3798 30.7362 80.55C30.6547 80.6309 30.5346 80.7508 30.4262 80.795C30.2718 80.8576 30.1502 80.9798 30.0097 81.0775C29.9037 81.1508 29.7657 81.1889 29.6718 81.276C29.6122 81.3317 29.5803 81.4034 29.5099 81.4523C29.0393 81.7775 28.8407 82.3569 28.4548 82.7431C28.2808 82.9172 28.19 83.1538 28.0106 83.3172C27.7873 83.5195 28.2168 82.9966 28.2512 82.9515C28.4313 82.7126 28.6329 82.4714 28.7926 82.2202C28.942 81.9859 29.279 81.818 29.5214 81.7019C29.7617 81.5867 30.0091 81.505 30.241 81.3714C30.3861 81.2874 30.5601 81.1645 30.7246 81.1233C31.0951 81.0309 31.4308 80.7271 31.8098 80.6187C31.8875 80.5966 31.8702 80.5095 31.9162 80.4966C31.977 80.479 32.042 80.4973 31.9763 80.5569C31.8765 80.6462 31.834 80.7286 31.7079 80.8088C31.5891 80.8844 31.462 80.934 31.3539 81.0149C31.083 81.2179 30.7447 81.3225 30.4516 81.4775C30.2604 81.579 30.0841 81.6111 29.9125 81.7202C29.8388 81.7676 29.7303 81.7737 29.6464 81.7874C29.5055 81.8111 29.3526 81.9844 29.2253 82.0561C29.0685 82.1439 28.9313 82.2271 28.7903 82.3057C28.7594 82.3233 28.6323 82.4828 28.67 82.4912C28.8868 82.5393 29.2523 82.1042 29.4127 81.9729C29.649 81.779 29.8766 81.6363 30.1022 81.4103" stroke="#FBB03B" stroke-linecap="round"/>
<path d="M35.9745 82.9927C36.2085 82.9927 36.3756 83.034 36.0485 83.1271C35.5957 83.2561 35.0565 83.0759 34.6187 83.2217C34.4606 83.2744 34.2487 83.3263 34.0819 83.3263C34.003 83.3263 33.9268 83.3637 33.862 83.4072C33.7553 83.4782 34.1091 83.3538 34.1259 83.3469C34.2677 83.2897 35.045 83.1759 35.0583 82.9515C35.0795 82.5897 33.1942 82.7011 32.8324 82.7011C32.657 82.7011 32.4164 82.8744 32.2679 82.9607C32.0441 83.0904 31.7922 83.4019 31.5368 83.4485C31.3447 83.4836 31.0739 83.5744 30.912 83.6775C30.6875 83.821 30.3406 83.837 30.1439 84.034C29.9859 84.192 29.6688 84.234 29.5238 84.3996C29.3738 84.5714 29.9494 84.2355 30.167 84.1683C30.391 84.0988 30.6418 83.9752 30.8704 83.9485C30.9958 83.934 31.0836 83.8248 31.2013 83.7889C31.3424 83.7454 31.4465 83.7248 31.5784 83.6408C31.703 83.5614 31.9089 83.6195 32.0527 83.5553C32.1701 83.5027 32.3169 83.4561 32.4437 83.4508C32.7562 83.4393 33.0482 83.2843 33.3716 83.2843C33.5255 83.2843 33.8787 83.2836 33.9338 83.1179" stroke="#FF0000" stroke-linecap="round"/>
</svg>
