<svg width="174" height="174" viewBox="0 0 174 174" fill="none" xmlns="http://www.w3.org/2000/svg">
<path d="M58.2091 126.267C58.5575 125.918 59.3046 126.001 59.7486 126.006C60.521 126.015 61.2573 126.177 62.0124 126.325C62.8445 126.487 63.6527 126.717 64.4169 127.09C64.9685 127.36 65.3869 127.656 65.8696 128.034C66.8803 128.825 67.4749 130.145 68.0878 131.246C68.8756 132.66 69.9502 133.842 71.2476 134.815C72.5251 135.773 74.3639 136.246 75.9386 136.321C77.0118 136.373 78.0984 136.342 79.1708 136.326C80.0433 136.312 80.9117 136.361 81.7843 136.361C82.4595 136.361 83.1336 136.324 83.8101 136.324C84.044 136.324 84.2743 136.361 84.5054 136.361C84.5602 136.361 84.7861 136.354 84.6337 136.437C84.1051 136.726 83.552 136.919 82.9638 137.085C82.2736 137.28 81.5327 137.464 80.8221 137.561C80.4229 137.616 80.023 137.761 79.6281 137.849C79.1263 137.96 78.6035 137.967 78.1031 138.082C77.2738 138.274 76.363 138.372 75.5124 138.372C74.5268 138.372 73.5041 138.319 72.5326 138.157C69.9401 137.725 67.0846 137.044 65.9378 134.389C65.641 133.701 65.636 132.944 65.3957 132.243C65.2184 131.726 64.92 131.287 64.7087 130.794C64.3436 129.942 63.6766 129.33 62.9581 128.781C62.608 128.513 62.2259 128.306 61.8427 128.092C61.4348 127.863 60.9787 127.598 60.5391 127.44C59.7615 127.16 59.0833 126.644 58.2836 126.416" stroke="#2E3192" stroke-linecap="round"/>
<path d="M72.1022 130.886C72.1022 130.571 73.2343 130.276 73.4844 130.178C74.2911 129.861 75.1575 129.648 75.9965 129.435C76.8825 129.21 77.7854 129.052 78.6721 128.82C79.072 128.716 79.4824 128.628 79.8868 128.541C80.3582 128.44 80.8486 128.47 81.3229 128.39C82.7489 128.148 84.1001 128.283 85.5111 128.518C85.8005 128.567 86.1316 128.651 86.4236 128.651C86.544 128.651 86.3999 128.532 86.3657 128.502C86.1865 128.345 85.8577 128.237 85.6414 128.131C85.232 127.932 84.8112 127.798 84.3854 127.645C83.6389 127.377 82.8321 127.14 82.0512 127.012C80.5184 126.761 78.8736 126.55 77.3498 127.004C75.9384 127.424 74.5558 128.049 73.4844 129.077C73.0114 129.531 72.3193 130.011 72.1022 130.662" stroke="#FF0000" stroke-linecap="round"/>
<path d="M69.8096 131.866L69.8629 131.76" stroke="black" stroke-linecap="round"/>
<path d="M69.9963 131.519C70.0338 131.474 70.0533 131.413 70.0764 131.359" stroke="black" stroke-linecap="round"/>
<path d="M70.45 130.852C70.6486 130.654 70.8042 130.405 70.9984 130.199C71.1518 130.036 71.259 129.859 71.3957 129.684C71.5682 129.463 71.7772 129.269 71.9561 129.053C72.5892 128.286 73.4251 127.58 74.2879 127.081C76.2996 125.918 78.4745 125.003 80.6311 124.149C81.919 123.639 83.2407 123.219 84.5521 122.782C85.5582 122.447 86.5656 122.025 87.6237 121.887C88.0048 121.837 88.3846 121.791 88.7666 121.747C89.1407 121.705 89.5589 121.677 89.9169 121.567C90.0576 121.523 90.2021 121.55 90.3468 121.534C90.5011 121.517 90.6496 121.462 90.8034 121.439C91.1166 121.392 91.4259 121.353 91.7433 121.353" stroke="#FBB03B" stroke-linecap="round"/>
<path d="M92.1969 121.326C92.3616 121.326 92.5346 121.312 92.698 121.294C92.8508 121.277 92.6122 121.182 92.5764 121.172C92.4137 121.126 92.2397 121.145 92.0695 121.139C91.6892 121.126 91.3182 121.015 90.9399 120.973C90.3174 120.904 89.7024 120.778 89.078 120.718C88.274 120.642 87.4766 120.585 86.6705 120.547C85.7333 120.502 84.7614 120.672 83.8273 120.745C83.1229 120.8 82.4517 120.921 81.7637 121.065C81.1271 121.199 80.4909 121.332 79.8766 121.552C78.4748 122.052 77.0916 122.559 75.8356 123.379C75.4948 123.602 75.1518 123.817 74.8261 124.061C74.4952 124.309 74.2173 124.58 73.9174 124.862C73.2539 125.485 72.6243 126.041 72.2067 126.857C72.0404 127.182 71.7969 127.482 71.6656 127.824C71.5638 128.088 71.4412 128.344 71.3439 128.611C71.1519 129.136 70.9271 129.659 70.7035 130.172C70.546 130.533 70.3385 130.918 70.2247 131.292C70.1936 131.395 70.1271 131.681 70.0231 131.733" stroke="#FBB03B" stroke-linecap="round"/>
<path d="M68.422 129.732C68.4428 129.523 68.5287 129.321 68.5287 129.106C68.5287 128.872 68.557 128.642 68.5821 128.409C68.6406 127.868 68.764 127.315 68.8875 126.785C69.0368 126.143 69.2706 125.533 69.4493 124.9C69.6652 124.136 69.9581 123.355 70.3165 122.649C70.5573 122.174 70.8254 121.734 71.0889 121.273C71.3488 120.818 71.8186 120.462 72.1636 120.072C72.4036 119.801 72.6841 119.546 72.9419 119.288C73.085 119.145 73.2642 118.976 73.3718 118.805C73.5524 118.518 73.8512 118.308 74.0848 118.065C74.1788 117.967 74.2513 117.873 74.3591 117.789C74.4428 117.724 74.3768 117.723 74.3012 117.739C74.1315 117.775 73.9588 117.783 73.7868 117.804C73.2772 117.868 72.7559 118.016 72.3118 118.278C71.234 118.916 70.2844 119.757 69.4034 120.638C68.933 121.109 68.5492 121.7 68.1819 122.251C67.9359 122.62 67.623 123.021 67.4999 123.455C67.4318 123.695 67.4336 123.946 67.4021 124.19C67.3339 124.719 67.3527 125.308 67.3828 125.836C67.42 126.485 67.6119 127.055 67.7816 127.677" stroke="#006837" stroke-linecap="round"/>
<path d="M67.9951 128.211C68.0492 128.697 68.3636 129.136 68.5021 129.598" stroke="#006837" stroke-linecap="round"/>
<path d="M67.0078 128.317C66.9232 128.222 66.8937 128.103 66.8477 127.985C66.7532 127.744 66.638 127.514 66.5394 127.275C66.1839 126.414 65.9493 125.537 65.9123 124.595C65.8833 123.855 65.9024 123.014 66.0947 122.29C66.1549 122.063 66.2045 121.833 66.2874 121.614C66.3088 121.557 66.3325 121.493 66.3497 121.436C66.3519 121.428 66.172 121.597 66.148 121.62C65.6626 122.073 65.2816 122.538 65.1533 123.207C65.0848 123.565 65.062 123.91 65.0866 124.273C65.1165 124.713 65.1633 125.204 65.3031 125.624C65.4442 126.047 65.576 126.486 65.813 126.868C65.9792 127.135 66.1514 127.4 66.3141 127.668C66.4208 127.844 66.5685 127.994 66.6876 128.163C66.7251 128.216 66.7935 128.29 66.8477 128.317" stroke="#2E3192" stroke-linecap="round"/>
<path d="M54.7127 104.569C54.2895 108.378 53.1493 112.092 52.5194 115.872C51.5458 121.713 50.293 127.559 48.7771 133.278C48.3944 134.722 48.2575 136.206 47.9323 137.659C47.6832 138.772 47.3957 139.847 47.2607 140.984C47.1747 141.709 46.9677 142.45 46.9195 143.172C46.8786 143.786 46.6443 144.36 46.6217 144.97C46.5422 147.115 45.7947 149.192 45.9393 151.361" stroke="black" stroke-width="2" stroke-linecap="round"/>
<path d="M54.7128 104.374C54.8478 104.359 55.0008 104.266 55.1027 104.179C55.5202 103.824 56.259 103.894 56.7653 103.833C58.8326 103.583 60.9085 103.497 62.9934 103.497C68.8404 103.497 74.6674 102.795 80.5024 102.533C85.3757 102.314 90.25 102.15 95.114 101.818C98.0159 101.62 100.933 101.352 103.844 101.352" stroke="black" stroke-width="2" stroke-linecap="round"/>
<path d="M102.869 101.645C102.488 101.692 102.195 104.604 102.111 105.013C101.57 107.656 101.618 110.443 101.483 113.126C101.41 114.576 101.429 116.019 101.402 117.469C101.375 118.866 101.125 120.244 101.115 121.639C101.089 125.096 100.965 128.551 101.023 132.011C101.08 135.513 101.431 139.009 101.51 142.512C101.543 143.969 101.866 145.565 101.694 147.023C101.539 148.344 101.7 149.642 101.7 150.971" stroke="black" stroke-width="2" stroke-linecap="round"/>
<path d="M103.454 101.352C105.823 101.352 108.133 101.478 110.478 101.986C112.958 102.523 115.429 103.166 117.92 103.643C120.3 104.099 122.645 104.936 125.03 105.327C125.55 105.412 126.03 105.641 126.558 105.641C126.818 105.641 127.021 105.629 127.24 105.739" stroke="black" stroke-width="2" stroke-linecap="round"/>
<path d="M134.941 151.264C134.941 146.028 133.099 141.009 131.968 135.964C131.44 133.607 130.914 131.208 130.75 128.788C130.593 126.482 129.679 124.234 129.58 121.943C129.351 116.676 127.533 111.596 127.533 106.324" stroke="black" stroke-width="2" stroke-linecap="round"/>
<path d="M101.31 152.238C101.636 152.202 102.012 151.944 102.349 151.87C103.928 151.524 105.502 151.509 107.104 151.41C111.112 151.162 115.135 150.951 119.149 150.971C122.391 150.987 125.662 151.086 128.903 150.966C131.046 150.886 133.186 151.069 135.331 151.069" stroke="black" stroke-width="2" stroke-linecap="round"/>
<path d="M44.5745 151.653C49.204 151.653 53.8292 151.458 58.4658 151.458C64.9827 151.458 71.4935 151.209 78.0111 151.263C80.6722 151.286 83.3143 151.639 85.9722 151.653C88.3574 151.666 90.7383 151.556 93.121 151.556C95.5346 151.556 97.9263 151.751 100.335 151.751" stroke="black" stroke-width="2" stroke-linecap="round"/>
<path d="M49.6436 145.122C51.8322 145.122 54.0336 144.742 56.2291 144.732C60.1589 144.714 64.0841 144.927 68.0137 144.927C71.8907 144.927 75.7681 145.025 79.6466 145.025C81.5107 145.025 83.3626 144.83 85.2248 144.83" stroke="black" stroke-width="2" stroke-linecap="round"/>
<path d="M74.3068 141.808C74.376 142.639 74.3068 143.499 74.3068 144.342" stroke="black" stroke-width="2" stroke-linecap="round"/>
<path d="M55.7851 142.198C55.3572 142.679 55.4414 143.681 55.4926 144.245" stroke="black" stroke-width="2" stroke-linecap="round"/>
<path d="M63.5837 113.245C64.3738 113.245 65.1265 113.118 65.9071 112.991C68.4971 112.567 71.0838 112.301 73.7003 112.124C79.6271 111.723 85.515 111.198 91.4639 111.198" stroke="black" stroke-width="2" stroke-linecap="round"/>
<path d="M80.7406 112.465C80.2248 113.11 80.2532 114.619 80.2532 115.39" stroke="black" stroke-width="2" stroke-linecap="round"/>
<path d="M77.4263 116.949C78.8697 116.27 80.887 116.447 82.4466 116.273C85.1419 115.97 87.8789 116.072 90.5865 116.072" stroke="black" stroke-width="2" stroke-linecap="round"/>
<path d="M86.1023 116.56L86.1023 116.657" stroke="black" stroke-width="2" stroke-linecap="round"/>
<path d="M86.0048 117.534C86.0048 117.782 85.9549 117.979 85.9073 118.217" stroke="black" stroke-width="2" stroke-linecap="round"/>
<path d="M77.7597 83.1838C77.6677 84.0112 76.3129 84.6494 75.6722 85.0299C74.2778 85.8577 72.7113 86.3931 71.0811 86.3931C70.9383 86.3931 70.5656 86.3975 70.4571 86.2891C70.402 86.2339 71.8434 86.1256 71.9429 86.1256" stroke="black" stroke-width="2" stroke-linecap="round"/>
<path d="M70.405 87.1954C72.2911 87.1954 74.0698 88.2529 75.0703 89.8252C75.3368 90.244 75.3561 90.1956 75.7984 90.2858C76.8926 90.5091 77.8701 90.9832 78.6622 91.7753C79.4891 92.6022 79.9856 93.611 80.4042 94.6874C80.8638 95.8692 81.3773 97.1368 81.4331 98.4204C81.4862 99.6409 80.5662 100.871 79.6948 101.633C79.254 102.019 78.7067 102.295 78.2945 102.707" stroke="black" stroke-width="2" stroke-linecap="round"/>
<path d="M85.2479 92.4773C85.3033 92.9755 85.7401 93.603 85.9351 94.056C86.246 94.7781 86.633 95.4584 86.9491 96.1769C87.4453 97.3045 88.0601 98.4976 88.9103 99.401C89.2778 99.7914 89.7091 100.052 90.1287 100.367" stroke="black" stroke-width="2" stroke-linecap="round"/>
<path d="M86.3176 88.2652C86.6499 88.5605 87.1363 88.8131 87.5062 89.0675C88.3944 89.6781 89.1218 90.3175 90.2475 90.4381C91.3234 90.5534 92.2851 90.5597 93.3379 90.3341C94.7168 90.0386 96.0567 90.059 97.4609 90.1521C98.9538 90.251 100.543 90.5053 101.992 90.8727C102.566 91.0181 103.607 91.1631 103.935 91.7456C104.225 92.2618 103.616 93.1075 103.449 93.6288C103.305 94.0765 103.166 94.4462 103.166 94.9177C103.166 95.4456 102.966 95.9031 102.966 96.422C102.966 96.9476 102.573 97.4653 102.36 97.9264C102.228 98.2135 102.019 98.5057 101.796 98.7287C101.57 98.9545 101.417 99.3265 101.16 99.4976" stroke="black" stroke-width="2" stroke-linecap="round"/>
<path d="M101.361 90.6722C101.603 90.6453 101.827 90.3315 101.989 90.1818C102.316 89.8791 102.698 89.621 103.066 89.3721C103.794 88.8802 104.633 88.5607 105.41 88.1612C106.081 87.816 104.91 87.2352 104.637 87.0989C103.958 86.7592 103.257 86.4224 102.565 86.1257" stroke="black" stroke-width="2" stroke-linecap="round"/>
<path d="M79.8992 84.7885C79.9529 85.2185 81.0503 85.7914 81.3515 85.9697C82.7247 86.7824 84.2955 87.3187 85.898 86.8946C86.6609 86.6926 87.3744 86.4575 88.16 86.3411C88.6225 86.2726 89.3793 86.1786 89.7275 86.5268" stroke="black" stroke-width="2" stroke-linecap="round"/>
<path d="M102.966 85.5908C102.246 85.6628 101.572 86.3626 100.934 86.6569C100.725 86.7535 100.619 86.8825 100.392 86.6903C99.8696 86.2486 99.3309 85.8625 98.735 85.5165C96.4545 84.1924 93.918 82.5883 91.1836 82.649C90.5517 82.6631 89.9604 82.9757 89.3598 83.117C88.738 83.2633 88.1821 83.4506 87.588 83.6816C86.8872 83.9541 85.9949 84.0046 85.2628 84.1348C84.6516 84.2434 83.9984 84.1868 83.3759 84.1868" stroke="black" stroke-width="2" stroke-linecap="round"/>
<path d="M78.3237 65.7468C78.2263 66.6239 77.9078 67.5075 77.7171 68.373C77.4954 69.379 77.2347 70.3712 77.0206 71.3787C76.6414 73.1631 76.1668 74.9021 76.1668 76.7459C76.1668 77.3721 76.1219 77.9926 76.1219 78.6208C76.1219 78.9284 76.0348 79.3312 76.4265 79.3173C76.6434 79.3095 76.8228 79.1375 77.0456 79.1375C77.3556 79.1375 77.6257 79.2506 77.9293 79.2723C78.073 79.2826 78.6884 79.486 78.7706 79.6093C78.9481 79.8756 79.292 80.156 79.527 80.3857C80.3612 81.2014 81.2177 82.0007 82.0184 82.8322C82.4682 83.2993 82.9384 83.7795 83.4114 84.2052C83.8288 84.5809 83.3116 85.1722 83.3116 85.6531" stroke="black" stroke-width="2" stroke-linecap="round"/>
<path d="M87.0413 83.5412C86.8235 83.2992 86.6489 82.9926 86.4396 82.7373C86.1204 82.348 85.7596 81.9899 85.4036 81.6339C84.9076 81.1379 84.4 80.614 83.9432 80.0811C83.7689 79.8778 83.6666 79.5927 83.4914 79.4071C83.354 79.2616 83.1791 79.0715 83.1094 78.8904C82.5842 77.5248 83.5111 76.0563 84.2303 74.9635C85.0289 73.7501 85.8994 72.6486 86.864 71.5634C87.2644 71.1129 87.7434 70.6475 88.0748 70.1504" stroke="black" stroke-width="2" stroke-linecap="round"/>
<path d="M85.8729 74.3294C85.8729 74.4375 85.8259 74.5403 85.8055 74.6465C85.7336 75.0206 85.7538 75.4369 85.7356 75.8198C85.6934 76.7056 85.6879 77.5928 85.6457 78.4784C85.5946 79.5517 85.6482 80.6232 85.6482 81.6988" stroke="black" stroke-width="2" stroke-linecap="round"/>
<path d="M93.6018 72.4421C93.6018 72.7339 93.5445 73.0027 93.467 73.2809C93.3642 73.6498 93.4103 74.0522 93.3422 74.4293C93.2663 74.8495 93.1124 75.2587 93.0626 75.6824C92.9512 76.629 92.5902 77.5971 92.3236 78.5109C92.3054 78.5733 92.1243 79.1487 92.2338 79.1799C92.3129 79.2025 92.5117 79.2426 92.5583 79.3172C92.638 79.4447 92.7984 79.5022 92.9278 79.5669C93.1225 79.6642 93.2431 79.8903 93.3971 80.0362C93.6377 80.2642 93.9661 80.4307 94.166 80.6878C94.3472 80.9207 94.5823 81.1116 94.7901 81.3193C95.2547 81.7839 95.8301 82.2911 96.1981 82.8372C96.3847 83.1141 96.6703 83.3743 96.9071 83.611C97.0905 83.7945 97.1911 84.0299 97.3764 84.2152" stroke="black" stroke-width="2" stroke-linecap="round"/>
<path d="M85.3787 81.0247C85.7197 81.0247 85.9933 81.1364 86.3173 81.2444C86.845 81.4203 87.3918 81.5519 87.8751 81.8311C88.2216 82.0313 88.6077 82.1565 88.9585 82.3478C89.1863 82.4721 89.5093 82.5042 89.6925 82.6874" stroke="black" stroke-width="2" stroke-linecap="round"/>
<path d="M76.3755 70.7943C76.2574 70.7811 76.1479 70.6602 76.0393 70.6109C75.326 70.2867 74.6313 69.8234 73.8694 69.6253C73.4699 69.5214 73.0087 69.3502 72.5935 69.3502C72.0681 69.3502 71.8289 69.8251 71.4474 70.1372C69.5845 71.6614 67.435 73.0233 65.228 73.9995C64.5148 74.3149 63.8237 74.6601 63.1039 74.9545C62.8724 75.0493 62.4413 75.335 62.1794 75.2602C62.1074 75.2396 61.9349 73.7657 61.9349 73.6136C61.9349 73.0371 61.6061 73.4002 61.2816 73.4723C61.0876 73.5154 60.5093 73.5164 60.3686 73.6289C60.0869 73.8543 60.2158 72.4847 60.2158 72.3071C60.2158 72.0073 59.7908 72.2894 59.4899 72.3071C58.7641 72.3498 58.0469 72.4446 57.2933 72.4446C57.0444 72.4446 56.3087 72.5896 56.5751 72.2345C57.1156 71.5138 58.0177 71.0625 58.787 70.6376C59.7925 70.0824 60.8413 69.6363 61.9082 69.2165C64.447 68.2176 67.0785 67.5012 69.5372 66.2902C70.5224 65.8049 71.4816 65.2895 72.4521 64.7773C72.734 64.6285 73.136 64.4831 73.2811 64.1928" stroke="black" stroke-width="2" stroke-linecap="round"/>
<path d="M73.107 64.5032C72.9415 64.4825 72.6885 64.3136 72.5146 64.2649C72.0956 64.1476 71.698 63.9415 71.3198 63.7287C70.0648 63.0228 68.806 62.332 67.6527 61.4616C66.3394 60.4704 65.1457 59.2338 64.3364 57.7911C63.7934 56.8232 63.7536 55.8655 63.5288 54.8257C63.4934 54.662 63.5619 54.472 63.4163 54.3458C63.0684 54.0443 62.7269 53.7381 62.387 53.4224C62.0695 53.1276 61.8001 52.7772 61.5264 52.4427C61.2809 52.1425 61.9241 52.3566 62.0791 52.3798C62.4056 52.4288 62.7331 52.4792 63.0588 52.5321C63.2045 52.5557 63.3897 52.6777 63.5387 52.6446C63.631 52.6241 63.3266 52.2924 63.2773 52.2607C63.0317 52.1028 62.9847 51.7892 62.8007 51.5789C62.5892 51.3372 62.4548 51.0603 62.3472 50.7614C62.0884 50.0423 61.6296 49.3669 61.4437 48.6233C61.4089 48.4842 61.3624 48.3245 61.3709 48.1798C61.3782 48.0549 61.7015 48.1434 61.7879 48.107C61.8772 48.0694 62.1389 48.1002 62.1917 48.0474C62.2807 47.9584 61.5281 47.6025 61.4635 47.5708C60.8166 47.2535 60.1735 47.0119 59.5042 46.75C58.1581 46.2233 56.7359 45.9 55.3572 45.4692C54.9936 45.3556 54.5914 45.2521 54.2484 45.1051C54.0246 45.0092 53.8145 44.845 53.5997 44.7278C53.5354 44.6927 53.345 44.4184 53.5104 44.4597C53.6965 44.5063 54.2596 44.7611 53.8049 44.4134C52.9038 43.7243 51.7463 43.3511 50.7137 42.9108C50.1137 42.655 49.4797 42.4491 48.9232 42.1066C48.7793 42.018 48.4156 41.8937 48.7742 41.9278C49.1314 41.9619 49.4914 42.0501 49.8399 42.133C49.9256 42.1534 50.3743 42.2208 50.0749 42.1297C49.4299 41.9334 48.7991 41.678 48.205 41.3751C47.8978 41.2186 47.4438 41.031 47.1922 40.7926C47.0512 40.659 46.5546 40.4522 46.4905 40.316C46.4144 40.1541 47.4106 39.9278 46.8348 39.899C46.4647 39.8805 46.1031 39.7139 45.7293 39.664C45.1027 39.5805 44.1964 39.3762 43.6773 39.0054C42.9263 38.469 42.0625 38.0988 41.3903 37.4267C41.0959 37.1323 41.0005 36.9096 41.5326 36.9931C41.999 37.0663 42.2731 37.3233 42.6646 37.5293C42.8197 37.6109 43.4328 37.8937 43.3993 37.8602C42.6669 37.1278 41.6272 36.7338 40.8177 36.0862" stroke="black" stroke-width="2" stroke-linecap="round"/>
<path d="M39.9838 35.3713C39.9384 35.1669 39.5494 34.7976 39.4311 34.6167C39.3056 34.4248 39.154 34.2658 39.0306 34.0739C38.8849 33.8473 38.4439 32.9043 38.5871 32.7202C38.8034 32.4421 39.4934 32.6546 39.7157 32.8427C39.8601 32.9648 40.02 33.0592 40.1757 33.167C40.3698 33.3014 40.518 33.5371 40.7252 33.6436C41.1268 33.8502 41.5153 34.0163 41.9034 34.2658C42.0157 34.338 42.1813 34.4476 42.2476 34.5637C42.2679 34.5992 42.3559 34.6174 42.3899 34.5902C42.4624 34.5322 42.1382 34.2491 42.1152 34.2261C41.1822 33.2932 40.1542 32.441 39.3583 31.3798C38.8545 30.7081 38.363 30.0507 37.8987 29.3543" stroke="black" stroke-width="2" stroke-linecap="round"/>
<path d="M37.3624 28.4607C37.2509 28.3352 37.1112 27.4408 37.3326 27.3917C37.9163 27.2619 38.4347 27.9212 38.8517 28.176C38.9377 28.2286 39.6586 28.9545 39.6229 28.7221C39.5537 28.2723 39.2084 27.7365 38.9709 27.3586C38.5869 26.7477 38.2622 26.1053 37.8985 25.482" stroke="black" stroke-width="2" stroke-linecap="round"/>
<path d="M37.3624 24.3501C37.0632 23.7516 36.1763 21.7722 37.1241 21.3118C37.6424 21.06 37.9581 21.519 38.3487 21.7321C38.5275 21.8296 38.6226 22.1344 38.7327 22.2981C39.1022 22.8474 39.4875 23.3884 39.8646 23.933" stroke="black" stroke-width="2" stroke-linecap="round"/>
<path d="M40.7582 25.1841C40.9046 25.3397 40.9866 25.5482 41.1156 25.7203" stroke="black" stroke-width="2" stroke-linecap="round"/>
<path d="M41.7113 26.5543C41.8382 26.6952 41.9535 26.8723 42.0555 27.0309C42.3004 27.4118 42.6315 27.7188 42.8697 28.0999C43.2361 28.6862 43.7338 29.2733 44.2134 29.7713C45.1853 30.7806 45.9091 31.86 47.1061 32.6309C47.5119 32.8923 47.9553 33.1003 48.4035 33.2796C48.4494 33.2979 48.8598 33.486 48.7742 33.3193C48.3446 32.4827 47.4714 31.748 46.8579 31.0489C45.9827 30.0516 44.9834 28.9829 44.3723 27.7987C43.7603 26.613 43.329 25.3948 42.9624 24.1118" stroke="black" stroke-width="2" stroke-linecap="round"/>
<path d="M42.9624 22.9202C43.4937 22.448 43.8712 22.6514 44.2664 23.1784C45.406 24.6978 46.6722 26.2821 47.5231 27.9841C47.7578 28.4534 48.1104 28.857 48.3307 29.3344C48.5749 29.8635 48.9011 30.4089 49.2045 30.9098C49.7038 31.7343 50.3116 32.5128 50.8891 33.2829C51.3884 33.9485 51.1674 32.5389 51.0612 32.2403C50.7833 31.4587 50.3638 30.7123 50.022 29.9566C49.4649 28.7253 48.9412 27.1912 48.9198 25.8261C48.9142 25.4676 49.0369 25.2504 49.1714 24.9325C49.2719 24.6949 49.7974 24.6019 49.9955 24.7406C50.6365 25.1893 50.76 25.9386 51.0049 26.6734" stroke="black" stroke-width="2" stroke-linecap="round"/>
<path d="M51.6603 28.1033C51.8957 28.5528 52.0888 29.0198 52.3156 29.4735" stroke="black" stroke-width="2" stroke-linecap="round"/>
<path d="M52.9114 30.665C52.9595 31.0981 53.3854 31.6118 53.5965 31.9789C53.9596 32.6104 54.529 33.2441 54.7615 33.9415C54.8653 34.2529 54.8812 33.9187 54.874 33.786C54.852 33.3786 54.7853 32.9359 54.6953 32.5382C54.4774 31.5761 54.1467 30.6316 53.891 29.6787C53.6414 28.7482 53.3593 27.6261 54.1492 26.8654C54.8815 26.1603 55.6557 27.8397 55.8901 28.3151C56.4851 29.5216 57.0098 30.7688 57.5284 32.0054C57.787 32.6222 58.1417 33.2105 58.4783 33.7893C58.8329 34.3993 59.0731 35.1046 59.5539 35.6361C60.2418 36.3964 60.7729 37.2423 61.5099 37.9794C62.2925 38.762 63.0561 39.5236 63.9657 40.1637C64.3237 40.4157 64.7273 40.5911 65.0778 40.8522C65.2356 40.9697 65.4303 41.1244 65.6007 41.2096" stroke="black" stroke-width="2" stroke-linecap="round"/>
<path d="M66.4943 42.2224C66.3055 41.8212 66.038 41.4686 65.8423 41.0673C65.5869 40.5437 65.4255 39.9941 65.2134 39.4522C65.138 39.2595 64.9068 38.8202 65.2962 39.0186C66.2119 39.4851 67.0888 39.9743 68.0565 40.3491C68.8326 40.6497 69.6192 41.0314 70.3434 41.4214C71.0739 41.8148 71.8784 42.065 72.5841 42.5202C72.9215 42.7379 73.2984 42.9506 73.6068 43.2053C73.6774 43.2637 74.1206 43.5475 74.1165 43.5231C74.0309 43.0097 73.5953 42.5547 73.3122 42.1429C72.9639 41.6362 72.5841 41.1407 72.2267 40.6403C72.1364 40.514 71.9459 40.2272 72.1869 40.4682C72.7081 40.9894 73.4767 41.3216 74.1628 41.5439C76.0607 42.1587 77.936 42.939 79.7198 43.8309" stroke="black" stroke-width="2" stroke-linecap="round"/>
<path d="M80.7921 44.2479C82.7012 44.8615 84.7335 45.7022 86.3325 46.9585C86.8337 47.3523 87.3668 47.878 87.7027 48.4313C87.8405 48.6583 87.799 49.2316 87.8252 49.4937C87.8821 50.0631 87.9868 50.6261 88.0602 51.1949C88.178 52.1082 88.4682 53.0328 88.7287 53.9121C88.8463 54.3088 88.9233 54.8346 89.1623 55.1797C89.4581 55.607 89.6252 56.1795 89.8937 56.6393C90.4785 57.6405 91.0912 58.4872 91.863 59.3466C92.1394 59.6545 92.403 59.9632 92.5878 60.3329" stroke="black" stroke-width="2" stroke-linecap="round"/>
<path d="M89.9404 56.4224C91.2831 56.4224 92.4409 57.2766 93.6166 57.8057C93.9355 57.9491 94.2471 58.1623 94.5742 58.2791C94.748 58.3412 94.8836 58.4813 95.0637 58.4813" stroke="black" stroke-width="2" stroke-linecap="round"/>
<path d="M103.129 62.2789C103.666 61.802 104.512 61.4484 105.178 61.2371C106.401 60.8485 107.641 60.4101 108.912 60.2053C110.271 59.9863 111.561 59.4841 112.899 59.1735C114.153 58.8822 115.387 58.5038 116.651 58.2474C117.98 57.9777 119.265 57.885 120.614 57.885C121.414 57.885 122.215 58.0209 123.015 58.0209C123.433 58.0209 123.943 57.9198 124.306 57.6988C124.504 57.5781 124.663 57.3666 124.827 57.2055C125.079 56.9579 125.36 56.7664 125.632 56.5462C126.205 56.0831 127.045 55.8258 127.731 55.5949C128.811 55.2316 129.942 54.9899 131.078 54.8978C132.067 54.8177 133.057 54.763 134.045 54.694C134.65 54.6518 135.296 54.7485 135.89 54.6235C136.263 54.5451 136.997 54.5533 136.715 53.9893C136.368 53.2945 135.432 53.2582 134.747 53.1513C134.162 53.0599 133.569 53.0294 132.986 52.9273C132.538 52.849 132.004 52.7779 131.556 52.8468C130.517 53.0067 129.431 52.9303 128.383 53.0406C128.251 53.0545 127.864 53.1324 127.985 53.0783C128.934 52.6566 129.869 52.368 130.902 52.2227C132.306 52.0251 133.722 51.7923 135.085 51.3872C135.384 51.2981 136.764 51.1434 135.88 50.6926C135.124 50.3071 134.124 50.2019 133.295 50.3202C132.649 50.4125 131.998 50.5783 131.35 50.6373C130.788 50.6884 130.23 50.7073 129.674 50.8184" stroke="black" stroke-width="2" stroke-linecap="round"/>
<path d="M128.587 50.9996C128.481 51.0102 127.374 51.2862 127.374 51.2462C127.374 51.1649 127.986 50.878 128.061 50.836C128.543 50.5657 129.061 50.3867 129.578 50.1993C130.368 49.9132 131.166 49.7433 131.964 49.5022C132.507 49.3385 133.033 49.0819 133.555 48.8605C133.761 48.7732 135.373 48.1386 134.682 47.7834C134.001 47.433 133.329 47.6946 132.619 47.7834C132.109 47.8471 131.597 47.9245 131.093 48.0301C130.499 48.1548 129.864 48.204 129.282 48.3773C128.01 48.756 126.665 49.1318 125.459 49.6885C125.212 49.8026 124.971 49.928 124.737 50.0584C124.614 50.1263 124.751 50.0392 124.817 49.9477C125.155 49.4771 125.584 49.142 126.05 48.8026C127.023 48.0936 128.079 47.5976 129.12 47.0033C130.006 46.498 130.869 45.9617 131.728 45.4128C132.213 45.1027 132.627 44.7257 132.981 44.2728C133.124 44.0903 133.309 43.8478 133.243 43.5959C133.174 43.3374 132.927 43.2536 132.686 43.2536C132.495 43.2536 132.335 43.3051 132.155 43.3694C131.683 43.538 131.194 43.6435 130.721 43.8072C129.597 44.1966 128.446 44.5308 127.344 44.9775C125.964 45.5365 124.607 46.1504 123.232 46.7214C122.488 47.03 121.847 47.4693 121.203 47.9395C120.942 48.1303 120.807 48.3211 120.594 48.5334C120.474 48.6534 120.364 48.8237 120.262 48.9612C120.133 49.1357 119.991 49.3948 120.29 49.1726C121.617 48.1867 122.958 47.0449 123.964 45.7249C124.105 45.5398 124.359 45.2474 124.158 45.0303C123.914 44.7675 123.589 44.6159 123.219 44.7283C122.568 44.9265 121.942 45.3839 121.349 45.7098C120.557 46.1449 119.888 46.7524 119.165 47.2851" stroke="black" stroke-width="2" stroke-linecap="round"/>
<path d="M118.304 48.0553C117.478 48.8818 116.583 49.6586 115.722 50.4334C115.618 50.5274 115.824 50.2985 115.858 50.2396C116.072 49.8702 116.299 49.5029 116.492 49.1223C116.748 48.6171 116.962 48.1429 116.903 47.5796C116.802 46.6258 115.369 48.1515 115.131 48.3497C113.952 49.332 112.587 50.2792 111.63 51.4929C111.506 51.6508 111.218 52.151 111.238 51.9509C111.262 51.7049 111.513 51.3818 111.623 51.1557C111.901 50.5847 112.27 50.1106 112.506 49.5149C112.564 49.3687 112.77 48.7556 112.483 48.692C112.15 48.6179 111.804 49.0288 111.57 49.1978C110.848 49.7199 110.141 50.2613 109.428 50.7958C108.706 51.3375 108.123 51.9952 107.468 52.6103C107.057 52.9965 106.695 53.4131 106.3 53.8081C106.018 54.09 106.453 53.4984 106.512 53.4055C106.825 52.9076 107.142 52.3163 107.161 51.7144C107.171 51.3864 107.308 50.9457 107.002 50.7077C106.724 50.4912 106.106 51.2372 105.968 51.3771C105.208 52.1492 104.547 53.013 103.834 53.8258C103.495 54.2124 103.218 54.6381 102.948 55.0664C102.929 55.097 102.772 55.2825 102.772 55.2753C102.772 55.1952 102.914 55.032 102.948 54.9658C103.047 54.7719 103.145 54.5763 103.22 54.3719C103.425 53.8125 103.644 53.3301 103.628 52.721C103.622 52.5014 103.382 52.1949 103.155 52.3812C102.361 53.0304 101.532 53.7238 100.965 54.5933C100.61 55.1379 100.005 55.6001 99.5256 56.0303C99.1413 56.3753 98.7475 56.6952 98.3831 57.0596C97.9718 57.4708 97.1887 57.9966 96.6316 58.1668C96.3654 58.2482 96.0881 58.3253 95.8363 58.4512C95.6499 58.5445 95.4157 58.5882 95.2474 58.7004" stroke="black" stroke-width="2" stroke-linecap="round"/>
<path d="M98.5198 61.4329C98.9503 61.4916 99.3627 61.643 99.7917 61.7132C100.503 61.8295 101.201 61.9875 101.911 62.1099C102.917 62.2834 104.016 62.4606 104.959 62.8709C105.427 63.0744 105.932 63.3478 105.932 63.9187C105.932 64.1545 105.882 64.2941 106.068 64.4382C106.412 64.706 106.884 64.8701 107.255 65.1109C107.663 65.3751 108.129 65.8167 108.299 66.275C108.533 66.9076 108.089 67.9368 108.609 68.4568" stroke="black" stroke-width="2" stroke-linecap="round"/>
<path d="M108.765 68.8449L108.726 68.8449" stroke="black" stroke-width="2" stroke-linecap="round"/>
<path d="M108.609 68.5344C108.508 68.5231 108.37 68.3882 108.277 68.3404C108.138 68.269 107.994 68.2028 107.857 68.1291C107.5 67.9371 107.01 67.9977 106.622 67.9329C106.363 67.8898 106.086 67.9135 105.824 67.9135C105.506 67.9135 105.194 67.8275 104.875 67.8359C104.643 67.842 105.312 68.0299 105.544 68.0299" stroke="black" stroke-width="2" stroke-linecap="round"/>
<path d="M104.962 68.3792C104.836 68.3949 104.632 68.6169 104.535 68.6918C104.238 68.9198 103.941 69.1402 103.616 69.3278C103.053 69.6534 102.411 69.7977 101.801 70.0069C101.212 70.2088 100.55 70.3234 99.9362 70.4165C99.404 70.4971 98.8792 70.6512 98.3516 70.7377C97.3908 70.8952 96.3696 71.3184 95.5317 71.8135C95.1914 72.0146 94.7985 72.2037 94.4257 72.3352C94.1115 72.4461 93.7529 72.6028 93.5138 72.8419" stroke="black" stroke-width="2" stroke-linecap="round"/>
<path d="M105.567 143.979C105.816 143.799 106.342 143.846 106.622 143.846C107.817 143.846 109.012 143.913 110.208 143.913C112.624 143.913 115.057 143.624 117.463 143.913" stroke="black" stroke-width="2" stroke-linecap="round"/>
<path d="M109.176 140.772C109.438 141.426 109.376 142.465 109.376 143.178" stroke="black" stroke-width="2" stroke-linecap="round"/>
<path d="M106.436 140.037C109.035 139.94 111.66 140.07 114.255 139.903" stroke="black" stroke-width="2" stroke-linecap="round"/>
<path d="M113.119 120.723C116.698 120.723 120.24 121.336 123.745 121.993" stroke="black" stroke-width="2" stroke-linecap="round"/>
<path d="M120.67 122.394L120.67 124.332" stroke="black" stroke-width="2" stroke-linecap="round"/>
<path d="M117.463 125.401C119.24 125.401 121.019 125.505 122.787 125.683C123.832 125.789 124.893 125.851 125.928 126.04C126.39 126.124 126.819 126.294 127.286 126.337" stroke="black" stroke-width="2" stroke-linecap="round"/>
<path d="M122.341 119.052L122.341 120.79" stroke="black" stroke-width="2" stroke-linecap="round"/>
<path d="M118.799 118.05C120.15 118.05 121.528 118.353 122.876 118.466C124.011 118.561 125.17 118.751 126.284 118.986" stroke="black" stroke-width="2" stroke-linecap="round"/>
<path d="M60.835 127.02C61.1634 127.02 61.5225 127.273 61.8716 127.293C62.1619 127.309 62.1249 127.43 61.8595 127.238C61.5531 127.017 61.251 126.911 60.8835 126.911C60.6999 126.911 60.5824 126.856 60.4046 126.856C60.0985 126.856 61.0169 126.856 61.323 126.856C61.8988 126.856 61.0034 126.709 60.838 126.665C60.5391 126.586 60.3386 126.474 60.0287 126.474C59.755 126.474 60.58 126.513 60.8411 126.596C61.1902 126.706 62.286 126.788 61.9201 126.802C61.4036 126.822 60.8685 126.728 60.3985 126.517C60.2108 126.432 60.0026 126.365 59.7984 126.365C59.7542 126.365 59.5155 126.365 59.6893 126.365C60.0235 126.365 60.3584 126.359 60.6925 126.368C61.3082 126.385 61.9452 126.41 62.5566 126.487C62.7181 126.507 62.8362 126.606 62.99 126.638C63.2515 126.693 63.4475 126.843 63.6963 126.914C63.7357 126.925 63.7441 127.038 63.7144 127.062C63.5648 127.185 62.9671 126.946 62.7991 126.911C62.347 126.817 61.9486 126.734 62.593 127.129C62.9477 127.346 63.3108 127.526 63.6417 127.781C63.7377 127.855 64.1269 128.066 63.8054 128.014C63.5089 127.967 63.2753 127.729 62.9628 127.784C62.6946 127.831 63.2817 128.445 63.3416 128.487C63.568 128.645 63.4501 128.475 63.3689 128.336C63.1682 127.99 62.9449 127.672 62.6839 127.369C62.4882 127.141 62.3007 126.873 62.0898 126.662C61.9939 126.566 62.1829 126.919 62.2535 127.035C62.3672 127.222 62.5031 127.397 62.6112 127.59C62.6873 127.726 62.8288 127.822 62.8779 127.969C62.8977 128.028 62.1935 127.605 62.5445 127.699C63.324 127.908 64.1306 128.362 64.8056 128.796C65.028 128.939 64.9268 128.164 64.9268 128.014C64.9268 127.55 65.4139 128.287 65.527 128.451C65.5726 128.517 65.732 128.684 65.6573 128.654C65.4422 128.568 65.1972 128.345 64.9935 128.22C64.8864 128.155 64.4562 127.626 64.354 127.705C64.1 127.903 64.3185 128.621 64.3267 128.887C64.3356 129.176 64.4661 130.031 64.4661 129.742C64.4661 129.421 64.1815 129.066 64.1115 128.751C64.0872 128.641 64.1632 128.969 64.1994 129.075C64.3014 129.374 64.4549 129.632 64.6298 129.89C64.8103 130.157 65.0459 130.437 65.1754 130.733C65.2006 130.791 65.4724 131.258 65.4724 131.063C65.4724 130.46 65.422 129.873 65.333 129.275C65.3229 129.207 65.1542 128.15 65.2784 128.129C65.4497 128.101 65.6375 128.909 65.6694 128.996C65.9144 129.668 66.2112 130.313 66.4848 130.972C66.5421 131.111 66.6028 131.245 66.6697 131.379C66.67 131.379 66.7736 131.576 66.7788 131.564C66.8545 131.374 66.7058 130.994 66.6727 130.803C66.6219 130.51 66.6169 130.212 66.5393 129.924C66.4837 129.717 66.5648 129.807 66.6303 129.936C66.7444 130.16 66.8831 130.382 66.9697 130.618C67.0103 130.728 67.0528 130.94 67.1395 131.027C67.2286 131.116 67.2047 131.137 67.2304 131.276C67.2984 131.643 67.4178 131.983 67.4638 132.361C67.4743 132.447 67.7272 133.728 67.5456 133.585C67.0316 133.181 66.8079 132.438 66.4908 131.894C66.168 131.34 66.1817 132.674 66.1817 132.815C66.1817 133.2 66.1751 133.58 66.2605 133.958C66.3239 134.239 66.2908 133.784 66.2908 133.725C66.2908 132.78 66.3808 131.69 65.8846 130.839C65.8575 130.793 65.8063 130.539 65.7573 130.73C65.6633 131.097 65.6778 131.538 65.6967 131.912C65.7188 132.349 65.8264 132.777 65.921 133.203C65.9608 133.382 65.8819 132.821 65.8604 132.755C65.8487 132.719 65.657 132.163 65.724 132.364C65.8603 132.773 65.9524 133.185 66.1029 133.591C66.3155 134.165 66.499 134.771 66.7697 135.313C66.8792 135.532 67.0674 135.621 67.3153 135.683C67.5712 135.747 67.3792 134.471 67.3516 134.331C67.3128 134.133 67.2183 133.945 67.2183 133.743C67.2183 133.637 67.2215 134.006 67.2274 134.046C67.2958 134.514 67.4902 135.409 67.9548 135.667C68.2628 135.839 68.3015 134.923 68.3064 134.798C68.331 134.17 68.166 133.511 67.776 133.009C67.2751 132.365 68.7988 134.289 69.4006 134.84C69.4274 134.865 69.6941 135.119 69.5824 134.946C69.3836 134.639 69.3132 134.285 69.1945 133.943C69.0685 133.579 68.9229 133.254 68.752 132.912C68.6846 132.778 68.5523 132.569 68.5277 132.421C68.4984 132.246 68.3149 132.194 68.17 132.118C67.9941 132.026 67.6802 131.827 67.4668 131.827C67.3902 131.827 67.289 132.301 67.2728 132.367C67.174 132.768 67.2183 133.2 67.2183 133.609C67.2183 133.741 67.1372 134.247 67.2728 134.343C67.4809 134.49 67.6256 134.76 67.8214 134.931C68.1143 135.187 68.4019 135.345 68.6671 135.61C68.9207 135.864 69.281 136.036 69.5279 136.283C69.5311 136.286 69.3454 136.225 69.3188 136.21C69.1759 136.127 69.0969 135.969 68.9641 135.871C68.8367 135.776 68.6959 135.622 68.5277 135.64C68.2957 135.666 68.3728 135.982 68.4731 136.077C68.63 136.225 68.752 136.249 68.9429 136.322C69.2481 136.44 69.5994 136.446 69.8916 136.592C69.9929 136.643 70.2232 136.71 70.3311 136.728C70.6456 136.781 70.2029 135.458 70.0886 135.264C69.9586 135.044 69.5954 134.369 69.7098 134.598C69.8149 134.808 69.984 135.001 70.1371 135.176C70.2482 135.304 70.6187 135.637 70.4675 135.561C70.2401 135.448 69.3429 134.963 69.1945 135.301C69.0813 135.558 69.4227 135.842 69.5885 135.968C69.7101 136.06 70.7415 136.86 70.7069 136.428C70.6668 135.926 70.2588 135.545 70.031 135.122C69.9074 134.892 69.9443 134.748 70.1705 134.852C70.4441 134.978 70.6121 135.276 70.8161 135.48C70.9946 135.658 71.1267 135.811 71.3404 135.955C71.5376 136.089 71.9003 136.278 72.1406 136.295C72.2346 136.302 72.2501 136.373 72.3346 136.401C72.579 136.482 71.8235 136.333 71.5708 136.283C71.1967 136.209 70.721 135.996 70.3948 136.24C70.3089 136.305 70.2717 136.66 70.3584 136.734C70.8105 137.122 71.1934 137.346 71.8193 137.389C72.3346 137.425 72.788 137.604 73.3166 137.604C73.5986 137.604 73.9126 137.564 74.1896 137.616C74.3362 137.644 74.3882 137.668 74.1987 137.632C73.9056 137.575 73.6557 137.356 73.3894 137.222C72.9395 136.997 72.5474 136.662 72.077 136.486C71.7847 136.376 71.7583 136.396 71.4738 136.404C71.3826 136.407 71.2399 136.425 71.2586 136.546C71.2932 136.771 71.4422 136.724 71.6314 136.756C71.9997 136.818 72.328 136.895 72.7044 136.895C72.9205 136.895 73.2469 136.958 73.4561 136.883C73.524 136.858 73.1612 136.564 73.1105 136.513C73.0316 136.434 73.0077 136.37 72.8923 136.325C72.7667 136.276 72.3544 136.295 72.4892 136.295C72.7759 136.295 73.116 136.537 73.3773 136.643C73.6323 136.748 73.9584 136.731 74.229 136.731C74.4808 136.731 74.7195 136.786 74.9716 136.786C75.3144 136.786 75.6676 136.752 76.0021 136.828C76.5077 136.944 77.0926 136.95 77.6146 136.95C77.9955 136.95 78.3764 136.95 78.7573 136.95C79.5746 136.95 80.5742 137.175 81.373 136.947C81.4139 136.935 81.4718 136.886 81.3791 136.907C81.1011 136.971 80.8078 136.955 80.5243 136.977C80.1407 137.007 79.6235 136.901 79.2513 137.007C79.0739 137.058 78.8809 137.146 78.6936 137.171C78.4321 137.206 78.1522 137.377 77.8995 137.386C77.6765 137.394 77.4897 137.495 77.263 137.495C76.9518 137.495 76.6406 137.495 76.3294 137.495C75.8202 137.495 75.311 137.495 74.8018 137.495C74.5442 137.495 74.3006 137.441 74.041 137.441C73.5528 137.441 75.0169 137.402 75.505 137.389C76.4479 137.364 77.3743 137.408 78.3117 137.319C79.0109 137.253 79.9051 137.176 80.5638 136.922C80.7273 136.859 81.5411 136.947 81.6216 136.786" stroke="#2E3192" stroke-linecap="round"/>
<path d="M72.4558 118.891C72.36 118.902 72.1768 119.049 72.1285 119.133C72.0893 119.202 72.0754 119.247 72.0466 119.327C72.0022 119.452 71.8291 119.461 71.8041 119.573C71.7789 119.687 71.4906 119.875 71.3919 119.952C71.197 120.103 71.4164 119.797 71.4707 119.746C71.5947 119.628 71.7325 119.522 71.8587 119.406C71.9822 119.293 72.1325 119.102 72.2982 119.055C72.4323 119.016 72.7446 118.873 72.8104 118.755C72.8879 118.615 72.8325 118.637 72.7256 118.733C72.5122 118.925 72.3004 119.12 72.0739 119.297C71.9187 119.418 71.6654 119.49 71.5829 119.676C71.5502 119.75 71.4013 119.871 71.3374 119.928C70.9598 120.263 70.6868 120.727 70.425 121.14C70.183 121.522 70.0915 121.99 69.8491 122.34C69.791 122.424 69.844 122.566 69.7825 122.668C69.7123 122.783 69.6293 122.944 69.6188 123.08C69.6042 123.27 69.4765 123.411 69.4127 123.571C69.2762 123.912 68.9753 124.251 68.9641 124.62C68.9583 124.81 68.7843 124.995 68.7489 125.189C68.7088 125.41 68.6253 125.623 68.5852 125.844C68.5488 126.044 68.5276 126.24 68.4731 126.444C68.4435 126.555 68.3271 126.651 68.3124 126.753C68.3066 126.794 68.3401 126.998 68.2821 126.905C68.1151 126.638 68.1483 126.259 67.9578 125.986C67.8599 125.847 67.8519 125.527 67.8214 125.359C67.7136 124.766 67.9225 124.157 68.1184 123.613C68.2017 123.382 68.2278 123.062 68.364 122.862C68.5142 122.641 68.7523 122.46 68.9217 122.249C69.2015 121.902 69.5122 121.538 69.8249 121.225C69.8779 121.172 69.9052 121.084 69.9583 121.031C70.0079 120.981 70.0755 120.807 70.0977 120.873C70.1363 120.989 70.0192 121.173 69.9764 121.267C69.8291 121.592 69.6722 121.911 69.5157 122.231C69.3255 122.621 69.1506 123.03 68.9883 123.431C68.9211 123.598 68.9911 124.182 68.8429 124.25C68.7312 124.301 68.4281 124.705 68.4852 124.498C68.5313 124.331 68.4914 124.139 68.5943 123.995C68.668 123.892 68.7459 123.822 68.7459 123.692" stroke="#006837" stroke-linecap="round"/>
<path d="M82.2762 122.328C82.1164 122.55 81.9506 122.528 81.7064 122.601C81.1608 122.765 80.593 122.893 80.0272 122.959C79.6024 123.008 78.9232 122.915 78.6087 123.28C78.1447 123.818 77.5229 124.026 76.9599 124.401C76.9055 124.438 76.475 124.676 76.7356 124.51C77.0581 124.306 77.4585 124.192 77.8085 124.044C79.6608 123.259 81.5767 122.643 83.5735 122.316C83.9253 122.258 84.3541 122.153 84.6768 122.001C84.9297 121.881 85.3374 121.898 85.5497 121.728C85.6898 121.616 85.9174 121.658 86.0832 121.607C86.3043 121.539 86.5024 121.455 86.7379 121.455C87.1845 121.455 87.6564 121.503 88.0897 121.389C88.2773 121.339 88.3746 121.237 88.5928 121.237C88.657 121.237 88.8314 121.155 88.7807 121.195C88.6202 121.319 88.2444 121.226 88.0533 121.243C87.1453 121.326 86.2589 121.401 85.3436 121.401C84.7392 121.401 84.0774 121.395 83.4795 121.482C83.3655 121.499 83.0321 121.579 83.137 121.531C83.5218 121.356 83.8867 121.157 84.3009 121.055C84.3701 121.038 84.9798 120.914 84.8799 120.998C84.4393 121.365 83.706 121.556 83.1764 121.752C82.6215 121.958 82.049 122.105 81.4912 122.301C81.2862 122.373 81.1024 122.516 80.9032 122.61C80.0595 123.007 79.2321 123.468 78.3965 123.886C78.0127 124.078 76.8442 124.568 77.269 124.507C77.8917 124.418 78.548 124.024 79.124 123.783C79.4815 123.634 80.0582 123.593 80.3576 123.344C80.7666 123.003 79.5037 124.078 78.9755 124.144C78.8396 124.161 79.205 123.994 79.3271 123.932C79.6812 123.752 80.0591 123.614 80.4334 123.483C80.9041 123.318 81.4112 123.224 81.864 123.013C82.2463 122.835 82.9271 122.001 82.0701 122.001C81.5549 122.001 81.0902 122.048 80.591 122.192C80.2845 122.28 79.9765 122.365 79.6726 122.461C79.5395 122.504 79.2467 122.703 79.2664 122.565C79.2913 122.39 79.8889 122.126 80.006 122.064C80.4077 121.852 80.8454 121.596 81.2881 121.486C81.3927 121.459 81.4879 121.455 81.5943 121.455C81.7713 121.455 81.9594 121.301 82.1398 121.267C82.1541 121.265 82.5682 121.224 82.5551 121.255C82.4271 121.562 82.0642 121.684 81.7913 121.807C80.9215 122.197 79.9208 122.125 79.0391 122.449C78.6754 122.583 78.2928 122.679 77.9237 122.807C77.7072 122.882 77.4407 123.169 77.269 123.328C77.0266 123.553 76.5416 123.671 76.2445 123.832C75.9644 123.983 75.6911 124.197 75.4686 124.42C75.3619 124.526 75.2045 124.683 75.0625 124.741C74.8603 124.823 74.701 124.983 74.5169 125.111C74.3781 125.207 74.1973 125.257 74.0743 125.371C73.9962 125.444 73.9544 125.538 73.8622 125.602C73.2457 126.028 72.9856 126.787 72.48 127.293C72.2521 127.521 72.1331 127.831 71.8981 128.045C71.6056 128.31 72.1683 127.625 72.2133 127.566C72.4492 127.253 72.7133 126.937 72.9226 126.608C73.1182 126.301 73.5597 126.081 73.8773 125.929C74.1921 125.778 74.5161 125.671 74.82 125.496C75.01 125.386 75.2379 125.225 75.4535 125.171C75.9388 125.05 76.3786 124.652 76.875 124.51C76.9768 124.481 76.9542 124.367 77.0144 124.35C77.0941 124.327 77.1792 124.351 77.0932 124.429C76.9625 124.546 76.9068 124.654 76.7416 124.759C76.586 124.858 76.4195 124.923 76.2779 125.029C75.9229 125.295 75.4798 125.432 75.0958 125.635C74.8453 125.768 74.6144 125.81 74.3896 125.953C74.2931 126.015 74.1509 126.023 74.041 126.041C73.8565 126.072 73.6561 126.299 73.4894 126.393C73.284 126.508 73.1042 126.617 72.9195 126.72C72.8791 126.743 72.7125 126.952 72.7619 126.963C73.046 127.026 73.5247 126.456 73.7349 126.284C74.0444 126.03 74.3426 125.843 74.6381 125.547" stroke="#FBB03B" stroke-linecap="round"/>
<path d="M82.3308 127.62C82.6374 127.62 82.8563 127.674 82.4278 127.796C81.8346 127.965 81.1282 127.729 80.5547 127.92C80.3476 127.989 80.07 128.057 79.8515 128.057C79.7482 128.057 79.6483 128.106 79.5635 128.163C79.4237 128.256 79.8871 128.093 79.9091 128.084C80.0949 128.009 81.1132 127.86 81.1306 127.566C81.1584 127.092 78.6886 127.238 78.2147 127.238C77.9849 127.238 77.6697 127.465 77.4752 127.578C77.182 127.748 76.852 128.156 76.5174 128.217C76.2658 128.263 75.9111 128.382 75.699 128.517C75.4049 128.705 74.9504 128.726 74.6927 128.984C74.4857 129.191 74.0704 129.246 73.8804 129.463C73.6839 129.688 74.4379 129.248 74.723 129.16C75.0164 129.069 75.345 128.907 75.6444 128.872C75.8087 128.853 75.9238 128.71 76.0779 128.663C76.2627 128.606 76.3991 128.579 76.5719 128.469C76.7351 128.365 77.0049 128.441 77.1933 128.357C77.3471 128.288 77.5393 128.227 77.7055 128.22C78.1149 128.205 78.4974 128.002 78.921 128.002C79.1226 128.002 79.5853 128.001 79.6575 127.784" stroke="#FF0000" stroke-linecap="round"/>
<rect x="1.00565" y="1.97152" width="170.502" height="170.502" rx="85.2511" transform="rotate(-0.324578 1.00565 1.97152)" stroke="black" stroke-width="2"/>
</svg>
